<svg id="Warstwa_1" data-name="Warstwa 1" xmlns="http://www.w3.org/2000/svg" viewBox="0 0 309.42 103.75"><defs><style>.cls-1{fill:#fff;}.cls-2{fill:#164194;}.cls-3{fill:#ffed00;}.cls-4{fill:#1d1d1b;}</style></defs><rect class="cls-1" width="309.42" height="103.75"/><rect class="cls-2" x="3.51" y="19.75" width="102.04" height="68.02"/><polygon class="cls-3" points="52.35 34.58 54.51 33.01 56.66 34.58 55.84 32.04 58.03 30.47 55.33 30.47 54.51 27.89 53.69 30.47 50.98 30.47 53.17 32.04 52.35 34.58"/><polygon class="cls-3" points="41.21 37.57 43.37 35.99 45.52 37.57 44.7 35.03 46.89 33.45 44.19 33.45 43.36 30.88 42.54 33.46 39.85 33.45 42.03 35.03 41.21 37.57"/><polygon class="cls-3" points="35.21 39.05 34.39 41.63 31.69 41.63 33.87 43.2 33.06 45.74 35.21 44.17 37.37 45.74 36.55 43.2 38.73 41.63 36.04 41.63 35.21 39.05"/><polygon class="cls-3" points="32.22 55.29 34.37 56.87 33.55 54.33 35.74 52.76 33.05 52.76 32.22 50.18 31.39 52.76 28.7 52.76 30.88 54.33 30.07 56.87 32.22 55.29"/><polygon class="cls-3" points="36.04 63.91 35.21 61.34 34.39 63.91 31.69 63.91 33.87 65.49 33.06 68.03 35.21 66.45 37.37 68.03 36.55 65.49 38.73 63.91 36.04 63.91"/><polygon class="cls-3" points="44.2 72.08 43.38 69.51 42.55 72.09 39.85 72.08 42.04 73.66 41.23 76.2 43.38 74.62 45.54 76.2 44.72 73.66 46.91 72.08 44.2 72.08"/><polygon class="cls-3" points="55.33 75.04 54.51 72.47 53.69 75.04 50.98 75.04 53.18 76.61 52.35 79.16 54.51 77.58 56.67 79.16 55.84 76.61 58.04 75.04 55.33 75.04"/><polygon class="cls-3" points="66.46 72.08 65.63 69.51 64.8 72.09 62.12 72.08 64.3 73.66 63.48 76.2 65.63 74.62 67.79 76.2 66.97 73.66 69.17 72.08 66.46 72.08"/><polygon class="cls-3" points="74.63 63.91 73.8 61.34 72.98 63.91 70.29 63.91 72.48 65.49 71.65 68.03 73.8 66.45 75.96 68.03 75.14 65.49 77.33 63.91 74.63 63.91"/><polygon class="cls-3" points="80.28 52.72 77.59 52.72 76.77 50.15 75.94 52.72 73.25 52.72 75.44 54.3 74.61 56.84 76.77 55.26 78.92 56.84 78.1 54.3 80.28 52.72"/><polygon class="cls-3" points="71.65 45.7 73.81 44.14 75.96 45.7 75.14 43.16 77.33 41.6 74.63 41.6 73.81 39.01 72.98 41.6 70.29 41.6 72.48 43.16 71.65 45.7"/><polygon class="cls-3" points="65.67 30.88 64.85 33.46 62.15 33.45 64.34 35.03 63.52 37.57 65.68 35.99 67.82 37.57 67.01 35.03 69.19 33.45 66.49 33.45 65.67 30.88"/><path class="cls-4" d="M128.3,64V52.8h6.91v1.35h-5.28v3.34h4.69V58.8h-4.69v3.89h5.68V64Z"/><path class="cls-4" d="M143.78,63.61c-.35.09-.81.18-1.37.28a12.15,12.15,0,0,1-2,.14,4.17,4.17,0,0,1-1.64-.28,2.65,2.65,0,0,1-1.07-.8,3.32,3.32,0,0,1-.58-1.23,6.28,6.28,0,0,1-.18-1.56V55.43h1.51v4.41a3.85,3.85,0,0,0,.48,2.2,1.93,1.93,0,0,0,1.64.66H142l.27-.06V55.43h1.51Z"/><path class="cls-4" d="M149.4,55.43h.44l.5.07.44.08.3.07L150.82,57a5.66,5.66,0,0,0-.59-.15,4.7,4.7,0,0,0-1.06-.09,3.84,3.84,0,0,0-.83.09l-.55.12V64h-1.5V56a9.89,9.89,0,0,1,1.32-.36A9,9,0,0,1,149.4,55.43Z"/><path class="cls-4" d="M159.89,59.63a5.28,5.28,0,0,1-.29,1.81,3.85,3.85,0,0,1-.82,1.39,3.6,3.6,0,0,1-1.25.9,4.08,4.08,0,0,1-3.18,0,3.6,3.6,0,0,1-1.25-.9,4.16,4.16,0,0,1-.82-1.39,5.75,5.75,0,0,1,0-3.62,3.89,3.89,0,0,1,.82-1.4,3.6,3.6,0,0,1,1.25-.9,4.08,4.08,0,0,1,3.18,0,3.6,3.6,0,0,1,1.25.9,3.81,3.81,0,0,1,.82,1.4A5.28,5.28,0,0,1,159.89,59.63Zm-1.57,0a3.59,3.59,0,0,0-.64-2.27,2.06,2.06,0,0,0-1.74-.83,2.11,2.11,0,0,0-1.74.83,3.59,3.59,0,0,0-.64,2.27,3.55,3.55,0,0,0,.64,2.25,2.09,2.09,0,0,0,1.74.84,2.05,2.05,0,0,0,1.74-.84A3.55,3.55,0,0,0,158.32,59.63Z"/><path class="cls-4" d="M169.35,59.84a5.81,5.81,0,0,1-.25,1.76,3.72,3.72,0,0,1-.73,1.39,3.32,3.32,0,0,1-1.19.91,4.17,4.17,0,0,1-2.9.13,4.47,4.47,0,0,1-.84-.37V67h-1.51V55.87c.36-.09.81-.18,1.34-.29a9.66,9.66,0,0,1,1.86-.15,4.75,4.75,0,0,1,1.75.31,3.66,3.66,0,0,1,1.32.87,3.84,3.84,0,0,1,.85,1.39A5.22,5.22,0,0,1,169.35,59.84Zm-1.57,0a3.17,3.17,0,0,0-.73-2.27,2.5,2.5,0,0,0-1.94-.8,9.37,9.37,0,0,0-1.06,0,3.14,3.14,0,0,0-.61.12V62.2a3.27,3.27,0,0,0,.8.44,3.1,3.1,0,0,0,1.13.21,2.39,2.39,0,0,0,1.11-.24,2,2,0,0,0,.73-.61,2.46,2.46,0,0,0,.42-1,5.67,5.67,0,0,0,.15-1.16Z"/><path class="cls-4" d="M170.93,59.64a5.45,5.45,0,0,1,.32-2,4,4,0,0,1,.86-1.39,3.41,3.41,0,0,1,1.23-.82,3.63,3.63,0,0,1,1.42-.28,3.25,3.25,0,0,1,2.61,1.06,4.88,4.88,0,0,1,.91,3.24v.25a1.31,1.31,0,0,1,0,.28h-5.76a3.05,3.05,0,0,0,.76,2,2.76,2.76,0,0,0,2.07.68,5.49,5.49,0,0,0,1.34-.13,6,6,0,0,0,.82-.27l.21,1.26a4.45,4.45,0,0,1-1,.31,7,7,0,0,1-1.51.17,4.94,4.94,0,0,1-1.9-.33,3.39,3.39,0,0,1-1.32-.92,3.56,3.56,0,0,1-.77-1.38A6,6,0,0,1,170.93,59.64Zm5.78-.82a2.49,2.49,0,0,0-.51-1.68,1.77,1.77,0,0,0-1.45-.66,2.09,2.09,0,0,0-.92.2,2.66,2.66,0,0,0-.67.53,2.81,2.81,0,0,0-.43.75,3.7,3.7,0,0,0-.2.86Z"/><path class="cls-4" d="M179,67.06h-.5a2.33,2.33,0,0,1-.52-.13l.2-1.23.37.08h.39a1.22,1.22,0,0,0,1.11-.47,2.44,2.44,0,0,0,.33-1.4v-8.3h1.51v8.26a3.44,3.44,0,0,1-.74,2.41A2.81,2.81,0,0,1,179,67.06Zm2.13-13a1,1,0,0,1-.69-.26,1,1,0,0,1-.29-.72.94.94,0,0,1,.29-.72,1,1,0,0,1,.69-.27,1,1,0,0,1,.71,1.72.91.91,0,0,1-.71.27Z"/><path class="cls-4" d="M186.35,62.75a2.93,2.93,0,0,0,1.37-.24.82.82,0,0,0,.44-.78,1,1,0,0,0-.44-.87,6.5,6.5,0,0,0-1.44-.73c-.32-.13-.63-.26-.93-.4a2.93,2.93,0,0,1-.77-.48,2,2,0,0,1-.71-1.62,2.13,2.13,0,0,1,.82-1.77A3.58,3.58,0,0,1,187,55.2h.71l.66.1.55.12.36.11-.27,1.3a5.41,5.41,0,0,0-.77-.27,5.17,5.17,0,0,0-1.24-.13,2.33,2.33,0,0,0-1.1.25.81.81,0,0,0-.47.78,1,1,0,0,0,.1.49,1.18,1.18,0,0,0,.32.38,3,3,0,0,0,.55.32c.21.09.47.2.78.3a9.61,9.61,0,0,1,1.06.45,3.25,3.25,0,0,1,.81.51,2,2,0,0,1,.51.7,2.63,2.63,0,0,1,.17,1,2,2,0,0,1-.86,1.76,4.34,4.34,0,0,1-2.47.6,6.07,6.07,0,0,1-1.75-.19,8.63,8.63,0,0,1-.86-.28l.27-1.29.83.29A4.88,4.88,0,0,0,186.35,62.75Z"/><path class="cls-4" d="M194.58,59.4a10.9,10.9,0,0,1,1,.92c.36.37.71.77,1.07,1.19s.68.86,1,1.3a14,14,0,0,1,.8,1.22h-1.77c-.23-.38-.49-.76-.79-1.16a14.3,14.3,0,0,0-.93-1.13c-.32-.35-.65-.68-1-1a10.53,10.53,0,0,0-1-.76v4h-1.51V51.72l1.51-.26v7.68l.86-.86a11.13,11.13,0,0,0,.92-1l.86-.93c.27-.29.5-.56.7-.78h1.76c-.25.27-.52.56-.81.89s-.59.65-.91,1l-.94,1Z"/><path class="cls-4" d="M200.65,54.08a1,1,0,0,1-.69-.26,1,1,0,0,1-.28-.72.89.89,0,0,1,.28-.72,1,1,0,0,1,1.38,0,.89.89,0,0,1,.28.72,1,1,0,0,1-.28.72A1,1,0,0,1,200.65,54.08Zm.76,10h-1.5V55.61h1.5Z"/><path class="cls-4" d="M207.68,64V52.8h6.77v1.35h-5.24v3.39h4.62v1.32h-4.62V64Z"/><path class="cls-4" d="M222.51,63.61c-.35.09-.81.18-1.37.28a12.15,12.15,0,0,1-2,.14,4.17,4.17,0,0,1-1.64-.28,2.65,2.65,0,0,1-1.07-.8,3.32,3.32,0,0,1-.58-1.23,6.28,6.28,0,0,1-.18-1.56V55.43h1.54v4.41a3.85,3.85,0,0,0,.48,2.2,1.93,1.93,0,0,0,1.64.66h1.4l.27-.06V55.43h1.51Z"/><path class="cls-4" d="M225,55.85c.34-.09.8-.18,1.37-.28a12.15,12.15,0,0,1,2-.14,4.32,4.32,0,0,1,1.67.28,2.69,2.69,0,0,1,1.06.8,3.23,3.23,0,0,1,.56,1.22,6.92,6.92,0,0,1,.16,1.57V64h-1.51V59.6a7.38,7.38,0,0,0-.1-1.33,2.21,2.21,0,0,0-.35-.89,1.4,1.4,0,0,0-.65-.5,2.82,2.82,0,0,0-1-.15h-1l-.42.06-.27.05V64H225Z"/><path class="cls-4" d="M239.68,51.53l1.5-.26V63.59c-.34.1-.79.2-1.33.3A11.65,11.65,0,0,1,238,64a4.55,4.55,0,0,1-1.75-.31,3.7,3.7,0,0,1-1.33-.87,4,4,0,0,1-.85-1.39,5.21,5.21,0,0,1-.3-1.83,6.34,6.34,0,0,1,.25-1.79,4.05,4.05,0,0,1,.74-1.39,3.41,3.41,0,0,1,1.19-.91,4.31,4.31,0,0,1,2.9-.13,3.74,3.74,0,0,1,.84.38Zm0,5.66a3.34,3.34,0,0,0-1.93-.64,2.51,2.51,0,0,0-1.11.23,2,2,0,0,0-.75.65,2.6,2.6,0,0,0-.42,1,5.56,5.56,0,0,0-.13,1.22,3.27,3.27,0,0,0,.72,2.27,2.51,2.51,0,0,0,2,.8c.33,0,.67,0,1,0a4.53,4.53,0,0,0,.64-.13Z"/><path class="cls-4" d="M250.4,63.61c-.34.09-.8.18-1.37.28a12.15,12.15,0,0,1-2,.14,4.12,4.12,0,0,1-1.63-.28,2.65,2.65,0,0,1-1.07-.8,3.1,3.1,0,0,1-.58-1.23,6.28,6.28,0,0,1-.18-1.56V55.43h1.5v4.41a3.84,3.84,0,0,0,.49,2.2,1.9,1.9,0,0,0,1.64.66h1.4l.26-.06V55.43h1.51Z"/><path class="cls-4" d="M254.87,62.75a2.93,2.93,0,0,0,1.37-.24.82.82,0,0,0,.45-.78,1,1,0,0,0-.44-.87,6.5,6.5,0,0,0-1.44-.73c-.33-.13-.64-.26-.93-.4a2.93,2.93,0,0,1-.77-.48,2,2,0,0,1-.52-.66,2,2,0,0,1-.2-1,2.17,2.17,0,0,1,.83-1.77,3.49,3.49,0,0,1,2.25-.66h.71l.67.1.54.12.37.11-.28,1.3a4.89,4.89,0,0,0-.76-.27,4.79,4.79,0,0,0-1.25-.13,2.33,2.33,0,0,0-1.1.25.83.83,0,0,0-.47.78,1,1,0,0,0,.11.49,1,1,0,0,0,.32.38,3.65,3.65,0,0,0,.54.32c.22.09.48.2.78.3a10.64,10.64,0,0,1,1.07.45,3.2,3.2,0,0,1,.8.51,2,2,0,0,1,.51.7,2.46,2.46,0,0,1,.18,1,2,2,0,0,1-.87,1.76,4.34,4.34,0,0,1-2.47.6,6.07,6.07,0,0,1-1.75-.19,8.63,8.63,0,0,1-.86-.28l.28-1.29.83.29A4.54,4.54,0,0,0,254.87,62.75Z"/><path class="cls-4" d="M265.64,56.74c-.22.25-.52.6-.89,1s-.78,1-1.2,1.51-.86,1.13-1.28,1.73-.8,1.19-1.13,1.74h4.63V64h-6.43V63a13.3,13.3,0,0,1,1-1.57c.42-.57.77-1.15,1.19-1.71s.82-1.11,1.21-1.61l1-1.27h-4.16V55.61h6.07Z"/><path class="cls-4" d="M133.8,79.18l.65.85c.27.35.54.74.82,1.17s.56.87.83,1.34a13.18,13.18,0,0,1,.71,1.34h-1.72c-.21-.41-.45-.82-.7-1.25s-.51-.82-.77-1.2-.52-.75-.77-1.08-.49-.63-.69-.87h-2.28v4.39H128.3V72.82a9.4,9.4,0,0,1,1.49-.22c.54,0,1-.06,1.49-.06a6.17,6.17,0,0,1,3.61.89,3.05,3.05,0,0,1,1.24,2.66,3.13,3.13,0,0,1-.59,1.91A3.55,3.55,0,0,1,133.8,79.18Zm-2.39-5.26a13,13,0,0,0-1.53,0V78.2H131a11.8,11.8,0,0,0,1.46-.09,3.16,3.16,0,0,0,1.09-.3,1.58,1.58,0,0,0,.69-.64,2.12,2.12,0,0,0,.25-1.1,2,2,0,0,0-.25-1,1.79,1.79,0,0,0-.65-.66,2.76,2.76,0,0,0-1-.34A5.77,5.77,0,0,0,131.41,73.92Z"/><path class="cls-4" d="M145.75,79.48a5.28,5.28,0,0,1-.29,1.81,4.16,4.16,0,0,1-.82,1.39,3.6,3.6,0,0,1-1.25.9,4.08,4.08,0,0,1-3.18,0,3.6,3.6,0,0,1-1.25-.9,3.85,3.85,0,0,1-.82-1.39,5.75,5.75,0,0,1,0-3.62,3.81,3.81,0,0,1,.82-1.4,3.6,3.6,0,0,1,1.25-.9,4.08,4.08,0,0,1,3.18,0,3.6,3.6,0,0,1,1.25.9,3.89,3.89,0,0,1,.82,1.4A5.28,5.28,0,0,1,145.75,79.48Zm-1.57,0a3.58,3.58,0,0,0-.64-2.26,2.09,2.09,0,0,0-1.74-.84,2.05,2.05,0,0,0-1.74.84,4.32,4.32,0,0,0,0,4.52,2.06,2.06,0,0,0,1.74.83,2.11,2.11,0,0,0,1.74-.83,3.58,3.58,0,0,0,.67-2.26Z"/><path class="cls-4" d="M153.06,76.59l-.9,1L151,79.1c-.43.55-.85,1.13-1.28,1.73s-.8,1.19-1.13,1.74h4.66v1.26h-6.43v-1a17.32,17.32,0,0,1,1-1.57c.38-.58.78-1.15,1.19-1.71s.82-1.11,1.22-1.61l1-1.27H147V75.46h6.08Z"/><path class="cls-4" d="M161.9,83.88c-.3-.78-.62-1.66-1-2.66A27.17,27.17,0,0,1,160,78.1q-.42,1.62-.93,3.12a27.94,27.94,0,0,1-1,2.66h-1.31a39.87,39.87,0,0,1-1.46-3.81c-.48-1.42-.93-3-1.35-4.61h1.62q.17.77.39,1.65c.15.59.31,1.19.48,1.78s.34,1.17.53,1.72.35,1,.52,1.44c.18-.51.36-1,.54-1.61s.35-1.14.51-1.72.31-1.14.46-1.7.27-1.08.38-1.56h1.25c.09.48.21,1,.35,1.56s.3,1.12.46,1.7.33,1.15.51,1.72.36,1.1.54,1.61q.24-.61.51-1.44c.18-.55.35-1.12.53-1.72s.33-1.19.48-1.78.28-1.14.39-1.65h1.56c-.42,1.65-.87,3.19-1.35,4.61s-1,2.7-1.45,3.81Z"/><path class="cls-4" d="M174.76,79.48a5.28,5.28,0,0,1-.29,1.81,4,4,0,0,1-.81,1.39,3.52,3.52,0,0,1-1.26.9,4.06,4.06,0,0,1-3.17,0,3.52,3.52,0,0,1-1.26-.9,4.26,4.26,0,0,1-.82-1.39,5.75,5.75,0,0,1,0-3.62,4.2,4.2,0,0,1,.82-1.4,3.52,3.52,0,0,1,1.26-.9,4.06,4.06,0,0,1,3.17,0,3.52,3.52,0,0,1,1.26.9,4,4,0,0,1,.81,1.4A5.28,5.28,0,0,1,174.76,79.48Zm-1.57,0a3.58,3.58,0,0,0-.64-2.26,2.05,2.05,0,0,0-1.74-.84,2.09,2.09,0,0,0-1.74.84,4.32,4.32,0,0,0,0,4.52,2.11,2.11,0,0,0,1.74.83,2.06,2.06,0,0,0,1.74-.83,3.58,3.58,0,0,0,.66-2.26Z"/><path class="cls-4" d="M175.43,86.91a4.17,4.17,0,0,1-.5,0,1.89,1.89,0,0,1-.52-.13l.19-1.23.38.08h.39a1.26,1.26,0,0,0,1.1-.47,2.45,2.45,0,0,0,.34-1.4v-8.3h1.5v8.26a3.43,3.43,0,0,1-.73,2.41A2.81,2.81,0,0,1,175.43,86.91Zm2.12-13a1,1,0,0,1-.69-.26,1.07,1.07,0,0,1,0-1.44,1,1,0,0,1,1.38,0,.89.89,0,0,1,.28.72,1,1,0,0,1-.28.72,1,1,0,0,1-.69.28Z"/><path class="cls-4" d="M187.53,83.46c-.34.09-.8.18-1.37.28a12.15,12.15,0,0,1-2,.14,4.12,4.12,0,0,1-1.63-.28,2.65,2.65,0,0,1-1.07-.8,3.1,3.1,0,0,1-.58-1.23A6.28,6.28,0,0,1,180.7,80V75.28h1.5v4.41a3.84,3.84,0,0,0,.49,2.2,1.9,1.9,0,0,0,1.64.66h1.4l.26-.06V75.28h1.51Z"/><path class="cls-4" d="M199.29,79.18,200,80c.26.35.53.74.82,1.17s.55.87.83,1.34a11.37,11.37,0,0,1,.7,1.34h-1.71c-.22-.41-.45-.82-.71-1.25s-.51-.82-.77-1.2-.51-.75-.77-1.08-.48-.63-.68-.87h-2.29v4.39H193.8V72.82a9.27,9.27,0,0,1,1.48-.22q.83-.06,1.5-.06a6.17,6.17,0,0,1,3.61.89A3.45,3.45,0,0,1,201,78,3.38,3.38,0,0,1,199.29,79.18Zm-2.38-5.26h-1.54V78.2h1.12a11.8,11.8,0,0,0,1.46-.09,3.4,3.4,0,0,0,1.09-.3,1.58,1.58,0,0,0,.69-.64,2.21,2.21,0,0,0,.24-1.1,2.17,2.17,0,0,0-.24-1,1.74,1.74,0,0,0-.66-.66,2.58,2.58,0,0,0-1-.34A5.67,5.67,0,0,0,196.91,73.92Z"/><path class="cls-4" d="M203.34,79.49a5.4,5.4,0,0,1,.33-1.95,4.13,4.13,0,0,1,.85-1.39,3.45,3.45,0,0,1,1.24-.82,3.63,3.63,0,0,1,1.42-.28,3.26,3.26,0,0,1,2.61,1.06,4.94,4.94,0,0,1,.91,3.24v.25a1.31,1.31,0,0,1,0,.28h-5.77a3,3,0,0,0,.77,2,2.76,2.76,0,0,0,2.07.68,4.9,4.9,0,0,0,2.15-.4l.21,1.26a4.45,4.45,0,0,1-1,.31,6.83,6.83,0,0,1-1.56.16,5,5,0,0,1-1.91-.33,3.58,3.58,0,0,1-1.32-.92,3.83,3.83,0,0,1-.77-1.38A6.24,6.24,0,0,1,203.34,79.49Zm5.79-.82a2.49,2.49,0,0,0-.51-1.68,1.77,1.77,0,0,0-1.45-.66,2,2,0,0,0-.92.2,2.28,2.28,0,0,0-1.1,1.28,3.7,3.7,0,0,0-.2.86Z"/><path class="cls-4" d="M218.07,83a3.43,3.43,0,0,1-.76.33,3.84,3.84,0,0,1-1.3.2,4.34,4.34,0,0,1-1.43-.24,3.13,3.13,0,0,1-1.18-.75,3.66,3.66,0,0,1-.79-1.27,5.64,5.64,0,0,1,0-3.51,3.85,3.85,0,0,1,.8-1.33,3.55,3.55,0,0,1,1.29-.87,4.41,4.41,0,0,1,1.72-.32,9.46,9.46,0,0,1,1.84.15c.52.11,1,.2,1.32.29v7.51a3.56,3.56,0,0,1-1,2.82,4.48,4.48,0,0,1-3,.88,8.44,8.44,0,0,1-1.5-.13,8.72,8.72,0,0,1-1.22-.31l.27-1.31a6.1,6.1,0,0,0,1.11.31,5.74,5.74,0,0,0,1.37.14,2.91,2.91,0,0,0,1.94-.53,2.23,2.23,0,0,0,.59-1.7Zm0-6.25a4.13,4.13,0,0,0-.61-.13,8.34,8.34,0,0,0-1,0,2.31,2.31,0,0,0-1.88.79,3.21,3.21,0,0,0-.65,2.11,3.79,3.79,0,0,0,.18,1.25,2.64,2.64,0,0,0,.51.85,2,2,0,0,0,.73.51,2.46,2.46,0,0,0,.85.16,3.77,3.77,0,0,0,1.1-.17,2.94,2.94,0,0,0,.79-.4Z"/><path class="cls-4" d="M222.81,73.93a.91.91,0,0,1-.68-.26,1,1,0,0,1,.71-1.72,1,1,0,0,1,.69.27.94.94,0,0,1,.29.72,1,1,0,0,1-.29.72A1,1,0,0,1,222.81,73.93Zm.77,9.95h-1.51V75.46h1.51Z"/><path class="cls-4" d="M233.52,79.48a5.28,5.28,0,0,1-.29,1.81,4.16,4.16,0,0,1-.82,1.39,3.6,3.6,0,0,1-1.25.9,4.08,4.08,0,0,1-3.18,0,3.6,3.6,0,0,1-1.25-.9,4.16,4.16,0,0,1-.82-1.39,5.75,5.75,0,0,1,0-3.62,3.89,3.89,0,0,1,.82-1.4,3.6,3.6,0,0,1,1.25-.9,4.08,4.08,0,0,1,3.18,0,3.6,3.6,0,0,1,1.25.9,3.89,3.89,0,0,1,.82,1.4A5.28,5.28,0,0,1,233.52,79.48Zm-1.57,0a3.58,3.58,0,0,0-.64-2.26,2.09,2.09,0,0,0-1.74-.84,2.05,2.05,0,0,0-1.74.84,4.32,4.32,0,0,0,0,4.52,2.06,2.06,0,0,0,1.74.83,2.11,2.11,0,0,0,1.74-.83,3.64,3.64,0,0,0,.64-2.26Z"/><path class="cls-4" d="M235.56,75.7c.35-.09.81-.18,1.38-.28a12.15,12.15,0,0,1,2-.14,4.32,4.32,0,0,1,1.67.28,2.69,2.69,0,0,1,1.06.8,3.23,3.23,0,0,1,.56,1.22,7.54,7.54,0,0,1,.16,1.57v4.73h-1.51v-4.4a7.38,7.38,0,0,0-.1-1.33,2.21,2.21,0,0,0-.35-.89,1.4,1.4,0,0,0-.65-.5,2.82,2.82,0,0,0-1-.15h-1l-.42.06h-.27v7.11h-1.51Z"/><path class="cls-4" d="M247.5,75.09a4.18,4.18,0,0,1,1.53.23A2.36,2.36,0,0,1,250.58,77a4.85,4.85,0,0,1,.16,1.31v5.26l-.54.09c-.23,0-.49.08-.79.11l-.94.09h-1a5.79,5.79,0,0,1-1.31-.15,3,3,0,0,1-1-.46,2.29,2.29,0,0,1-.68-.83,3,3,0,0,1-.24-1.25,2.39,2.39,0,0,1,.29-1.2,2.19,2.19,0,0,1,.76-.81,3.4,3.4,0,0,1,1.14-.45,6.23,6.23,0,0,1,1.36-.15h.47l.46.07.38.07h.23v-.42a3.65,3.65,0,0,0-.08-.74,1.81,1.81,0,0,0-.29-.65,1.52,1.52,0,0,0-.58-.45,2.35,2.35,0,0,0-.95-.17,7.06,7.06,0,0,0-1.3.11,6.07,6.07,0,0,0-.84.21l-.17-1.24a4.31,4.31,0,0,1,1-.25A9.08,9.08,0,0,1,247.5,75.09Zm.13,7.54h1a4.08,4.08,0,0,0,.69-.09V80a2.44,2.44,0,0,0-.53-.14,5.2,5.2,0,0,0-.88,0q-.36,0-.72,0a2.18,2.18,0,0,0-.7.21,1.46,1.46,0,0,0-.53.42,1.09,1.09,0,0,0-.21.7,1.23,1.23,0,0,0,.52,1.13A2.7,2.7,0,0,0,247.63,82.63Z"/><path class="cls-4" d="M255.68,83.88a2.83,2.83,0,0,1-2-.6,2.36,2.36,0,0,1-.59-1.76V71.41l1.51-.26V81.27a3.18,3.18,0,0,0,.06.62.83.83,0,0,0,.6.61,3.19,3.19,0,0,0,.6.12Z"/><path class="cls-4" d="M257.5,75.7c.34-.09.8-.18,1.37-.28a13.36,13.36,0,0,1,2-.14,4.32,4.32,0,0,1,1.67.28,2.62,2.62,0,0,1,1.06.8,3,3,0,0,1,.56,1.22,6.92,6.92,0,0,1,.16,1.57v4.73h-1.5v-4.4a6.58,6.58,0,0,0-.11-1.33,2.21,2.21,0,0,0-.35-.89,1.4,1.4,0,0,0-.65-.5,2.82,2.82,0,0,0-1-.15h-1l-.42.06H259v7.11h-1.5Z"/><path class="cls-4" d="M266.21,79.49a5.19,5.19,0,0,1,.32-1.95,4,4,0,0,1,.86-1.39,3.41,3.41,0,0,1,1.23-.82,3.68,3.68,0,0,1,1.43-.28,3.24,3.24,0,0,1,2.6,1.06,4.88,4.88,0,0,1,.91,3.24v.25a1.31,1.31,0,0,1,0,.28H267.8a3,3,0,0,0,.76,2,2.76,2.76,0,0,0,2.07.68,5.49,5.49,0,0,0,1.34-.13,6,6,0,0,0,.82-.27l.21,1.26a4.45,4.45,0,0,1-1,.31,6.83,6.83,0,0,1-1.56.16,5.14,5.14,0,0,1-1.9-.33,3.39,3.39,0,0,1-1.32-.92,3.56,3.56,0,0,1-.77-1.38A5.86,5.86,0,0,1,266.21,79.49Zm5.78-.82a2.49,2.49,0,0,0-.51-1.68,1.77,1.77,0,0,0-1.45-.66,2.09,2.09,0,0,0-.92.2,2.28,2.28,0,0,0-.67.53,2.44,2.44,0,0,0-.43.75,3.7,3.7,0,0,0-.2.86Z"/><path class="cls-4" d="M281,83a3.57,3.57,0,0,1-.75.33,3.86,3.86,0,0,1-1.31.2,4.34,4.34,0,0,1-1.43-.24,3.13,3.13,0,0,1-1.18-.75,4,4,0,0,1-.79-1.27,5.34,5.34,0,0,1-.29-1.82,4.84,4.84,0,0,1,.28-1.69,3.7,3.7,0,0,1,.8-1.33,3.55,3.55,0,0,1,1.29-.87,4.33,4.33,0,0,1,1.71-.32,9.46,9.46,0,0,1,1.84.15c.53.11,1,.2,1.32.29v7.51a3.56,3.56,0,0,1-1,2.82,4.54,4.54,0,0,1-3,.88,8.7,8.7,0,0,1-2.72-.44l.28-1.31a7.21,7.21,0,0,0,1.1.31,6.31,6.31,0,0,0,1.37.14,2.91,2.91,0,0,0,1.94-.53,2.23,2.23,0,0,0,.59-1.7Zm0-6.25a4.29,4.29,0,0,0-.6-.13,8.34,8.34,0,0,0-1,0,2.31,2.31,0,0,0-1.87.79,3.2,3.2,0,0,0-.66,2.11,3.55,3.55,0,0,0,.19,1.25,2.28,2.28,0,0,0,.5.85,2,2,0,0,0,.73.51,2.46,2.46,0,0,0,.85.16,3.46,3.46,0,0,0,1.1-.17,2.68,2.68,0,0,0,.79-.4Z"/><path class="cls-4" d="M292.41,79.48a5.28,5.28,0,0,1-.29,1.81,4.26,4.26,0,0,1-.82,1.39,3.52,3.52,0,0,1-1.26.9,4.06,4.06,0,0,1-3.17,0,3.52,3.52,0,0,1-1.26-.9,4.26,4.26,0,0,1-.82-1.39,5.75,5.75,0,0,1,0-3.62,4.2,4.2,0,0,1,.82-1.4,3.52,3.52,0,0,1,1.26-.9,4.06,4.06,0,0,1,3.17,0,3.52,3.52,0,0,1,1.26.9,4.2,4.2,0,0,1,.82,1.4A5.28,5.28,0,0,1,292.41,79.48Zm-1.57,0a3.64,3.64,0,0,0-.64-2.26,2.24,2.24,0,0,0-3.13-.36,2.45,2.45,0,0,0-.36.36,4.32,4.32,0,0,0,0,4.52,2.25,2.25,0,0,0,3.17.32,2.42,2.42,0,0,0,.32-.32A3.7,3.7,0,0,0,290.84,79.48Z"/><path class="cls-4" d="M135,41.38a7.89,7.89,0,0,1-3-.5,5.38,5.38,0,0,1-2.08-1.41,5.76,5.76,0,0,1-1.21-2.14,8.79,8.79,0,0,1-.4-2.7V24h3.12V34.34a6.74,6.74,0,0,0,.26,2,3.43,3.43,0,0,0,.74,1.33,2.9,2.9,0,0,0,1.13.76,4,4,0,0,0,1.46.25,4.1,4.1,0,0,0,1.47-.25,2.86,2.86,0,0,0,1.14-.76,3.43,3.43,0,0,0,.74-1.33,6.74,6.74,0,0,0,.26-2V24h3.11V34.63a8.5,8.5,0,0,1-.4,2.7,5.81,5.81,0,0,1-1.23,2.14,5.45,5.45,0,0,1-2.1,1.41A8.11,8.11,0,0,1,135,41.38Z"/><path class="cls-4" d="M145.4,28.94a21,21,0,0,1,2.23-.47,20.76,20.76,0,0,1,3.05-.22,7.1,7.1,0,0,1,2.62.43,4.07,4.07,0,0,1,1.69,1.2,4.67,4.67,0,0,1,.88,1.87,10.67,10.67,0,0,1,.26,2.39v7.22h-3V34.61a9.43,9.43,0,0,0-.14-1.76,3.25,3.25,0,0,0-.44-1.17,1.71,1.71,0,0,0-.83-.67,3.53,3.53,0,0,0-1.29-.21,9.36,9.36,0,0,0-1.18.08l-.91.12V41.36h-3Z"/><path class="cls-4" d="M162.93,24.77a1.72,1.72,0,0,1-.54,1.32,2,2,0,0,1-2.58,0,1.86,1.86,0,0,1,2.58-2.67A1.72,1.72,0,0,1,162.93,24.77Zm-.32,16.59h-3V28.52h3Z"/><path class="cls-4" d="M170.51,28a7.21,7.21,0,0,1,2.48.37A3.72,3.72,0,0,1,175.46,31a8.12,8.12,0,0,1,.26,2.08v7.78c-.46.1-1.15.22-2.08.36a21.84,21.84,0,0,1-3.13.2,9.34,9.34,0,0,1-2.11-.22,4.25,4.25,0,0,1-1.63-.71,3.43,3.43,0,0,1-1.06-1.27,4.45,4.45,0,0,1-.38-1.94,3.81,3.81,0,0,1,.43-1.87,3.56,3.56,0,0,1,1.17-1.24,5,5,0,0,1,1.7-.69,9.62,9.62,0,0,1,2-.2,8.39,8.39,0,0,1,1,.06,11.08,11.08,0,0,1,1.15.21V33a4.21,4.21,0,0,0-.12-1,2,2,0,0,0-.43-.82,2,2,0,0,0-.81-.55,3.58,3.58,0,0,0-1.26-.2,11.94,11.94,0,0,0-1.89.15,8.41,8.41,0,0,0-1.4.34l-.37-2.4a11.53,11.53,0,0,1,1.64-.4A13.4,13.4,0,0,1,170.51,28Zm.25,11.07a10.35,10.35,0,0,0,2.08-.15V35.59a4.27,4.27,0,0,0-.71-.15,7.18,7.18,0,0,0-2,0,2.9,2.9,0,0,0-.91.27,1.68,1.68,0,0,0-.65.56,1.4,1.4,0,0,0-.25.89,1.54,1.54,0,0,0,.67,1.46,3.4,3.4,0,0,0,1.77.38Z"/><path class="cls-4" d="M184.92,41.36v-17h10.93V27H188v4.19h7v2.58h-7v5h8.42V41.4Z"/><path class="cls-4" d="M209.13,40.7c-.58.14-1.32.3-2.24.45a17.75,17.75,0,0,1-3,.23,6.58,6.58,0,0,1-2.59-.44,4.21,4.21,0,0,1-1.67-1.22,4.94,4.94,0,0,1-.89-1.88,9.71,9.71,0,0,1-.27-2.4V28.25h3V35a5.44,5.44,0,0,0,.6,2.94,2.34,2.34,0,0,0,2.1.89,9,9,0,0,0,1.14,0,6.94,6.94,0,0,0,.9-.12V28.25h3Z"/><path class="cls-4" d="M220.07,31.2a8.64,8.64,0,0,0-1-.26,7.55,7.55,0,0,0-1.5-.14,6.64,6.64,0,0,0-1,.1c-.37.07-.62.13-.77.17V41.36h-3V29.14a14.62,14.62,0,0,1,2.15-.61,13.73,13.73,0,0,1,2.86-.28c.23,0,.45,0,.68,0a5.17,5.17,0,0,1,.79.1l.76.14.59.16Z"/><path class="cls-4" d="M234.11,34.61a8.16,8.16,0,0,1-.44,2.77,6,6,0,0,1-1.25,2.14,5.5,5.5,0,0,1-2,1.37,6.25,6.25,0,0,1-2.52.49,6.13,6.13,0,0,1-2.5-.49,5.53,5.53,0,0,1-1.94-1.37,6.18,6.18,0,0,1-1.26-2.14,7.94,7.94,0,0,1-.46-2.77,7.84,7.84,0,0,1,.46-2.76,6.16,6.16,0,0,1,1.27-2.13,5.83,5.83,0,0,1,2-1.36,6.65,6.65,0,0,1,5,0,5.6,5.6,0,0,1,2,1.36,6.14,6.14,0,0,1,1.26,2.13A7.82,7.82,0,0,1,234.11,34.61Zm-3,0a5,5,0,0,0-.82-3,2.91,2.91,0,0,0-4.08-.51,3.08,3.08,0,0,0-.51.51,5,5,0,0,0-.82,3,5.14,5.14,0,0,0,.82,3.07,2.9,2.9,0,0,0,4.07.52,2.84,2.84,0,0,0,.52-.52,5.1,5.1,0,0,0,.78-3.07Z"/><path class="cls-4" d="M248.6,35a9.18,9.18,0,0,1-.38,2.7,6.42,6.42,0,0,1-1.09,2.11,5,5,0,0,1-1.78,1.38,5.76,5.76,0,0,1-2.42.49,5.9,5.9,0,0,1-1.67-.22A6.36,6.36,0,0,1,240,41v5h-3V29c.6-.16,1.35-.32,2.23-.47a17.52,17.52,0,0,1,2.8-.22,7.64,7.64,0,0,1,2.72.47,5.65,5.65,0,0,1,3.35,3.45A7.87,7.87,0,0,1,248.6,35Zm-3,0a4.81,4.81,0,0,0-.89-3.09,3.5,3.5,0,0,0-2.89-1.11h-.87A5.36,5.36,0,0,0,240,31V38.3a4.25,4.25,0,0,0,1,.5,4.15,4.15,0,0,0,1.39.24,2.63,2.63,0,0,0,2.36-1.11A5.16,5.16,0,0,0,245.55,35Z"/><path class="cls-4" d="M250.81,34.71a7.89,7.89,0,0,1,.5-3,6.4,6.4,0,0,1,1.34-2.13,5.47,5.47,0,0,1,1.91-1.27,6,6,0,0,1,2.21-.43,5.29,5.29,0,0,1,4.14,1.64,7.18,7.18,0,0,1,1.48,4.91v1.11h-8.47A3.37,3.37,0,0,0,255,37.93a4.12,4.12,0,0,0,2.81.85,9,9,0,0,0,2-.2,8.77,8.77,0,0,0,1.41-.42l.39,2.43a3.52,3.52,0,0,1-.68.26,9.69,9.69,0,0,1-1,.25c-.39.08-.76.13-1.19.18a11.33,11.33,0,0,1-1.3.07,7.59,7.59,0,0,1-2.94-.5,5.43,5.43,0,0,1-2.07-1.4,5.62,5.62,0,0,1-1.2-2.11A8.73,8.73,0,0,1,250.81,34.71Zm8.61-1.33a3.55,3.55,0,0,0-.17-1.16,2.94,2.94,0,0,0-.5-1,2.4,2.4,0,0,0-.81-.64,2.94,2.94,0,0,0-2.35,0,2.71,2.71,0,0,0-.87.67,3.26,3.26,0,0,0-.55,1,5.2,5.2,0,0,0-.27,1.1Z"/><path class="cls-4" d="M263.74,45.93a6.54,6.54,0,0,1-.89-.07,3.82,3.82,0,0,1-1-.23l.39-2.43a4.38,4.38,0,0,0,1.3.17,1.65,1.65,0,0,0,1.45-.6,3.14,3.14,0,0,0,.42-1.8V28.52h3V41a5.09,5.09,0,0,1-1.19,3.7A4.57,4.57,0,0,1,263.74,45.93Zm4.94-21.16a1.72,1.72,0,0,1-.54,1.32,2,2,0,0,1-2.58,0,1.86,1.86,0,0,1,2.58-2.67A1.72,1.72,0,0,1,268.68,24.77Z"/><path class="cls-4" d="M275.21,38.93a3.87,3.87,0,0,0,1.72-.28,1,1,0,0,0,.54-1,1.26,1.26,0,0,0-.58-1.06,8.3,8.3,0,0,0-1.9-.91,13,13,0,0,1-1.49-.62,5,5,0,0,1-1.16-.77,3.32,3.32,0,0,1-.78-1.07,3.69,3.69,0,0,1-.28-1.54,3.35,3.35,0,0,1,1.3-2.78,5.64,5.64,0,0,1,3.54-1,11.91,11.91,0,0,1,3.7.61l-.54,2.41a7.19,7.19,0,0,0-3-.59,3,3,0,0,0-1.47.31,1,1,0,0,0-.56.94,1.22,1.22,0,0,0,.11.56,1.21,1.21,0,0,0,.38.46,3.4,3.4,0,0,0,.71.42,10.12,10.12,0,0,0,1.08.43,16.63,16.63,0,0,1,1.79.77,4.73,4.73,0,0,1,1.22.86,3,3,0,0,1,.7,1.09,4.56,4.56,0,0,1,.22,1.47,3.18,3.18,0,0,1-1.37,2.79,6.72,6.72,0,0,1-3.89.94,10.35,10.35,0,0,1-2.72-.28c-.69-.19-1.17-.34-1.45-.45l.52-2.48a13.87,13.87,0,0,0,1.58.51A7.8,7.8,0,0,0,275.21,38.93Z"/><path class="cls-4" d="M286,33.53l1.21-1.26,1.25-1.35c.41-.45.8-.89,1.16-1.31s.69-.78,1-1.09h3.51c-.82.92-1.68,1.87-2.59,2.85s-1.82,1.94-2.74,2.87a16.76,16.76,0,0,1,1.55,1.49c.54.58,1.06,1.2,1.57,1.85a20.79,20.79,0,0,1,1.42,2,21,21,0,0,1,1.11,1.82H291c-.29-.51-.63-1-1-1.6a13.1,13.1,0,0,0-1.24-1.62c-.45-.53-.89-1-1.35-1.48a10.18,10.18,0,0,0-1.35-1.19V41.4h-3V24.84l3-.49Z"/><path class="cls-4" d="M300.71,28a7.21,7.21,0,0,1,2.48.37A3.72,3.72,0,0,1,305.66,31a8.12,8.12,0,0,1,.26,2.08v7.78c-.46.1-1.15.22-2.08.36a21.84,21.84,0,0,1-3.13.2,9.34,9.34,0,0,1-2.11-.22,4.25,4.25,0,0,1-1.63-.71,3.43,3.43,0,0,1-1.06-1.27,4.45,4.45,0,0,1-.38-1.94,3.81,3.81,0,0,1,.43-1.87,3.56,3.56,0,0,1,1.17-1.24,5,5,0,0,1,1.71-.69,9.62,9.62,0,0,1,2-.2,9,9,0,0,1,2.19.27V33a3.76,3.76,0,0,0-.13-1,2,2,0,0,0-.43-.82,2,2,0,0,0-.81-.55,3.58,3.58,0,0,0-1.26-.2,11.94,11.94,0,0,0-1.89.15,8.41,8.41,0,0,0-1.4.34l-.37-2.4a11.67,11.67,0,0,1,1.65-.4A12.85,12.85,0,0,1,300.71,28ZM301,39.07a10.45,10.45,0,0,0,2.09-.15V35.59q-.36-.09-.72-.15a7.18,7.18,0,0,0-2,0,2.9,2.9,0,0,0-.91.27,1.68,1.68,0,0,0-.65.56,1.84,1.84,0,0,0,.42,2.35A3.42,3.42,0,0,0,301,39Z"/></svg>