<svg id="Warstwa_1" data-name="Warstwa 1" xmlns="http://www.w3.org/2000/svg" viewBox="0 0 309.42 103.75"><defs><style>.cls-1{fill:#fff;}.cls-2{fill:#164194;}.cls-3{fill:#ffed00;}.cls-4{fill:#1d1d1b;}</style></defs><rect class="cls-1" width="309.42" height="103.75"/><rect class="cls-2" x="205.99" y="19.65" width="102.04" height="68.02"/><polygon class="cls-3" points="254.84 34.48 256.99 32.91 259.14 34.48 258.32 31.94 260.51 30.37 257.81 30.37 256.99 27.8 256.17 30.37 253.47 30.37 255.65 31.94 254.84 34.48"/><polygon class="cls-3" points="243.69 37.47 245.85 35.9 248 37.47 247.18 34.93 249.37 33.36 246.67 33.36 245.84 30.78 245.02 33.36 242.33 33.36 244.51 34.93 243.69 37.47"/><polygon class="cls-3" points="237.69 38.95 236.87 41.53 234.17 41.53 236.36 43.1 235.54 45.64 237.69 44.07 239.85 45.64 239.03 43.1 241.22 41.53 238.52 41.53 237.69 38.95"/><polygon class="cls-3" points="234.71 55.19 236.85 56.77 236.03 54.23 238.22 52.66 235.53 52.66 234.71 50.08 233.87 52.66 231.18 52.66 233.36 54.23 232.55 56.77 234.71 55.19"/><polygon class="cls-3" points="238.52 63.81 237.69 61.24 236.87 63.81 234.17 63.81 236.35 65.39 235.54 67.93 237.69 66.35 239.85 67.93 239.03 65.39 241.22 63.81 238.52 63.81"/><polygon class="cls-3" points="246.68 71.98 245.86 69.41 245.03 71.99 242.34 71.98 244.52 73.56 243.71 76.1 245.86 74.52 248.02 76.1 247.2 73.56 249.39 71.98 246.68 71.98"/><polygon class="cls-3" points="257.81 74.94 256.99 72.37 256.17 74.94 253.47 74.94 255.66 76.51 254.83 79.06 256.99 77.48 259.15 79.06 258.32 76.51 260.52 74.94 257.81 74.94"/><polygon class="cls-3" points="268.94 71.98 268.12 69.41 267.29 71.99 264.6 71.98 266.78 73.56 265.96 76.1 268.12 74.52 270.27 76.1 269.45 73.56 271.65 71.98 268.94 71.98"/><polygon class="cls-3" points="277.12 63.81 276.29 61.24 275.47 63.81 272.77 63.81 274.96 65.39 274.13 67.93 276.29 66.35 278.44 67.93 277.62 65.39 279.81 63.81 277.12 63.81"/><polygon class="cls-3" points="282.77 52.62 280.07 52.62 279.25 50.05 278.42 52.62 275.73 52.62 277.92 54.2 277.09 56.74 279.25 55.16 281.4 56.74 280.58 54.2 282.77 52.62"/><polygon class="cls-3" points="274.13 45.6 276.29 44.04 278.44 45.6 277.62 43.06 279.81 41.5 277.12 41.5 276.29 38.91 275.47 41.5 272.77 41.5 274.96 43.06 274.13 45.6"/><polygon class="cls-3" points="268.15 30.78 267.33 33.36 264.63 33.36 266.82 34.93 266 37.47 268.16 35.89 270.3 37.47 269.49 34.93 271.67 33.36 268.98 33.36 268.15 30.78"/><path class="cls-4" d="M45.88,63.93V52.71h6.85v1.34H47.45v3.34h4.7V58.7h-4.7v3.89h5.69v1.34Z"/><path class="cls-4" d="M61.35,63.51c-.34.09-.8.18-1.37.28a12.15,12.15,0,0,1-2,.14,4.12,4.12,0,0,1-1.63-.28,2.65,2.65,0,0,1-1.07-.8,3.1,3.1,0,0,1-.58-1.23,6.28,6.28,0,0,1-.18-1.56V55.33H56v4.41a3.84,3.84,0,0,0,.49,2.2,1.9,1.9,0,0,0,1.64.66h1.4l.26-.06V55.33h1.51Z"/><path class="cls-4" d="M67,55.33h.45l.49.07.45.08.3.07-.26,1.32a4,4,0,0,0-.59-.16,4.7,4.7,0,0,0-1.06-.09,4,4,0,0,0-.84.09l-.54.12v7.08H63.86v-8a10.07,10.07,0,0,1,1.33-.37A8.87,8.87,0,0,1,67,55.33Z"/><path class="cls-4" d="M77.47,59.53a5.28,5.28,0,0,1-.29,1.81,4.26,4.26,0,0,1-.82,1.39,3.52,3.52,0,0,1-1.26.9,3.92,3.92,0,0,1-1.58.32,4.1,4.1,0,0,1-1.59-.32,3.52,3.52,0,0,1-1.26-.9,4,4,0,0,1-.81-1.39,5.61,5.61,0,0,1,0-3.62,4,4,0,0,1,.81-1.4,3.52,3.52,0,0,1,1.26-.9,4.1,4.1,0,0,1,1.59-.32,3.92,3.92,0,0,1,1.58.32,3.52,3.52,0,0,1,1.26.9,4.2,4.2,0,0,1,.82,1.4A5.28,5.28,0,0,1,77.47,59.53Zm-1.57,0a3.64,3.64,0,0,0-.64-2.26,2.09,2.09,0,0,0-1.74-.84,2.05,2.05,0,0,0-1.74.84,4.32,4.32,0,0,0,0,4.52,2.06,2.06,0,0,0,1.74.83,2.11,2.11,0,0,0,1.74-.83A3.7,3.7,0,0,0,75.9,59.53Z"/><path class="cls-4" d="M86.93,59.74a5.81,5.81,0,0,1-.25,1.76,3.93,3.93,0,0,1-.74,1.4,3.3,3.3,0,0,1-1.19.9,4.16,4.16,0,0,1-2.9.13,4.12,4.12,0,0,1-.83-.37v3.37H79.51V55.77c.36-.09.8-.18,1.34-.29a9.56,9.56,0,0,1,1.85-.15,4.55,4.55,0,0,1,1.75.31,3.67,3.67,0,0,1,2.18,2.26A5.22,5.22,0,0,1,86.93,59.74Zm-1.57,0a3.17,3.17,0,0,0-.73-2.27,2.5,2.5,0,0,0-1.94-.8,9.37,9.37,0,0,0-1.06,0,3.14,3.14,0,0,0-.61.12V62.1a3.4,3.4,0,0,0,.79.44,3.16,3.16,0,0,0,1.14.21,2.39,2.39,0,0,0,1.11-.24,2.1,2.1,0,0,0,.75-.64,3,3,0,0,0,.42-1,4.78,4.78,0,0,0,.13-1.13Z"/><path class="cls-4" d="M88.5,59.54a5.4,5.4,0,0,1,.33-1.95,4.13,4.13,0,0,1,.85-1.39,3.45,3.45,0,0,1,1.24-.82,3.82,3.82,0,0,1,1.42-.28A3.26,3.26,0,0,1,95,56.16a4.94,4.94,0,0,1,.91,3.24v.25a1.31,1.31,0,0,1,0,.28H90.07a3.13,3.13,0,0,0,.76,2,2.77,2.77,0,0,0,2.08.68,5.41,5.41,0,0,0,1.33-.13,5.62,5.62,0,0,0,.82-.27l.21,1.26a4.45,4.45,0,0,1-1,.31,6.83,6.83,0,0,1-1.56.16,5,5,0,0,1-1.91-.33,3.66,3.66,0,0,1-1.32-.92,3.83,3.83,0,0,1-.77-1.38A5.88,5.88,0,0,1,88.5,59.54Zm5.78-.82A2.47,2.47,0,0,0,93.77,57a1.74,1.74,0,0,0-1.45-.66,2.07,2.07,0,0,0-1.58.73,2.44,2.44,0,0,0-.43.75,3.7,3.7,0,0,0-.2.86Z"/><path class="cls-4" d="M96.57,67a2.09,2.09,0,0,1-.5,0,1.89,1.89,0,0,1-.52-.13l.19-1.23.38.08a2.41,2.41,0,0,0,.38,0,1.25,1.25,0,0,0,1.11-.48,2.45,2.45,0,0,0,.34-1.4V55.51h1.5v8.26a3.43,3.43,0,0,1-.73,2.41A2.83,2.83,0,0,1,96.57,67Zm2.12-13a1,1,0,0,1-.69-.27,1,1,0,0,1-.28-.72.93.93,0,0,1,.28-.72,1,1,0,0,1,1.38,0,.93.93,0,0,1,.28.72,1,1,0,0,1-.28.72A1,1,0,0,1,98.69,54Z"/><path class="cls-4" d="M103.92,62.65a2.93,2.93,0,0,0,1.37-.24.82.82,0,0,0,.45-.78,1,1,0,0,0-.44-.87,6.5,6.5,0,0,0-1.44-.73c-.33-.13-.64-.26-.93-.4a2.93,2.93,0,0,1-.77-.48,2,2,0,0,1-.52-.66,2.39,2.39,0,0,1,.63-2.73,3.49,3.49,0,0,1,2.25-.66h.72l.66.1.54.12a.85.85,0,0,1,.37.12l-.28,1.29a5.29,5.29,0,0,0-.76-.27,4.79,4.79,0,0,0-1.25-.13,2.33,2.33,0,0,0-1.1.25.84.84,0,0,0-.47.78,1,1,0,0,0,.11.49,1.18,1.18,0,0,0,.32.38,3.65,3.65,0,0,0,.54.32c.22.09.48.2.78.3a10.64,10.64,0,0,1,1.07.45,3.51,3.51,0,0,1,.8.51,2,2,0,0,1,.51.7,2.46,2.46,0,0,1,.18,1,2,2,0,0,1-.87,1.76,4.34,4.34,0,0,1-2.47.6,6.43,6.43,0,0,1-1.75-.18,8.51,8.51,0,0,1-.85-.29l.27-1.29.83.29A4.77,4.77,0,0,0,103.92,62.65Z"/><path class="cls-4" d="M112.15,59.3a9.65,9.65,0,0,1,1,.92c.36.37.72.77,1.07,1.19s.68.86,1,1.3a14.13,14.13,0,0,1,.79,1.22h-1.74c-.23-.38-.49-.76-.79-1.16s-.61-.77-.93-1.13a13.48,13.48,0,0,0-1-1,10.53,10.53,0,0,0-1-.76v4h-1.5V51.62l1.5-.26V59l.86-.86a12.91,12.91,0,0,0,.93-1l.85-.94c.27-.29.51-.55.7-.78h1.77l-.81.89-.91,1-1,1Z"/><path class="cls-4" d="M118.27,54a1,1,0,0,1-.69-.27,1,1,0,0,1,0-1.45,1,1,0,0,1,1.38,0,.93.93,0,0,1,.28.72,1,1,0,0,1-.28.72A1,1,0,0,1,118.27,54Zm.76,9.94h-1.51V55.51H119Z"/><path class="cls-4" d="M125.27,63.93V52.71H132v1.34h-5.2v3.39h4.62v1.32h-4.62v5.17Z"/><path class="cls-4" d="M140.08,63.51c-.34.09-.8.18-1.37.28a12.15,12.15,0,0,1-2,.14,4.12,4.12,0,0,1-1.63-.28,2.65,2.65,0,0,1-1.07-.8,3.1,3.1,0,0,1-.58-1.23,6.28,6.28,0,0,1-.18-1.56V55.33h1.5v4.41a3.84,3.84,0,0,0,.49,2.2,1.9,1.9,0,0,0,1.64.66h1.4l.26-.06V55.33h1.51Z"/><path class="cls-4" d="M142.59,55.75c.35-.08.81-.18,1.38-.27a11.16,11.16,0,0,1,2-.15,4.46,4.46,0,0,1,1.66.28,2.65,2.65,0,0,1,1.07.8,3.07,3.07,0,0,1,.55,1.22,6.93,6.93,0,0,1,.17,1.57v4.73h-1.51v-4.4a6.58,6.58,0,0,0-.11-1.33,2.2,2.2,0,0,0-.34-.89,1.47,1.47,0,0,0-.65-.5,2.82,2.82,0,0,0-1-.15h-1l-.42.05h-.27v7.11h-1.51Z"/><path class="cls-4" d="M157.27,51.43l1.51-.26V63.49c-.35.1-.79.2-1.33.3a11.65,11.65,0,0,1-1.86.14,4.55,4.55,0,0,1-1.75-.31,3.7,3.7,0,0,1-1.33-.87,3.84,3.84,0,0,1-.85-1.39,5.21,5.21,0,0,1-.3-1.83,6,6,0,0,1,.25-1.79,3.89,3.89,0,0,1,.74-1.39,3.32,3.32,0,0,1,1.19-.91,4.1,4.1,0,0,1,3.73.25Zm0,5.67a3.4,3.4,0,0,0-.79-.44,3.1,3.1,0,0,0-1.13-.21,2.51,2.51,0,0,0-1.11.23,2.16,2.16,0,0,0-.76.65,3,3,0,0,0-.42,1,5.56,5.56,0,0,0-.13,1.22,3.23,3.23,0,0,0,.73,2.27,2.5,2.5,0,0,0,1.94.8,6.7,6.7,0,0,0,1,0c.22,0,.43-.07.64-.12Z"/><path class="cls-4" d="M168,63.51c-.35.09-.8.18-1.37.28a12.15,12.15,0,0,1-2,.14,4.17,4.17,0,0,1-1.64-.28,2.65,2.65,0,0,1-1.07-.8,3.32,3.32,0,0,1-.58-1.23,6.28,6.28,0,0,1-.18-1.56V55.33h1.51v4.41a3.76,3.76,0,0,0,.49,2.2,1.9,1.9,0,0,0,1.63.66h1.4l.27-.06V55.33H168Z"/><path class="cls-4" d="M172.45,62.65a2.93,2.93,0,0,0,1.37-.24.82.82,0,0,0,.44-.78,1,1,0,0,0-.43-.87,7,7,0,0,0-1.45-.73c-.32-.13-.63-.26-.93-.4a2.93,2.93,0,0,1-.77-.48,2,2,0,0,1-.71-1.62,2.17,2.17,0,0,1,.83-1.77,3.49,3.49,0,0,1,2.25-.66h.71l.66.1.55.12.36.12-.27,1.29a4.35,4.35,0,0,0-2-.4,2.33,2.33,0,0,0-1.1.25.81.81,0,0,0-.47.78,1,1,0,0,0,.43.87,2.48,2.48,0,0,0,.54.32c.21.09.47.2.78.3a10.64,10.64,0,0,1,1.07.45,3.51,3.51,0,0,1,.8.51,2,2,0,0,1,.51.7,2.46,2.46,0,0,1,.18,1,2,2,0,0,1-.87,1.76,4.36,4.36,0,0,1-2.47.6,6.43,6.43,0,0,1-1.75-.18,8.69,8.69,0,0,1-.86-.29l.28-1.29.82.29A4.88,4.88,0,0,0,172.45,62.65Z"/><path class="cls-4" d="M183.27,56.64c-.23.25-.53.6-.9,1.06s-.77.95-1.2,1.5-.85,1.13-1.28,1.74-.8,1.18-1.12,1.73h4.63v1.26H177v-1a13.3,13.3,0,0,1,1-1.57c.42-.57.77-1.15,1.19-1.71L180.37,58l1-1.27h-4.16V55.51h6.06Z"/><path class="cls-4" d="M24.53,79.08c.17.22.39.5.65.85s.54.75.82,1.17.56.87.84,1.34a13.1,13.1,0,0,1,.7,1.34H25.82c-.21-.41-.45-.82-.7-1.25s-.51-.82-.77-1.2-.52-.74-.77-1.08-.48-.63-.69-.87H20.61v4.39H19v-11a8.26,8.26,0,0,1,1.48-.22q.81-.06,1.5-.06a6.16,6.16,0,0,1,3.6.89,3.44,3.44,0,0,1,.65,4.57A3.38,3.38,0,0,1,24.53,79.08Zm-2.38-5.26a12.81,12.81,0,0,0-1.54.05V78.1h1.12A14.09,14.09,0,0,0,23.18,78a3.54,3.54,0,0,0,1.1-.31,1.84,1.84,0,0,0,.69-.64,2.21,2.21,0,0,0,.24-1.1A2.17,2.17,0,0,0,25,75a1.9,1.9,0,0,0-.66-.66,3,3,0,0,0-1-.34A7.51,7.51,0,0,0,22.15,73.82Z"/><path class="cls-4" d="M36.48,79.38a5.28,5.28,0,0,1-.29,1.81,3.77,3.77,0,0,1-.82,1.39,3.6,3.6,0,0,1-1.25.9,4.08,4.08,0,0,1-3.18,0,3.6,3.6,0,0,1-1.25-.9,4.16,4.16,0,0,1-.82-1.39,5.79,5.79,0,0,1,0-3.62,3.89,3.89,0,0,1,.82-1.4,3.6,3.6,0,0,1,1.25-.9,4.08,4.08,0,0,1,3.18,0,3.6,3.6,0,0,1,1.25.9,3.81,3.81,0,0,1,.82,1.4A5.28,5.28,0,0,1,36.48,79.38Zm-1.57,0a3.58,3.58,0,0,0-.64-2.26,2.05,2.05,0,0,0-1.74-.84,2.09,2.09,0,0,0-1.74.84,4.32,4.32,0,0,0,0,4.52,2.11,2.11,0,0,0,1.74.83,2.06,2.06,0,0,0,1.74-.83A3.64,3.64,0,0,0,34.91,79.38Z"/><path class="cls-4" d="M43.79,76.49c-.23.25-.53.6-.9,1.06s-.77,1-1.2,1.5-.85,1.13-1.28,1.74-.8,1.18-1.12,1.73h4.63v1.26H37.49v-1c.26-.48.58-1,.95-1.57s.78-1.15,1.19-1.71.83-1.1,1.22-1.61.74-.92,1-1.27H37.68V75.36h6.08Z"/><path class="cls-4" d="M52.64,83.78c-.31-.78-.63-1.66-1-2.66A29.32,29.32,0,0,1,50.71,78c-.28,1.08-.59,2.12-.92,3.12s-.66,1.88-1,2.66H47.48A37.13,37.13,0,0,1,46,80c-.46-1.42-.92-3-1.34-4.62H46.3c.1.51.23,1.06.38,1.65l.48,1.78c.17.6.35,1.17.53,1.72s.36,1,.52,1.44c.18-.51.36-1,.54-1.61s.35-1.14.51-1.72.32-1.14.46-1.7.27-1.08.38-1.56h1.25q.15.72.36,1.56c.14.56.29,1.13.45,1.7s.33,1.15.51,1.72.36,1.1.54,1.61q.26-.61.51-1.44c.18-.55.36-1.12.53-1.72s.33-1.19.49-1.78.28-1.14.38-1.65h1.56c-.42,1.65-.87,3.19-1.34,4.62s-1,2.69-1.46,3.8Z"/><path class="cls-4" d="M65.5,79.38a5.28,5.28,0,0,1-.29,1.81,4.26,4.26,0,0,1-.82,1.39,3.52,3.52,0,0,1-1.26.9,4.06,4.06,0,0,1-3.17,0,3.52,3.52,0,0,1-1.26-.9,4.26,4.26,0,0,1-.82-1.39,5.79,5.79,0,0,1,0-3.62,4.2,4.2,0,0,1,.82-1.4,3.52,3.52,0,0,1,1.26-.9,4.06,4.06,0,0,1,3.17,0,3.52,3.52,0,0,1,1.26.9,4.2,4.2,0,0,1,.82,1.4A5.28,5.28,0,0,1,65.5,79.38Zm-1.57,0a3.64,3.64,0,0,0-.64-2.26,2.24,2.24,0,0,0-3.13-.36,2,2,0,0,0-.36.36,4.32,4.32,0,0,0,0,4.52A2.25,2.25,0,0,0,63,82a2.42,2.42,0,0,0,.32-.32A3.7,3.7,0,0,0,63.93,79.38Z"/><path class="cls-4" d="M66.16,86.81a2.09,2.09,0,0,1-.5,0,2.33,2.33,0,0,1-.52-.13l.2-1.23a2.21,2.21,0,0,0,.37.08,2.54,2.54,0,0,0,.39,0,1.25,1.25,0,0,0,1.11-.48,2.44,2.44,0,0,0,.33-1.4V75.36h1.51v8.26A3.44,3.44,0,0,1,68.27,86,2.81,2.81,0,0,1,66.16,86.81Zm2.12-13a.92.92,0,0,1-.68-.27,1,1,0,0,1,.71-1.72,1,1,0,0,1,.69.27.94.94,0,0,1,.29.72,1,1,0,0,1-.29.72,1,1,0,0,1-.73.31Z"/><path class="cls-4" d="M78.27,83.36c-.34.09-.8.18-1.37.28a12.15,12.15,0,0,1-2,.14,4.12,4.12,0,0,1-1.63-.28,2.65,2.65,0,0,1-1.07-.8,3.32,3.32,0,0,1-.58-1.23,6.28,6.28,0,0,1-.18-1.56V75.18H73v4.41a3.85,3.85,0,0,0,.48,2.2,1.93,1.93,0,0,0,1.64.66h1l.41,0,.27-.06V75.18h1.53Z"/><path class="cls-4" d="M90,79.08c.18.22.4.5.66.85s.54.75.82,1.17.56.87.83,1.34A13.18,13.18,0,0,1,93,83.78H91.32c-.22-.41-.45-.82-.7-1.25s-.51-.82-.77-1.2-.52-.74-.77-1.08-.49-.63-.69-.87H86.1v4.39H84.53v-11A9.27,9.27,0,0,1,86,72.5q.83-.06,1.5-.06a6.17,6.17,0,0,1,3.61.89,3.45,3.45,0,0,1,.65,4.58A3.5,3.5,0,0,1,90,79.08Zm-2.38-5.26a12.9,12.9,0,0,0-1.54.05V78.1h1.17A14.13,14.13,0,0,0,88.73,78a3.41,3.41,0,0,0,1.09-.31,1.58,1.58,0,0,0,.69-.64,2.21,2.21,0,0,0,.24-1.1,2.17,2.17,0,0,0-.24-1,1.79,1.79,0,0,0-.65-.66,3,3,0,0,0-1-.34A6.26,6.26,0,0,0,87.64,73.82Z"/><path class="cls-4" d="M94.07,79.39a5.26,5.26,0,0,1,.33-2A4,4,0,0,1,95.26,76a3.41,3.41,0,0,1,1.23-.82,3.82,3.82,0,0,1,1.42-.28,3.25,3.25,0,0,1,2.61,1.1,4.88,4.88,0,0,1,.91,3.24v.25a1.31,1.31,0,0,1,0,.28H95.67a3,3,0,0,0,.76,2,2.76,2.76,0,0,0,2.07.68,4.9,4.9,0,0,0,2.15-.4l.22,1.26a4.45,4.45,0,0,1-1,.31,6.83,6.83,0,0,1-1.56.16,5,5,0,0,1-1.91-.33,3.58,3.58,0,0,1-1.32-.92,3.83,3.83,0,0,1-.77-1.38A5.8,5.8,0,0,1,94.07,79.39Zm5.79-.82a2.59,2.59,0,0,0-.51-1.68,1.77,1.77,0,0,0-1.45-.66,2.1,2.1,0,0,0-.92.21,2.15,2.15,0,0,0-.71.56,2.44,2.44,0,0,0-.43.75,3.7,3.7,0,0,0-.2.86Z"/><path class="cls-4" d="M108.8,82.94a3.57,3.57,0,0,1-.75.33,3.86,3.86,0,0,1-1.31.2,4.34,4.34,0,0,1-1.43-.24,3.13,3.13,0,0,1-1.18-.75,3.66,3.66,0,0,1-.79-1.27,5.34,5.34,0,0,1-.29-1.82,5.11,5.11,0,0,1,.27-1.69,3.69,3.69,0,0,1,2.09-2.2,4.41,4.41,0,0,1,1.72-.32,9.46,9.46,0,0,1,1.84.15c.52.11,1,.2,1.32.29v7.51a3.52,3.52,0,0,1-1,2.87,4.54,4.54,0,0,1-3,.88,8.44,8.44,0,0,1-1.5-.13,8.72,8.72,0,0,1-1.22-.31l.27-1.31a7,7,0,0,0,1.11.31,6.31,6.31,0,0,0,1.37.14,2.91,2.91,0,0,0,1.94-.53,2.23,2.23,0,0,0,.59-1.7Zm0-6.25a3.19,3.19,0,0,0-.6-.12,8.39,8.39,0,0,0-1-.06,2.26,2.26,0,0,0-1.87.79,3.2,3.2,0,0,0-.66,2.11,3.55,3.55,0,0,0,.19,1.25,2.42,2.42,0,0,0,.5.85,2,2,0,0,0,.73.51,2.46,2.46,0,0,0,.85.16A3.77,3.77,0,0,0,108,82a2.68,2.68,0,0,0,.79-.4Z"/><path class="cls-4" d="M113.55,73.84a1,1,0,0,1-.69-.27,1,1,0,0,1-.29-.72.94.94,0,0,1,.29-.72,1,1,0,0,1,.69-.27,1,1,0,0,1,.71,1.72A.94.94,0,0,1,113.55,73.84Zm.76,9.94H112.8V75.36h1.47Z"/><path class="cls-4" d="M124.27,79.38a5.28,5.28,0,0,1-.29,1.81,3.77,3.77,0,0,1-.82,1.39,3.4,3.4,0,0,1-1.25.9,4.08,4.08,0,0,1-3.18,0,3.6,3.6,0,0,1-1.25-.9,4.16,4.16,0,0,1-.82-1.39,5.79,5.79,0,0,1,0-3.62,3.89,3.89,0,0,1,.82-1.4,3.6,3.6,0,0,1,1.25-.9,4.08,4.08,0,0,1,3.18,0,3.4,3.4,0,0,1,1.25.9,3.81,3.81,0,0,1,.82,1.4A5.28,5.28,0,0,1,124.27,79.38Zm-1.57,0a3.58,3.58,0,0,0-.64-2.26,2.05,2.05,0,0,0-1.74-.84,2.09,2.09,0,0,0-1.74.84,4.32,4.32,0,0,0,0,4.52,2.11,2.11,0,0,0,1.74.83,2.06,2.06,0,0,0,1.74-.83,3.62,3.62,0,0,0,.62-2.26Z"/><path class="cls-4" d="M126.27,75.6c.34-.08.8-.18,1.37-.27a11.16,11.16,0,0,1,2-.15,4.51,4.51,0,0,1,1.67.28,2.69,2.69,0,0,1,1.06.8,3.23,3.23,0,0,1,.56,1.22,6.92,6.92,0,0,1,.16,1.57v4.73h-1.51v-4.4a7.38,7.38,0,0,0-.1-1.33,2.21,2.21,0,0,0-.35-.89,1.4,1.4,0,0,0-.65-.5,2.82,2.82,0,0,0-1-.15h-1l-.42,0h-.27v7.11h-1.52Z"/><path class="cls-4" d="M138.27,75a4.27,4.27,0,0,1,1.54.23,2.42,2.42,0,0,1,1.46,1.68,4.73,4.73,0,0,1,.16,1.3v5.26l-.54.09c-.23,0-.49.08-.78.11l-1,.09h-1a5.87,5.87,0,0,1-1.32-.15,2.68,2.68,0,0,1-1-.46,2.12,2.12,0,0,1-.68-.83,2.83,2.83,0,0,1-.25-1.25,2.39,2.39,0,0,1,.29-1.2,2.3,2.3,0,0,1,.77-.81,3.35,3.35,0,0,1,1.13-.45,6.23,6.23,0,0,1,1.36-.15h.47a3.62,3.62,0,0,1,.46.06l.38.07H140v-.42a3.65,3.65,0,0,0-.08-.74,1.69,1.69,0,0,0-.29-.64,1.45,1.45,0,0,0-.58-.46,2.34,2.34,0,0,0-.94-.17,7.17,7.17,0,0,0-1.31.11,4.07,4.07,0,0,0-.83.22l-.18-1.25a4.31,4.31,0,0,1,1-.25A8.69,8.69,0,0,1,138.27,75Zm.13,7.54h.95a4.08,4.08,0,0,0,.69-.09V79.91a2,2,0,0,0-.53-.14,6.46,6.46,0,0,0-.88,0h-.72a2.83,2.83,0,0,0-.7.21,1.51,1.51,0,0,0-.52.42,1.09,1.09,0,0,0-.21.7,1.23,1.23,0,0,0,.51,1.13,2.72,2.72,0,0,0,1.37.3Z"/><path class="cls-4" d="M146.42,83.78a2.88,2.88,0,0,1-2-.6,2.32,2.32,0,0,1-.58-1.76V71.31l1.5-.26V81.17a2.15,2.15,0,0,0,.07.62.81.81,0,0,0,.6.61,3.19,3.19,0,0,0,.6.12Z"/><path class="cls-4" d="M148.27,75.6c.35-.08.8-.18,1.38-.27a11.16,11.16,0,0,1,2-.15,4.51,4.51,0,0,1,1.67.28,2.62,2.62,0,0,1,1.06.8,3,3,0,0,1,.56,1.22,6.92,6.92,0,0,1,.16,1.57v4.73h-1.5v-4.4a6.58,6.58,0,0,0-.11-1.33,2.21,2.21,0,0,0-.35-.89,1.37,1.37,0,0,0-.64-.5,2.82,2.82,0,0,0-1-.15h-1l-.42,0h-.26v7.11h-1.55Z"/><path class="cls-4" d="M157,79.39a5.45,5.45,0,0,1,.32-2,4,4,0,0,1,.86-1.39,3.64,3.64,0,0,1,1.23-.82,3.91,3.91,0,0,1,1.43-.28,3.28,3.28,0,0,1,2.61,1.1,4.93,4.93,0,0,1,.9,3.24v.25a1.31,1.31,0,0,1,0,.28h-5.77a3,3,0,0,0,.76,2,2.76,2.76,0,0,0,2.07.68,5.49,5.49,0,0,0,1.34-.13,6,6,0,0,0,.82-.27l.21,1.26a4.45,4.45,0,0,1-1,.31,6.92,6.92,0,0,1-1.57.16,5.14,5.14,0,0,1-1.9-.33,3.39,3.39,0,0,1-1.32-.92,3.69,3.69,0,0,1-.77-1.38A5.82,5.82,0,0,1,157,79.39Zm5.78-.82a2.59,2.59,0,0,0-.51-1.68,1.74,1.74,0,0,0-1.45-.66,1.9,1.9,0,0,0-.91.21,2.16,2.16,0,0,0-.68.52,2.81,2.81,0,0,0-.43.75,3.7,3.7,0,0,0-.2.86Z"/><path class="cls-4" d="M171.7,82.94a3.57,3.57,0,0,1-.75.33,3.84,3.84,0,0,1-1.3.2,4.4,4.4,0,0,1-1.44-.24,3,3,0,0,1-1.17-.75,3.75,3.75,0,0,1-.8-1.27,5.34,5.34,0,0,1-.29-1.82,4.65,4.65,0,0,1,.32-1.69,3.7,3.7,0,0,1,.8-1.33,3.55,3.55,0,0,1,1.29-.87,4.33,4.33,0,0,1,1.71-.32,9.46,9.46,0,0,1,1.84.15c.53.11,1,.2,1.32.29v7.51a3.56,3.56,0,0,1-1,2.82,4.54,4.54,0,0,1-3,.88,8.25,8.25,0,0,1-1.49-.13,8.52,8.52,0,0,1-1.23-.31l.28-1.31a6.1,6.1,0,0,0,1.11.31,5.74,5.74,0,0,0,1.37.14A2.88,2.88,0,0,0,171.2,85a2.18,2.18,0,0,0,.59-1.7Zm0-6.25a3.14,3.14,0,0,0-.61-.12,8.39,8.39,0,0,0-1-.06,2.31,2.31,0,0,0-1.87.79,3.2,3.2,0,0,0-.66,2.11,3.79,3.79,0,0,0,.19,1.25,2.28,2.28,0,0,0,.5.85A2,2,0,0,0,169,82a2.46,2.46,0,0,0,.85.16,3.46,3.46,0,0,0,1.1-.17,2.61,2.61,0,0,0,.8-.4Z"/><path class="cls-4" d="M183.14,79.38a5.28,5.28,0,0,1-.29,1.81,4.26,4.26,0,0,1-.82,1.39,3.52,3.52,0,0,1-1.26.9,3.92,3.92,0,0,1-1.58.32,4.1,4.1,0,0,1-1.59-.32,3.52,3.52,0,0,1-1.26-.9,4,4,0,0,1-.81-1.39,5.61,5.61,0,0,1,0-3.62,4,4,0,0,1,.81-1.4,3.52,3.52,0,0,1,1.26-.9,4.1,4.1,0,0,1,1.59-.32,3.92,3.92,0,0,1,1.58.32,3.52,3.52,0,0,1,1.26.9,4.2,4.2,0,0,1,.82,1.4A5.28,5.28,0,0,1,183.14,79.38Zm-1.57,0a3.58,3.58,0,0,0-.64-2.26,2.09,2.09,0,0,0-1.74-.84,2.05,2.05,0,0,0-1.74.84,4.32,4.32,0,0,0,0,4.52,2.06,2.06,0,0,0,1.74.83,2.11,2.11,0,0,0,1.74-.83A3.64,3.64,0,0,0,181.57,79.38Z"/><path class="cls-4" d="M12.47,41.29a7.9,7.9,0,0,1-3-.51A5.46,5.46,0,0,1,7.4,39.37a5.67,5.67,0,0,1-1.22-2.13,8.82,8.82,0,0,1-.39-2.7V23.91H8.91V34.24a6.43,6.43,0,0,0,.26,2,3.4,3.4,0,0,0,.73,1.33,3,3,0,0,0,1.13.77,4,4,0,0,0,1.46.24A4.09,4.09,0,0,0,14,38.34a2.88,2.88,0,0,0,1.15-.77,3.4,3.4,0,0,0,.73-1.33,6.74,6.74,0,0,0,.26-2V23.91h3.17V34.54a8.5,8.5,0,0,1-.41,2.7,6,6,0,0,1-1.22,2.13,5.45,5.45,0,0,1-2.1,1.41A8,8,0,0,1,12.47,41.29Z"/><path class="cls-4" d="M22.88,28.84a21,21,0,0,1,2.23-.47,20.09,20.09,0,0,1,3-.22,7.12,7.12,0,0,1,2.63.43,4.12,4.12,0,0,1,1.68,1.21,4.44,4.44,0,0,1,.88,1.86A10.12,10.12,0,0,1,33.56,34v7.22h-3V34.51a9.32,9.32,0,0,0-.13-1.75A3.13,3.13,0,0,0,30,31.58a1.79,1.79,0,0,0-.84-.67,3.75,3.75,0,0,0-1.29-.2,9.34,9.34,0,0,0-1.18.07l-.9.12V41.26h-3Z"/><path class="cls-4" d="M40.4,24.67A1.69,1.69,0,0,1,39.86,26a1.81,1.81,0,0,1-1.27.49A1.83,1.83,0,0,1,37.27,26a1.69,1.69,0,0,1-.54-1.32,1.72,1.72,0,0,1,.54-1.35,1.88,1.88,0,0,1,1.31-.49,1.81,1.81,0,0,1,1.27.49A1.72,1.72,0,0,1,40.4,24.67Zm-.32,16.59h-3V28.42h3Z"/><path class="cls-4" d="M48,27.86a7.21,7.21,0,0,1,2.48.37,3.88,3.88,0,0,1,1.6,1,3.82,3.82,0,0,1,.86,1.61,7.58,7.58,0,0,1,.26,2.07v7.78q-.69.15-2.07.36a20.49,20.49,0,0,1-3.13.21A10,10,0,0,1,45.88,41a4.47,4.47,0,0,1-1.64-.72,3.32,3.32,0,0,1-1.05-1.27,4.45,4.45,0,0,1-.38-1.94,3.81,3.81,0,0,1,.43-1.87A3.54,3.54,0,0,1,44.4,34a4.79,4.79,0,0,1,1.71-.68,9.54,9.54,0,0,1,3.06-.15,11.08,11.08,0,0,1,1.15.21v-.49a4.21,4.21,0,0,0-.12-1,2.16,2.16,0,0,0-.43-.82,2,2,0,0,0-.81-.55,3.67,3.67,0,0,0-1.27-.2,11.94,11.94,0,0,0-1.89.15,8.41,8.41,0,0,0-1.4.34L44,28.41a13.22,13.22,0,0,1,1.65-.4A12.75,12.75,0,0,1,48,27.86Zm.28,11.07a10.45,10.45,0,0,0,2.09-.15V35.49a4.25,4.25,0,0,0-.71-.14,6.29,6.29,0,0,0-2,0,2.82,2.82,0,0,0-.91.27,1.58,1.58,0,0,0-.65.55,1.88,1.88,0,0,0,.42,2.35A3.48,3.48,0,0,0,48.27,38.93Z"/><path class="cls-4" d="M62.4,41.26v-17H73.32v2.63H65.49v4.19h7v2.58h-7v5h8.42v2.62Z"/><path class="cls-4" d="M86.6,40.6c-.57.15-1.32.3-2.23.45a16.71,16.71,0,0,1-3,.24,6.55,6.55,0,0,1-2.59-.45,4.14,4.14,0,0,1-1.67-1.22,4.89,4.89,0,0,1-.9-1.88,9.63,9.63,0,0,1-.27-2.39v-7.2h3v6.73a5.44,5.44,0,0,0,.6,2.94,2.34,2.34,0,0,0,2.1.89,9,9,0,0,0,1.14-.05,6.94,6.94,0,0,0,.9-.12V28.15h3Z"/><path class="cls-4" d="M97.55,31.1c-.33-.1-.66-.19-1-.26A7.64,7.64,0,0,0,95,30.71a5.55,5.55,0,0,0-1,.09,5.49,5.49,0,0,0-.78.18V41.26h-3V29a14.59,14.59,0,0,1,2.15-.6,13.1,13.1,0,0,1,2.86-.29H96a5.2,5.2,0,0,1,.78.1c.26,0,.52.09.77.15l.58.15Z"/><path class="cls-4" d="M111.59,34.51a8.41,8.41,0,0,1-.44,2.77,6.15,6.15,0,0,1-1.25,2.14,5.65,5.65,0,0,1-2,1.38,6.65,6.65,0,0,1-5,0A5.75,5.75,0,0,1,101,39.42a6.36,6.36,0,0,1-1.27-2.14,8.72,8.72,0,0,1,0-5.53A6.05,6.05,0,0,1,101,29.63a5.66,5.66,0,0,1,2-1.37,6.67,6.67,0,0,1,5,0,5.5,5.5,0,0,1,2,1.37,6.37,6.37,0,0,1,1.27,2.12A8.08,8.08,0,0,1,111.59,34.51Zm-3,0a5,5,0,0,0-.83-3,2.91,2.91,0,0,0-4.59,0,5,5,0,0,0-.82,3,5.14,5.14,0,0,0,.82,3.07,2.71,2.71,0,0,0,2.3,1.13,2.66,2.66,0,0,0,2.29-1.13,5.11,5.11,0,0,0,.79-3.07Z"/><path class="cls-4" d="M126.07,34.85a8.81,8.81,0,0,1-.38,2.7,6.11,6.11,0,0,1-1.09,2.12A4.77,4.77,0,0,1,122.82,41a5.61,5.61,0,0,1-2.42.49,5.9,5.9,0,0,1-1.67-.22,6.36,6.36,0,0,1-1.25-.49v5h-3v-17c.61-.16,1.35-.32,2.24-.47a17.4,17.4,0,0,1,2.79-.22,7.69,7.69,0,0,1,2.73.47,5.77,5.77,0,0,1,2,1.34,5.83,5.83,0,0,1,1.3,2.11A7.9,7.9,0,0,1,126.07,34.85Zm-3,0a4.74,4.74,0,0,0-.9-3.09,3.47,3.47,0,0,0-2.88-1.1h-.87a5.67,5.67,0,0,0-.9.16v7.34a4.71,4.71,0,0,0,1,.51,4.4,4.4,0,0,0,1.39.23,2.65,2.65,0,0,0,2.36-1,5.18,5.18,0,0,0,.76-3Z"/><path class="cls-4" d="M128.27,34.61a8.1,8.1,0,0,1,.51-3,6.18,6.18,0,0,1,1.33-2.12A5.53,5.53,0,0,1,132,28.21a5.76,5.76,0,0,1,2.21-.43,5.27,5.27,0,0,1,4.13,1.64,7.14,7.14,0,0,1,1.49,4.91v1.11h-8.47a3.41,3.41,0,0,0,1.09,2.39,4.12,4.12,0,0,0,2.81.85,9,9,0,0,0,2-.2,8.74,8.74,0,0,0,1.41-.41l.39,2.43a5.4,5.4,0,0,1-.67.25c-.29.09-.61.17-1,.25s-.77.13-1.19.18a11.34,11.34,0,0,1-1.3.08,7.71,7.71,0,0,1-3-.51,5.4,5.4,0,0,1-2.06-1.4,5.62,5.62,0,0,1-1.2-2.11A8.39,8.39,0,0,1,128.27,34.61Zm8.62-1.33a4.17,4.17,0,0,0-.17-1.16,3,3,0,0,0-.51-1,2.4,2.4,0,0,0-.81-.64,2.64,2.64,0,0,0-1.14-.23,2.6,2.6,0,0,0-1.2.26,2.71,2.71,0,0,0-.87.67,3,3,0,0,0-.55,1,4.12,4.12,0,0,0-.27,1.1Z"/><path class="cls-4" d="M141.27,45.83q-.32,0-.9-.06a4.29,4.29,0,0,1-1-.24l.4-2.43a4.08,4.08,0,0,0,1.3.17,1.65,1.65,0,0,0,1.45-.6,3.23,3.23,0,0,0,.41-1.8V28.42h3v12.5a5,5,0,0,1-1.19,3.7A4.57,4.57,0,0,1,141.27,45.83Zm4.93-21.16a1.69,1.69,0,0,1-.54,1.32,1.81,1.81,0,0,1-1.27.49,1.84,1.84,0,0,1-1.3-.49,1.69,1.69,0,0,1-.54-1.32,1.72,1.72,0,0,1,.54-1.35,1.84,1.84,0,0,1,1.3-.49,1.81,1.81,0,0,1,1.27.49,1.74,1.74,0,0,1,.49,1.35Z"/><path class="cls-4" d="M152.68,38.83a3.87,3.87,0,0,0,1.72-.28,1,1,0,0,0,.54-1,1.26,1.26,0,0,0-.58-1.06,8.27,8.27,0,0,0-1.9-.9c-.5-.19-1-.4-1.48-.63a5,5,0,0,1-1.17-.77,3.15,3.15,0,0,1-.77-1.07,3.69,3.69,0,0,1-.28-1.54,3.35,3.35,0,0,1,1.3-2.78,5.55,5.55,0,0,1,3.53-1,11.14,11.14,0,0,1,2.16.21,11.75,11.75,0,0,1,1.55.4l-.54,2.41a7.19,7.19,0,0,0-3-.59,3,3,0,0,0-1.47.31,1,1,0,0,0-.57.94,1.56,1.56,0,0,0,.11.57,1.27,1.27,0,0,0,.38.45,4.57,4.57,0,0,0,.71.42c.3.14.66.28,1.08.43a16.79,16.79,0,0,1,1.8.77A4.68,4.68,0,0,1,157,35a3,3,0,0,1,.7,1.09,4.3,4.3,0,0,1,.22,1.47,3.18,3.18,0,0,1-1.36,2.79,6.81,6.81,0,0,1-3.89,1,10.88,10.88,0,0,1-2.73-.29,12,12,0,0,1-1.44-.45l.51-2.48a14.59,14.59,0,0,0,1.58.52A8.27,8.27,0,0,0,152.68,38.83Z"/><path class="cls-4" d="M163.51,33.43l1.2-1.26c.43-.45.84-.9,1.25-1.35l1.17-1.3c.37-.42.68-.79.94-1.1h3.52c-.82.92-1.69,1.87-2.59,2.85s-1.83,1.94-2.74,2.87a16.65,16.65,0,0,1,1.54,1.49c.54.58,1.07,1.2,1.58,1.85a20.79,20.79,0,0,1,1.42,2,18.57,18.57,0,0,1,1.1,1.81h-3.43c-.3-.51-.63-1-1-1.59s-.8-1.1-1.24-1.62-.89-1-1.35-1.49a11.73,11.73,0,0,0-1.35-1.19v5.89h-3V24.74l3-.49Z"/><path class="cls-4" d="M178.19,27.86a7.21,7.21,0,0,1,2.48.37,4,4,0,0,1,1.61,1,3.8,3.8,0,0,1,.85,1.61,7.58,7.58,0,0,1,.26,2.07v7.78q-.69.15-2.07.36a20.49,20.49,0,0,1-3.13.21,10,10,0,0,1-2.11-.22,4.47,4.47,0,0,1-1.64-.72,3.27,3.27,0,0,1-1-1.27,4.45,4.45,0,0,1-.38-1.94,3.81,3.81,0,0,1,.43-1.87A3.39,3.39,0,0,1,174.6,34a4.79,4.79,0,0,1,1.71-.68,9.64,9.64,0,0,1,2-.21,8.39,8.39,0,0,1,1,.06,11.08,11.08,0,0,1,1.15.21v-.49a4.21,4.21,0,0,0-.12-1,2.16,2.16,0,0,0-.43-.82,2,2,0,0,0-.81-.55,3.67,3.67,0,0,0-1.27-.2,11.94,11.94,0,0,0-1.89.15,8.41,8.41,0,0,0-1.4.34l-.36-2.4a11.56,11.56,0,0,1,4-.55Zm.24,11.07a10.45,10.45,0,0,0,2.09-.15V35.49a4.25,4.25,0,0,0-.71-.14,6.29,6.29,0,0,0-2,0,2.82,2.82,0,0,0-.91.27,1.58,1.58,0,0,0-.65.55,1.88,1.88,0,0,0,.42,2.35A3.48,3.48,0,0,0,178.43,38.93Z"/></svg>