<svg id="Warstwa_1" data-name="Warstwa 1" xmlns="http://www.w3.org/2000/svg" viewBox="0 0 203.2 103.75"><defs><style>.cls-1{fill:#fff;}.cls-2{fill:#164194;}.cls-3{fill:#ffed00;}.cls-4{fill:#e30613;}.cls-5{fill:#1d1d1b;}</style></defs><rect class="cls-1" width="203.2" height="103.75"/><polygon class="cls-2" points="46.87 96.39 1.5 87.88 1.5 19.85 46.87 5.68 46.87 96.39"/><path class="cls-3" d="M1.51,71.53V53.87c2.28.62,4.83.91,6.5-.1,3.67-2.18,9.21-8.88,9.21-8.88s-2.92,7.22-1.82,9.87c1.17,2.81,8.1,3,8.1,3S15.66,62.49,12,65.65,5.66,80.71,5.66,80.71s-1.82-7.59-4.15-9.18" transform="translate(0 0)"/><path class="cls-4" d="M46.87,40.37a14,14,0,0,1-4.27,2c-3.65.71-7.55-3.48-7.55-3.48s1,6.11-1.37,9.88c-2.42,4-10.18,8.95-10.18,8.95s8.58-1.66,10.25,1c1.77,2.86,2,12.8,2,12.8S40.13,59.58,44.1,58a24.72,24.72,0,0,1,2.77-1Z" transform="translate(0 0)"/><path class="cls-1" d="M17.22,44.89s4.39-6.86,4.12-9.31-4.8-3.16-4.8-3.16,5.95-1.46,8.55-3.79,4.69-6.94,4.69-6.94.55,3.87,2.78,4.43S41,24.22,41,24.22a85.29,85.29,0,0,0-6.75,7.09c-2,2.6.8,7.57.8,7.57s-5.14-1.79-8-1.25-9.81,7.26-9.81,7.26" transform="translate(0 0)"/><path class="cls-5" d="M69.53,39.69v-17H80.28v2.63H72.62v4.34h6.8v2.63h-6.8V39.7Z" transform="translate(0 0)"/><path class="cls-5" d="M92.75,39c-.57.15-1.31.3-2.23.45a16.71,16.71,0,0,1-3,.24,6.55,6.55,0,0,1-2.59-.45A4.21,4.21,0,0,1,83.26,38a4.87,4.87,0,0,1-.89-1.88,9.63,9.63,0,0,1-.27-2.39v-7.2h3v6.73a5.44,5.44,0,0,0,.6,2.94,2.34,2.34,0,0,0,2.1.89h1.14a6.57,6.57,0,0,0,.89-.12V26.58h3Z" transform="translate(0 0)"/><path class="cls-5" d="M96.39,27.27a21,21,0,0,1,2.23-.47,20.09,20.09,0,0,1,3-.22,7.12,7.12,0,0,1,2.63.43A4,4,0,0,1,106,28.22a4.59,4.59,0,0,1,.89,1.86,10.66,10.66,0,0,1,.25,2.39v7.22h-3V32.94a9.32,9.32,0,0,0-.13-1.75,3.13,3.13,0,0,0-.44-1.18,1.79,1.79,0,0,0-.84-.67,3.75,3.75,0,0,0-1.29-.2,9.18,9.18,0,0,0-1.17.07l-.91.12V39.69h-3Z" transform="translate(0 0)"/><path class="cls-5" d="M121.45,39a17.63,17.63,0,0,1-5,.72,7.69,7.69,0,0,1-2.73-.47,5.77,5.77,0,0,1-2-1.34,5.83,5.83,0,0,1-1.3-2.11A8.28,8.28,0,0,1,110,33a9.24,9.24,0,0,1,.38-2.76,5.85,5.85,0,0,1,1.12-2.12,4.88,4.88,0,0,1,1.79-1.36,5.8,5.8,0,0,1,2.43-.48,5.36,5.36,0,0,1,1.64.22,7.69,7.69,0,0,1,1.23.49V23.17l3-.49Zm-8.52-6.06a4.61,4.61,0,0,0,.94,3.08,3.16,3.16,0,0,0,2.57,1.12c.41,0,.81,0,1.22-.06a7.39,7.39,0,0,0,.82-.14V29.58a4.71,4.71,0,0,0-1-.51,4.4,4.4,0,0,0-1.39-.23A2.68,2.68,0,0,0,113.68,30,5.15,5.15,0,0,0,112.93,32.94Z" transform="translate(0 0)"/><path class="cls-5" d="M135.61,39c-.57.15-1.31.3-2.23.45a16.71,16.71,0,0,1-3,.24,6.55,6.55,0,0,1-2.59-.45A4.21,4.21,0,0,1,126.12,38a4.87,4.87,0,0,1-.89-1.88,9.63,9.63,0,0,1-.27-2.39v-7.2h3v6.73a5.44,5.44,0,0,0,.6,2.94,2.34,2.34,0,0,0,2.1.89h1.14a6.57,6.57,0,0,0,.89-.12V26.58h3Z" transform="translate(0 0)"/><path class="cls-5" d="M142.46,37.26a3.87,3.87,0,0,0,1.72-.28,1,1,0,0,0,.54-1,1.26,1.26,0,0,0-.58-1.06,8.27,8.27,0,0,0-1.9-.9c-.5-.19-1-.4-1.48-.63a5,5,0,0,1-1.17-.77,3.15,3.15,0,0,1-.77-1.07,3.69,3.69,0,0,1-.28-1.54,3.35,3.35,0,0,1,1.3-2.78,5.55,5.55,0,0,1,3.53-1,11.14,11.14,0,0,1,2.16.21,11.75,11.75,0,0,1,1.55.4l-.54,2.41a7.19,7.19,0,0,0-3-.59,3,3,0,0,0-1.47.31,1,1,0,0,0-.57.94,1.56,1.56,0,0,0,.11.57,1.27,1.27,0,0,0,.38.45,4.57,4.57,0,0,0,.71.42c.3.14.66.28,1.08.43a16.79,16.79,0,0,1,1.8.77,4.68,4.68,0,0,1,1.21.86,3,3,0,0,1,.7,1.09,4.3,4.3,0,0,1,.22,1.47,3.18,3.18,0,0,1-1.36,2.79,6.81,6.81,0,0,1-3.89,1,10.88,10.88,0,0,1-2.73-.29,12,12,0,0,1-1.44-.45l.51-2.48a14.59,14.59,0,0,0,1.58.52A8.27,8.27,0,0,0,142.46,37.26Z" transform="translate(0 0)"/><path class="cls-5" d="M159.3,28.94c-.32.34-.75.83-1.29,1.45s-1.1,1.31-1.7,2.07-1.22,1.56-1.83,2.38-1.17,1.62-1.66,2.37h6.63v2.48H149.24V37.85a22.64,22.64,0,0,1,1.35-2.14c.54-.76,1.09-1.54,1.67-2.32s1.14-1.51,1.7-2.22l1.51-1.84h-5.91V26.85h9.74Z" transform="translate(0 0)"/><path class="cls-5" d="M160.92,33a8.1,8.1,0,0,1,.51-3,6.14,6.14,0,0,1,1.33-2,5.53,5.53,0,0,1,1.92-1.28,6,6,0,0,1,2.21-.43A5.3,5.3,0,0,1,171,27.88a7.14,7.14,0,0,1,1.49,4.91V33.9H164a3.41,3.41,0,0,0,1.09,2.39,4.12,4.12,0,0,0,2.81.85,9,9,0,0,0,2-.2,7.12,7.12,0,0,0,1.41-.42l.4,2.44a5.54,5.54,0,0,1-.68.25c-.29.09-.61.17-1,.25s-.77.13-1.19.18a11.34,11.34,0,0,1-1.3.08,7.8,7.8,0,0,1-2.95-.51,5.4,5.4,0,0,1-2.06-1.4,5.62,5.62,0,0,1-1.2-2.11A8.5,8.5,0,0,1,160.92,33Zm8.62-1.33a4.17,4.17,0,0,0-.17-1.16,2.71,2.71,0,0,0-.51-1,2.4,2.4,0,0,0-.81-.64,2.64,2.64,0,0,0-1.14-.23,2.6,2.6,0,0,0-1.2.26,2.71,2.71,0,0,0-.87.67,3,3,0,0,0-.55,1,4.12,4.12,0,0,0-.27,1.1Z" transform="translate(0 0)"/><path class="cls-5" d="M69.53,62.37v-17H80.46V48H72.62v4.2h7v2.58h-7v5H81v2.63Z" transform="translate(0 0)"/><path class="cls-5" d="M93.74,61.71c-.58.14-1.32.29-2.24.45a17.75,17.75,0,0,1-3,.23A6.61,6.61,0,0,1,85.89,62a4.07,4.07,0,0,1-1.67-1.23,4.83,4.83,0,0,1-.89-1.87,9.71,9.71,0,0,1-.27-2.4V49.26h3V56a5.44,5.44,0,0,0,.6,2.94,2.34,2.34,0,0,0,2.1.89H89.9a7,7,0,0,0,.9-.13V49.26h3Z" transform="translate(0 0)"/><path class="cls-5" d="M104.68,52.21a8,8,0,0,0-2.52-.4,7.63,7.63,0,0,0-1.77.27V62.37h-3V50.14a15.93,15.93,0,0,1,2.15-.6,13.09,13.09,0,0,1,2.86-.28h.68a5.16,5.16,0,0,1,.79.09l.76.15.59.16Z" transform="translate(0 0)"/><path class="cls-5" d="M118.73,55.62a8.17,8.17,0,0,1-.45,2.77A6,6,0,0,1,117,60.53a5.5,5.5,0,0,1-2,1.37,6.25,6.25,0,0,1-2.52.49,6.13,6.13,0,0,1-2.5-.49A5.53,5.53,0,0,1,108,60.53a6.18,6.18,0,0,1-1.26-2.14,7.94,7.94,0,0,1-.46-2.77,7.62,7.62,0,0,1,.46-2.76,6.16,6.16,0,0,1,1.27-2.13,5.6,5.6,0,0,1,2-1.36,6.23,6.23,0,0,1,2.48-.48,6.47,6.47,0,0,1,2.5.48,5.48,5.48,0,0,1,2,1.36,6.14,6.14,0,0,1,1.26,2.13A7.86,7.86,0,0,1,118.73,55.62Zm-3,0a5,5,0,0,0-.82-3,2.91,2.91,0,0,0-4.08-.51,3.08,3.08,0,0,0-.51.51,5,5,0,0,0-.82,3,5.14,5.14,0,0,0,.82,3.07,2.9,2.9,0,0,0,4.07.52,2.84,2.84,0,0,0,.52-.52,5.19,5.19,0,0,0,.77-3.07Z" transform="translate(0 0)"/><path class="cls-5" d="M133.21,56a9.18,9.18,0,0,1-.38,2.7,6.52,6.52,0,0,1-1.09,2.11A5,5,0,0,1,130,62.15a5.76,5.76,0,0,1-2.42.49,6.28,6.28,0,0,1-1.67-.22,6.36,6.36,0,0,1-1.25-.49v5h-3V50c.73-.19,1.48-.35,2.23-.47a16.43,16.43,0,0,1,2.8-.22,7.64,7.64,0,0,1,2.72.47,5.53,5.53,0,0,1,2,1.33,6,6,0,0,1,1.3,2.12A7.94,7.94,0,0,1,133.21,56Zm-3.05,0a4.75,4.75,0,0,0-.89-3.09,3.5,3.5,0,0,0-2.89-1.11h-.87a4.49,4.49,0,0,0-.89.16V59.3a4.25,4.25,0,0,0,1,.5A4.15,4.15,0,0,0,127,60a2.65,2.65,0,0,0,2.41-1A5.26,5.26,0,0,0,130.16,56Z" transform="translate(0 0)"/><path class="cls-5" d="M135.42,55.72a8.3,8.3,0,0,1,.5-3,6.25,6.25,0,0,1,1.34-2.13,5.47,5.47,0,0,1,1.91-1.27,6,6,0,0,1,2.21-.43,5.29,5.29,0,0,1,4.14,1.64A7.14,7.14,0,0,1,147,55.47v1.11h-8.47A3.39,3.39,0,0,0,139.58,59a4.17,4.17,0,0,0,2.81.85,9,9,0,0,0,2-.2,8.77,8.77,0,0,0,1.41-.42l.39,2.43a5.6,5.6,0,0,1-.68.26,9.69,9.69,0,0,1-1,.25c-.39.08-.76.13-1.19.18a11.33,11.33,0,0,1-1.3.07,7.59,7.59,0,0,1-2.94-.5,5.43,5.43,0,0,1-2.07-1.4,5.62,5.62,0,0,1-1.2-2.11A8.76,8.76,0,0,1,135.42,55.72ZM144,54.39a3.57,3.57,0,0,0-.17-1.17,2.63,2.63,0,0,0-.5-.95,2.3,2.3,0,0,0-.81-.64,2.64,2.64,0,0,0-1.14-.23,2.79,2.79,0,0,0-1.21.25,2.89,2.89,0,0,0-.87.68,3.26,3.26,0,0,0-.55,1,5.2,5.2,0,0,0-.27,1.1Z" transform="translate(0 0)"/><path class="cls-5" d="M148.35,66.93a5.37,5.37,0,0,1-.89-.06,3.82,3.82,0,0,1-1-.23l.39-2.43a4.38,4.38,0,0,0,1.3.17,1.65,1.65,0,0,0,1.45-.6A3.08,3.08,0,0,0,150,62V49.53h3V62a5.1,5.1,0,0,1-1.19,3.71A4.65,4.65,0,0,1,148.35,66.93Zm4.94-21.16a1.71,1.71,0,0,1-.54,1.33,2,2,0,0,1-2.58,0,1.93,1.93,0,0,1,0-2.68,2,2,0,0,1,2.58,0,1.72,1.72,0,0,1,.54,1.35Z" transform="translate(0 0)"/><path class="cls-5" d="M159.82,59.94a4,4,0,0,0,1.72-.28,1,1,0,0,0,.54-1,1.26,1.26,0,0,0-.58-1.06,8.3,8.3,0,0,0-1.9-.91,13,13,0,0,1-1.49-.62,4.72,4.72,0,0,1-1.16-.78,3.14,3.14,0,0,1-.78-1.06,3.69,3.69,0,0,1-.28-1.54,3.32,3.32,0,0,1,1.3-2.78,5.64,5.64,0,0,1,3.54-1,12.06,12.06,0,0,1,2.16.2,11.64,11.64,0,0,1,1.54.41l-.54,2.41a6.1,6.1,0,0,0-1.25-.41,7.55,7.55,0,0,0-1.77-.18,3.11,3.11,0,0,0-1.47.3,1,1,0,0,0-.56,1,1.22,1.22,0,0,0,.11.56,1.21,1.21,0,0,0,.38.46A3.25,3.25,0,0,0,160,54a8.37,8.37,0,0,0,1.08.43,19,19,0,0,1,1.79.78,4.73,4.73,0,0,1,1.22.86,3,3,0,0,1,.7,1.09,4.56,4.56,0,0,1,.22,1.47,3.18,3.18,0,0,1-1.37,2.79,6.72,6.72,0,0,1-3.89.94,10.4,10.4,0,0,1-2.72-.28c-.69-.19-1.17-.34-1.45-.45l.52-2.48a14.54,14.54,0,0,0,1.58.51A7.77,7.77,0,0,0,159.82,59.94Z" transform="translate(0 0)"/><path class="cls-5" d="M170.64,54.54l1.21-1.27,1.25-1.35,1.17-1.3.94-1.09h3.51c-.82.92-1.68,1.87-2.59,2.85s-1.82,1.94-2.74,2.87a18.06,18.06,0,0,1,1.55,1.48c.54.59,1.06,1.2,1.57,1.86a22.11,22.11,0,0,1,1.42,2A20,20,0,0,1,179,62.37h-3.4c-.29-.51-.63-1-1-1.6a13.1,13.1,0,0,0-1.24-1.62c-.45-.53-.89-1-1.35-1.48a9,9,0,0,0-1.35-1.19v5.89h-3V45.85l3-.49Z" transform="translate(0 0)"/><path class="cls-5" d="M184.37,45.77a1.76,1.76,0,0,1-.54,1.33,2,2,0,0,1-2.58,0,1.93,1.93,0,0,1,0-2.68,2,2,0,0,1,2.58,0A1.79,1.79,0,0,1,184.37,45.77Zm-.32,16.6h-3V49.53h3Z" transform="translate(0 0)"/><path class="cls-5" d="M187,55.72a8.3,8.3,0,0,1,.5-3,6.25,6.25,0,0,1,1.34-2.13,5.47,5.47,0,0,1,1.91-1.27,6,6,0,0,1,2.21-.43,5.29,5.29,0,0,1,4.14,1.64,7.13,7.13,0,0,1,1.48,4.91v1.11H190A3.37,3.37,0,0,0,191.13,59a4.12,4.12,0,0,0,2.81.85,9,9,0,0,0,2-.2,8.77,8.77,0,0,0,1.41-.42l.39,2.43a5.6,5.6,0,0,1-.68.26,9.69,9.69,0,0,1-1,.25c-.39.08-.76.13-1.19.18a11.33,11.33,0,0,1-1.3.07,7.59,7.59,0,0,1-2.94-.5,5.43,5.43,0,0,1-2.07-1.4,5.62,5.62,0,0,1-1.2-2.11A8.73,8.73,0,0,1,187,55.72Zm8.61-1.33a3.57,3.57,0,0,0-.17-1.17,2.63,2.63,0,0,0-.5-.95,2.3,2.3,0,0,0-.81-.64A2.57,2.57,0,0,0,193,51.4a2.79,2.79,0,0,0-1.21.25,2.89,2.89,0,0,0-.87.68,3.26,3.26,0,0,0-.55,1,5.2,5.2,0,0,0-.27,1.1Z" transform="translate(0 0)"/><path class="cls-5" d="M72.53,73.72a6.2,6.2,0,0,1,3.64.9,3,3,0,0,1,1.27,2.68,3.68,3.68,0,0,1-.35,1.7,2.91,2.91,0,0,1-1,1.12,4.41,4.41,0,0,1-1.6.62,10.09,10.09,0,0,1-2.12.2H71.12V85.1H69.55V74A8.91,8.91,0,0,1,71,73.78Q71.85,73.72,72.53,73.72Zm.13,1.38a12.9,12.9,0,0,0-1.54.05v4.4H72.3a8.88,8.88,0,0,0,1.46-.1,3.31,3.31,0,0,0,1.1-.36,1.74,1.74,0,0,0,.68-.69,2.13,2.13,0,0,0,.25-1.11,2.11,2.11,0,0,0-.25-1.07,2,2,0,0,0-.68-.68,3,3,0,0,0-1-.34A6.94,6.94,0,0,0,72.66,75.1Z" transform="translate(0 0)"/><path class="cls-5" d="M86.32,80.66A5.31,5.31,0,0,1,86,82.47a4.26,4.26,0,0,1-.82,1.39,3.52,3.52,0,0,1-1.26.9,4.06,4.06,0,0,1-3.17,0,3.52,3.52,0,0,1-1.26-.9,4.26,4.26,0,0,1-.82-1.39,5.75,5.75,0,0,1,0-3.62,4.2,4.2,0,0,1,.82-1.4,3.52,3.52,0,0,1,1.26-.9,4.06,4.06,0,0,1,3.17,0,3.52,3.52,0,0,1,1.26.9,4.2,4.2,0,0,1,.82,1.4A5.31,5.31,0,0,1,86.32,80.66Zm-1.57,0a3.73,3.73,0,0,0-.64-2.27,2.25,2.25,0,0,0-3.17-.32,2.42,2.42,0,0,0-.32.32,4.34,4.34,0,0,0,0,4.53,2.25,2.25,0,0,0,3.17.32,2.42,2.42,0,0,0,.32-.32A3.7,3.7,0,0,0,84.75,80.66Z" transform="translate(0 0)"/><path class="cls-5" d="M90.89,85.06a2.88,2.88,0,0,1-2-.6,2.32,2.32,0,0,1-.58-1.76V72.59l1.5-.26V82.45a2.15,2.15,0,0,0,.07.62.83.83,0,0,0,.21.39,1,1,0,0,0,.39.22,3.19,3.19,0,0,0,.6.12Z" transform="translate(0 0)"/><path class="cls-5" d="M94.66,83.78A3.07,3.07,0,0,0,96,83.54a.82.82,0,0,0,.45-.78,1,1,0,0,0-.44-.87,6.5,6.5,0,0,0-1.44-.73c-.33-.13-.64-.26-.94-.4a2.93,2.93,0,0,1-.77-.48,2,2,0,0,1-.71-1.66A2.14,2.14,0,0,1,93,76.89a3.49,3.49,0,0,1,2.25-.66H96l.67.1.54.12.36.11-.27,1.3a4.89,4.89,0,0,0-.76-.27,4.79,4.79,0,0,0-1.25-.13,2.33,2.33,0,0,0-1.1.25.81.81,0,0,0-.47.78,1,1,0,0,0,.43.87,2.48,2.48,0,0,0,.54.32c.22.09.48.2.78.3s.75.3,1.07.45a3.2,3.2,0,0,1,.8.51,2,2,0,0,1,.51.7,2.46,2.46,0,0,1,.18,1,2,2,0,0,1-.87,1.76,4.36,4.36,0,0,1-2.47.6,6.07,6.07,0,0,1-1.75-.19,8.63,8.63,0,0,1-.86-.28l.28-1.29.82.29A4.89,4.89,0,0,0,94.66,83.78Z" transform="translate(0 0)"/><path class="cls-5" d="M102.89,80.43a9.65,9.65,0,0,1,1,.92c.36.37.72.77,1.07,1.19s.68.86,1,1.3a14.23,14.23,0,0,1,.8,1.22H105a13.05,13.05,0,0,0-.78-1.16c-.3-.39-.61-.77-.94-1.13a13.48,13.48,0,0,0-1-1,10.53,10.53,0,0,0-1-.76v4H99.84V72.75l1.51-.26v7.68l.86-.86a12.83,12.83,0,0,0,.92-1l.86-.93c.27-.29.5-.56.7-.78h1.76l-.81.89-.9,1-.95,1Z" transform="translate(0 0)"/><path class="cls-5" d="M110.94,76.27a4.18,4.18,0,0,1,1.53.23A2.38,2.38,0,0,1,114,78.18a4.85,4.85,0,0,1,.16,1.31v5.26l-.54.09c-.23,0-.5.08-.79.11l-.94.09h-1a5.79,5.79,0,0,1-1.31-.15,3,3,0,0,1-1-.46,2.29,2.29,0,0,1-.68-.83,3,3,0,0,1-.24-1.25,2.39,2.39,0,0,1,.28-1.2,2.22,2.22,0,0,1,.77-.81,3.4,3.4,0,0,1,1.14-.45,6.23,6.23,0,0,1,1.36-.15h.47l.46.07.38.07h.23v-.42a3.65,3.65,0,0,0-.08-.74,1.93,1.93,0,0,0-.3-.65,1.56,1.56,0,0,0-.57-.45,2.3,2.3,0,0,0-1-.17,7.06,7.06,0,0,0-1.3.11,5.73,5.73,0,0,0-.84.21l-.17-1.24a4.31,4.31,0,0,1,1-.25A7.8,7.8,0,0,1,110.94,76.27Zm.13,7.54h1a4.08,4.08,0,0,0,.69-.09V81.19a2.44,2.44,0,0,0-.53-.14,6.46,6.46,0,0,0-.88,0h-.72a2.18,2.18,0,0,0-.7.21,1.46,1.46,0,0,0-.53.42,1.09,1.09,0,0,0-.21.7,1.23,1.23,0,0,0,.52,1.13A2.68,2.68,0,0,0,111.07,83.81Z" transform="translate(0 0)"/><path class="cls-5" d="M125.18,85.08a5.61,5.61,0,0,1-2.15-.39,4.48,4.48,0,0,1-1.67-1.14,4.85,4.85,0,0,1-1.08-1.83,7.92,7.92,0,0,1-.38-2.51,6.68,6.68,0,0,1,.43-2.5,5.37,5.37,0,0,1,1.16-1.84,4.87,4.87,0,0,1,1.7-1.13,5.64,5.64,0,0,1,2.07-.39,6.69,6.69,0,0,1,1.26.1,8.49,8.49,0,0,1,1,.22,5.46,5.46,0,0,1,.67.26l.36.2-.46,1.29a2.74,2.74,0,0,0-.42-.21c-.18-.07-.39-.15-.62-.22a5,5,0,0,0-.76-.19,4.76,4.76,0,0,0-.84-.07,4,4,0,0,0-1.6.3,3.47,3.47,0,0,0-1.22.89,3.91,3.91,0,0,0-.76,1.42,6,6,0,0,0-.27,1.87,7.23,7.23,0,0,0,.2,1.79,4,4,0,0,0,.71,1.42,3.1,3.1,0,0,0,1.17.92,4,4,0,0,0,1.65.32,5.68,5.68,0,0,0,1.79-.23,6.89,6.89,0,0,0,1.07-.4l.41,1.29a1.77,1.77,0,0,1-.41.21,4.75,4.75,0,0,1-.73.23,8.43,8.43,0,0,1-1,.2A9.09,9.09,0,0,1,125.18,85.08Z" transform="translate(0 0)"/><path class="cls-5" d="M129,86.63a2.51,2.51,0,0,0,.46.16,2.1,2.1,0,0,0,.56.07,2.19,2.19,0,0,0,1.4-.4,3.32,3.32,0,0,0,.9-1.29c-.68-1.29-1.31-2.67-1.9-4.12A34.55,34.55,0,0,1,129,76.64h1.62c.12.48.26,1,.43,1.57s.36,1.14.56,1.73.43,1.19.67,1.78.48,1.17.74,1.72c.41-1.13.77-2.26,1.07-3.37s.59-2.26.86-3.43h1.55c-.38,1.59-.82,3.11-1.29,4.57s-1,2.84-1.54,4.11a8.44,8.44,0,0,1-.67,1.26,3.93,3.93,0,0,1-.77.86,2.79,2.79,0,0,1-1,.51,4.38,4.38,0,0,1-1.19.16h-.37l-.39-.06-.34-.09-.21-.08Z" transform="translate(0 0)"/><path class="cls-5" d="M141.22,72.49a5.49,5.49,0,0,1,1.14.1,3.9,3.9,0,0,1,.67.18l-.27,1.29a3.54,3.54,0,0,0-.55-.18,3.25,3.25,0,0,0-.88-.09,1.71,1.71,0,0,0-1.47.57,2.58,2.58,0,0,0-.42,1.55v.73h3.24V77.9h-3.24v7.16h-1.51V75.88a3.62,3.62,0,0,1,.79-2.51A3.22,3.22,0,0,1,141.22,72.49Z" transform="translate(0 0)"/><path class="cls-5" d="M147.21,76.46h.45l.49.07.45.08.3.07L148.64,78l-.59-.15a4.7,4.7,0,0,0-1.06-.09,4,4,0,0,0-.84.09l-.54.12v7.08H144.1V77a10,10,0,0,1,1.33-.36A8.88,8.88,0,0,1,147.21,76.46Z" transform="translate(0 0)"/><path class="cls-5" d="M157.71,80.66a5.28,5.28,0,0,1-.29,1.81,4.26,4.26,0,0,1-.82,1.39,3.52,3.52,0,0,1-1.26.9,3.92,3.92,0,0,1-1.58.32,4.1,4.1,0,0,1-1.59-.32,3.64,3.64,0,0,1-1.26-.9,4,4,0,0,1-.81-1.39,5.61,5.61,0,0,1,0-3.62,4,4,0,0,1,.81-1.4,3.64,3.64,0,0,1,1.26-.9,4.1,4.1,0,0,1,1.59-.32,3.92,3.92,0,0,1,1.58.32,3.52,3.52,0,0,1,1.26.9,4.2,4.2,0,0,1,.82,1.4A5.28,5.28,0,0,1,157.71,80.66Zm-1.57,0a3.65,3.65,0,0,0-.64-2.27,2.11,2.11,0,0,0-1.74-.83,2.06,2.06,0,0,0-1.74.83,4.34,4.34,0,0,0,0,4.53,2.06,2.06,0,0,0,1.74.83,2.11,2.11,0,0,0,1.74-.83A3.64,3.64,0,0,0,156.14,80.66Z" transform="translate(0 0)"/><path class="cls-5" d="M166.43,85.06c-.31-.78-.63-1.66-1-2.66a29.32,29.32,0,0,1-.93-3.12c-.28,1.08-.59,2.12-.92,3.12s-.66,1.88-1,2.66h-1.31a36.47,36.47,0,0,1-1.46-3.81c-.46-1.43-.92-3-1.34-4.61h1.62q.15.77.39,1.65c.15.59.31,1.19.47,1.78s.35,1.17.53,1.72.36,1,.52,1.44c.18-.51.36-1,.54-1.61s.35-1.14.51-1.72.32-1.14.46-1.7.28-1.08.38-1.56h1.25q.15.72.36,1.56c.14.56.29,1.12.45,1.7s.33,1.15.51,1.72.36,1.1.54,1.61q.25-.62.51-1.44c.18-.55.36-1.12.53-1.72s.34-1.19.49-1.78.28-1.14.39-1.65h1.55c-.42,1.65-.87,3.19-1.34,4.61s-1,2.7-1.46,3.81Z" transform="translate(0 0)"/><path class="cls-5" d="M174.77,76.27a4.18,4.18,0,0,1,1.53.23,2.57,2.57,0,0,1,1,.66,2.46,2.46,0,0,1,.55,1,5.28,5.28,0,0,1,.16,1.31v5.26l-.54.09c-.24,0-.5.08-.79.11l-1,.09h-1a5.79,5.79,0,0,1-1.31-.15,3,3,0,0,1-1-.46,2.12,2.12,0,0,1-.68-.83,3,3,0,0,1-.24-1.25,2.39,2.39,0,0,1,.28-1.2,2.22,2.22,0,0,1,.77-.81,3.35,3.35,0,0,1,1.13-.45,6.32,6.32,0,0,1,1.37-.15h.46l.47.07.38.07h.22v-.42a3.05,3.05,0,0,0-.08-.74,1.73,1.73,0,0,0-.29-.65,1.56,1.56,0,0,0-.57-.45,2.3,2.3,0,0,0-1-.17,7.17,7.17,0,0,0-1.31.11,5.93,5.93,0,0,0-.83.21l-.18-1.24a4.31,4.31,0,0,1,1-.25A8.35,8.35,0,0,1,174.77,76.27Zm.13,7.54h.95a3.84,3.84,0,0,0,.68-.09V81.19a1.91,1.91,0,0,0-.52-.14,6.61,6.61,0,0,0-.89,0h-.72a2.12,2.12,0,0,0-.69.21,1.46,1.46,0,0,0-.53.42,1.09,1.09,0,0,0-.21.7,1.21,1.21,0,0,0,.52,1.13,2.65,2.65,0,0,0,1.41.3Z" transform="translate(0 0)"/></svg>