<svg id="Layer_1" data-name="Layer 1" xmlns="http://www.w3.org/2000/svg" xmlns:xlink="http://www.w3.org/1999/xlink" width="908.21" height="1096.45" viewBox="0 0 908.21 1096.45"><defs><style>.cls-1{fill:#d11732;}.cls-2{fill:#fff;}.cls-3{fill:#f2f2f2;}.cls-4{fill:url(#linear-gradient);}.cls-5{fill:#c6c6c6;}.cls-6{fill:#bfbfbf;}.cls-7{fill:#d0d0d0;}.cls-12,.cls-8{fill:#d9d9d9;}.cls-9{fill:#e6e6e6;}.cls-10{fill:#b2b2b2;}.cls-11{fill:url(#linear-gradient-2);}.cls-12{stroke:#d9d9d9;stroke-width:0.05px;}.cls-13{fill:url(#linear-gradient-3);}.cls-14{fill:#fc0;}.cls-15{fill:#e4ad00;}</style><linearGradient id="linear-gradient" x1="291.19" y1="456.57" x2="392.35" y2="456.57" gradientUnits="userSpaceOnUse"><stop offset="0" stop-color="#fff"/><stop offset="0.99" stop-color="#d9d9d9"/></linearGradient><linearGradient id="linear-gradient-2" x1="538.64" y1="417.11" x2="690.53" y2="417.11" gradientUnits="userSpaceOnUse"><stop offset="0" stop-color="#fff"/><stop offset="1" stop-color="#c6c6c6"/></linearGradient><linearGradient id="linear-gradient-3" x1="350.44" y1="455.12" x2="239.56" y2="373.2" xlink:href="#linear-gradient-2"/></defs><title>godlo-12</title><path class="cls-1" d="M16.94,882.92c1.28,29,11.9,53.43,24.12,73,24,38.46,61,70.59,112,82.21C179,1044,214.84,1042,246.3,1042c33,0,65.73-.3,96.81-.3,32.46,0,60.84,3.49,82.8,14.31,20.35,10,36.68,24.44,42.3,48.55.08.3.12,1.53.2,2h5c.07-.76.17-2.21.26-2.61,5.72-24.81,24.22-40.3,46.34-49.78,23.1-9.91,51.6-12.52,84-12.52,45.51,0,97,.3,143.87.3a185.26,185.26,0,0,0,43.49-4.76c50.22-12.16,86.88-44.07,110.22-82.51,12.26-20.22,21.68-43.63,23.23-73.28V10.15H16.64Z" transform="translate(-16.64 -10.15)"/><path class="cls-2" d="M847,523.07c-23.95-11.77-45.16-27.06-67.61-39.61-2-1.14-4.37-2.25-5.66-4.17,18.06,6.9,37.82,14.87,59.87,18.76,23,4.06,49.74,2.59,66.13-7.74-18.61-28-42-51.19-76.26-63.45,16.54,1.91,33.5,1,46.47-3.57,12.5-4.44,23.35-12.67,23.23-28.31-15.09,6.65-40.29,8-59,3.58,25.21-5.3,48.63-13.09,59-33.06a136.35,136.35,0,0,0-58.38-23.83c12.85-6.4,32.59-12.82,40.21-25.32,4.65-7.63,1.8-16.33-1.79-22.94-4.14,2.83-7.86,6.33-12.21,9.23a153.25,153.25,0,0,1-14,8c-9.5,5-19.63,10.5-31.87,12.22,11.7-6.35,21.18-15.46,29.79-25,8.45-9.4,17.73-19.47,21.74-33.06-13.63-6.37-37.63-7.11-55.1-3.58,10-11.06,27.41-35.31,12.51-53-10.34,15.56-23.76,28.08-39,38.72,14.71-17.36,25.74-38.41,29.79-66.42-22.85,1.39-42.39,6.07-57.19,15.49,0-.31.23-.36.29-.6,10.84-13.6,21.37-29.07,22-51.83-73.28,7.93-128.8,35.84-168.31,78.64-18.8,20.37-39,44.91-48.55,75.06-5.18,16.38-7,36.12.6,51.53,6.48,13.19,18,24.76,38.12,22.64,8.68,30.4-20.74,43.58-48.85,40.82,1.33-14.16-2-27.82-7.44-35.15,5.92-1,10.15-3.77,11.62-9.24-8.32-1.57-14.87-4.08-17.87-10.43-6.23-13.18,3.47-31.66,1.78-47.06a9.52,9.52,0,0,0,9.53-1.79c-7-6.31-7.29-20-6.26-33.36,2.18-27.87,11.56-68-3.57-87.87,2.5-1.76,4.19-5.64,3-10.13,9.84-.58,7.56-16.55,1.79-20-2,7.52-17.35,6.32-20.85.9,9.71-2.72,11.2-22,1.79-26.22-2.4,6.34-6.31,11.16-12.51,13.71,4-15.57,7.34-30.91,12.51-45,5.21-14.23,12.43-26.52,18.76-38.43-9.65,5.14-22.09,7.49-28.89,15.49-6-7.49-17.55-1.86-20,4.47.68-7.82-2.83-11.47-9.83-11.62,5.69-9.09-4.49-15.78-11.32-11-.86-6.09-5.13-8.77-8.34-12.51-2.79,4.16-6.69,7.2-6.25,14.6-5.48-4.87-14.41-.11-11,8-8.26.21-10.14,8.27-10.42,15.49-1.49-8.75-14.29-11-20-4.47-3.67-10.73-19.7-9.1-26.81-16.38C405,86.82,413.87,112.86,421.68,140c-10.06,2.64-17,8.44-16.68,21.45-15.06.67-26.82,6.16-28,20.55-.71,8.71,2.35,15.84,4.77,22.93,4.67-4.66,13-9.93,22.64-8.93,6.66.68,11.78,4.57,14,9.23-12.1,2-22.87,11.69-36.94,11.62-7.92-.05-12.18-4.62-16.08-7.45-1.75,5.9.28,11.3,3,14,13.91,13.94,45,1.28,61.66-1.79-.85,1.75-.94,5.21.59,6.26,2.87.88,4.41-.58,6.85-.6,10.12-.1,17.1,7.57,21.75,13.41,5.66,7.09,9,15.72,6.25,26.51-4.63,18-19.2,29.85-33.06,37.23-1.89,6.5,1.55,12.43,6.25,14.3a135.52,135.52,0,0,1-17.27,21.75c-4.72,4.86-15,15.73-24.13,15.18-4.29-.25-5.65-3.28-8-6-4.63,6.83-3.29,21.88,3.87,24.72-8.18,8.5-11.2,22.16-12.22,37.84-21.58-4.06-49.86-6.55-50.93-30.1-.24-5.13.79-8.93,1.79-13.4,15.76,1.37,26.86-8.56,33.36-18.46,6.29-9.6,9.5-22,8.64-37.24-1.58-27.7-18-51.57-31.28-68.21-15.17-19-30.5-35.3-49.45-50-37.85-29.49-82.85-52.69-142.68-56,6.23,25,21.26,42.88,36.64,57.78-20.23-9.52-44.89-21-75.06-15.78,2.84,18.61,12.77,31.91,22.63,44.08s21.71,23.16,33.07,33.36c-11.26-6.95-23.12-14.13-34.85-22-12.17-8.22-27.28-17-34.25-29.79-2.76,4-3.43,10.6-3,16.39,1.23,15.88,13,26.52,21.74,33.65-10.47-2.33-22.89-1.56-34.26-.59-11.1.94-22.49,2.31-28.89,7.75,7.46,13.88,19.5,23.8,31,33.65a137.78,137.78,0,0,0,40.51,24.43c-16.21-1.83-30.17-7.36-42.89-13.41-10.91-5.19-22.21-11.51-30.38-19.06-1-.87-2-2.63-3.58-2.38-2.36,12.2,3.14,22.45,8.34,30.08a53.28,53.28,0,0,0,21.75,18.47C58.63,339,40.74,344.77,28.19,356c9.35,11.23,21.7,19.8,34.85,27.1s28.21,13.69,46.17,15.79c-25.87,2.3-54.07.06-73.88-6.56-.69,34.89,39.34,33.08,73.28,33.36a258.93,258.93,0,0,0-44.68,27.41c-13.48,10.18-26.84,21.64-33.06,39,31.67,12.55,75.31.67,103.65-5.36-21.73,11.85-44.15,27.55-67.61,39.32-9.66,4.84-22.59,11.9-35.15,8.34,6.08,11.5,15,21.42,32.17,20.26,14.19-1,26.2-6.83,37.53-12.22,11.72-5.58,22.74-11.48,32.47-17-26.6,38.53-56.2,74.06-54.21,141.19,15.7-1.9,28.05-10,39.32-17.58,34.14-22.87,60.44-54.17,83.1-87.28-12.66,25.79-23.94,54-37.53,79.53-13.41,25.15-27.69,50.72-53.92,63.14,19.8,8.33,38.44-1.7,50.35-11.6,24.73-20.59,40.62-52.08,54.5-81.32-5,24.77-9.91,56.24-8.63,86.68.67,15.93,1,32.34,8,43.19,22.27-16.55,38.49-39.68,52.13-64.64a390.14,390.14,0,0,0,33.66-83.1c-5.39,34-12.14,66.68-22.64,95.62a15.91,15.91,0,0,0,11.32-1.2c10.07-5,16.47-17.36,21.45-28,5.55-11.86,9.45-24.8,12.81-36.64,1.4,1.48,2.09,3.66,4.17,4.48,13.55-9.61,22.06-24.28,29.19-40.22,7.21-16.14,11.71-34.94,14.29-55.41,16.65,5.92,38.26,1.82,48.26-7.44,4.48,5.74,6.21,14.25,7.74,22.93C418,539,400.05,535.55,387.12,543c-10.86,6.25-18.95,17.94-22.34,31.87-2,8.19-2.32,15.73-4.17,22.64-5.66,21.06-18.22,36.07-34.26,47.06,1.87,1.8,5.08,2.28,8.94,2.09a80.88,80.88,0,0,1-12.51,17.87c-.43.45-2.27.82-1.49,1.79,1.21,1.17,3.75,1,5.37,1.79A54.29,54.29,0,0,1,304.31,689c2.15,2.42,6,3.16,9.24,4.48-5.69,8.19-14.14,13.66-23.54,18.16a67.46,67.46,0,0,0,40.22,10.73c-5.7,12.16-16.23,19.52-27.7,25.91,2.27,2,5.51,3,9.82,3a74,74,0,0,1-28.29,20.55c1.77,1.7,5,2,8,2.39a42.26,42.26,0,0,1-27.7,19.06c1.19,3.77,7.64,4.84,13.1,5.36-5.11,8.58-16.55,10.85-28,13.11,1.48,4.06,5.37,5.73,9.83,6.85-14.56,16.58-40.59-1-64.34,1.79-6.87-15.71-40.12-13-41.71,5.66-4.34-1.55-8.15,1-7.44,6.26-8.52,8.57-6.85,32.44,6.25,34.54-.2-10.92,6.91-14.53,12.81-19.36,9.23,3.14,19.36-.66,24.43-5.36,7.29,1.33,15.12,2.14,21.14,4.77a28.43,28.43,0,0,0-13.4,4.77c-2.84,1.8-7.37,7.23-10.43,7.74-3.5.57-7.68-1.82-11-1.79a16.63,16.63,0,0,0-10.72,4.47c-2.35,2.29-6.58,7.42-7.74,10.13-1.84,4.25-.6,10.42.29,15.19-2.53,2.33-1.19,6.88,1.19,8.34,1.06,8.46,7.21,13.63,13.41,17.26,5.41,3.2,12.32,5.7,19.65,5.38-1.14-3-4.29-5.42-5.65-9.54s-.61-9.29-2.09-14c7-3,12.33-9.08,13.4-17,7.92-2.16,17-4.13,23.83-7.14,1.7-.75,3.79-2.93,5.37-2.4.41,1.93-1.68,2.81-2.68,3.59-5.32,4.1-8.88,9.48-11.62,15.79-12.77-1.13-20.33,7.9-19.06,19.06.6,5.42,4.47,9,6.85,12.5-1.33,5.06,1.5,8.38,4.76,9.84,2.39,12.39,27.82,19.41,36.34,7.74-5.51-2.4-22-16-8.93-20.55,4.62-4.39,5.76-15.37,2.38-22,11-9.19,20.55-19.76,29.79-30.68,6.84,2,18,.5,23.83-.3.56,2.9-2.27,4.27-2.68,7.15a11.9,11.9,0,0,0,8.34,13.41c-.25,4-.49,8.9-2.38,12.51-1.33,2.5-4.22,3.1-5.37,5.36,10.33,5.74,29.83,2.26,28.3-12.23,3.86-.29,6.07-4.44,4.47-8.33,6.62-2.3,9.87-10.2,8.94-18.46-1.17-10.43-10.13-17.61-21.75-17.58-3.45,0-7.38,2-11.61,1.19-5.09-1-4.86-8.84-2.69-12.81s6.26-7.73,9.53-11.62c10.44-12.38,17.92-22.29,28.9-35.45,10.83-13,22.75-27.51,35.15-39.9.27-.29,5.05-5.15,5.66-5.07.17,0,2,2.51,3,3.58,7.86,8.61,17.65,15.25,33.07,14.88-4-7.26-7.24-15.21-7.45-26.2,3.78,2.18,6.59,5.31,12.22,5.66-9.65-41.4,10-74.72,28.89-94.13-.65,44.22-11.84,79.49-27.71,107.53,12.82,1.85,22.2-6.38,27.11-13.4,1,14-3.72,26.84-10.12,37.53-6.15,10.24-14.92,19.36-27.7,20.55-6.58.61-10.4-3.69-14.31-5.37-6.33,12.43-1.86,28,7.45,34,11,7.07,26.47,2.55,36.05-3.59-2.8,10.41-8.49,21-20.26,28.91-9.31,6.22-27.77,11.92-37.83,4.46-7.7-5.71-6-19.82-1.79-28-21-1.19-35.83,11.46-37.23,31-1.21,16.83,6.41,27.35,16.68,34.26-9.33,7.83-20.16,15.88-20.26,32.17-.09,15.46,9.93,25.19,20.86,31.26,11.24,6.27,27.26,9.28,42.89,5.68,28-6.51,44.51-26.45,57.49-46.47-5.14,16.92-5.84,40.08-1.79,57.79s12.33,31.84,21.45,43.48c7.52-12.71,15.49-27.28,20-44.08s5.16-40-.3-56.9c8.13,12,16.23,21.47,27.4,30.38,10.49,8.37,23.8,16.36,42,16.09,17.56-.26,30.69-8.31,38.72-19.06,4.14-5.55,7.59-13.18,7.45-21.45-.27-16.56-12.91-26.47-24.42-32.76,13.49-6.1,22.45-25,18.76-42.9-2.84-13.85-12.55-22.44-27.7-23.53a22.61,22.61,0,0,1,2.38,8.33c1.26,15.29-11.36,22.16-24.13,23-25.26,1.53-40.26-17.57-44.67-35.15,11.14,7.08,28,5.11,36.33-3.28,6.72-6.8,9.74-21.58,2.69-31-5.5,5.71-15.61,10.9-25,6.54-14.06-6.52-19.87-27.33-22.34-44.67,5.63,5.06,16,7.64,26.52,5.95-4.76-6.72-9.8-13.49-13.71-21.44-12-24.35-17.05-55.27-17.87-90.26a264.41,264.41,0,0,1,21.15,39.32c6,14.05,11.53,30,10.72,49.44,7.76-2.16,10.73-9.13,14.3-15.49.66,8,.46,15.37-1.19,21.45-1.71,6.32-5.41,10.33-8.34,14.9,17.77,5.31,30.81-9,37.83-19.36,24.2,30.3,47.25,62.57,73.57,91.15,3.19,3.45,10.41,8.34,10.13,13.4-.21,3.71-4.12,6.21-8.64,6-2.52-.15-4.88-1.36-7.15-1.79-22.13-4.32-30.88,20.43-15.49,30.38a21.6,21.6,0,0,0-.6,7.45c1.74,15.45,28,22.21,36.35,10.72-7-1.09-9.95-6.14-11.92-12.21a19.86,19.86,0,0,0,1.79-8.34c4,.11,5.56-3.75,7.74-4.47,8.94,1.18,16.2-1.33,21.16-5.06,8.8,8.36,17.1,17.25,25.9,25.62-1,1.76.72,3.17,1.2,4.46-1.85,11.38,3.51,18.12,9.82,22.34-1.28,4.49,2.29,6.63,4.77,8.34-3.1,4.44-8.34,6.74-12.21,10.43,10.52,6.24,26.46,1.09,30.68-7.15.6-1.17.31-2.86.89-3.87s2.16-1.35,2.68-2.39c.35-.69.24-2.19.6-3.28.86-2.64,1.83-3.75.3-6.25,9.41-12.76.94-31.39-14.29-30.69-6.91-8-16.79-14.6-23.84-21.43,7.8,2.59,16.12,5.48,24.73,8.34,6.56,2.16,19.62,5.07,23.23,10.13,1,1.45,1.13,3.71,1.79,5.36,1.42,3.5,3.48,4.9,8,6.54a47.73,47.73,0,0,1-2.68,20.56c14.22,1,21.06-9.63,23.24-21.15a6,6,0,0,0,2.67-4.17c.2-2.2-1.83-4.44-1.78-5.06,0-.34,1.44-1.54,1.78-2.08,3.07-4.91,2.75-11.88-.29-16.69-6.07-9.59-20.91-14.12-33.66-6.55-6.47-5.46-15-8.81-23.23-12.52,5.94-4.38,15.13-5.5,24.72-6.25,5,3.4,15.8,5.72,20.84.89.65,4.28,6.91,5.47,11,3.58,5.06,2.48,6.81,8.28,9.84,12.81,10.05-6.53,8.91-32-3.57-34.85-1-3-3.07-4.89-7.16-4.77-3.57-13-28.84-11.7-32.16.6a200.44,200.44,0,0,0-38.43,7.13c-4,1.17-8,3.44-11.32,3.89-7.8,1-13-4.52-17-8.94,3.75-1.42,6.72-2.83,8-7.45-10.76-.27-18.59-3.46-23.23-9.83.54-1.46,1.6-3.28,2.38-5.06-10.76-3.54-17-11.63-22-20.85,1.88-1.39,4-2.55,4.16-5.66-10-3-18.44-7.59-23.23-15.78,2.5-1.49,5-3,6-6-7.74-3.42-14.22-8.83-20-14.58s-11.84-11.72-15.19-19.06c15,3.08,33.94.79,44.37-4.68,1.49-.79,3.23-1.2,3.59-2.47-13.94-3.64-25-10.15-31.28-21.45,2.94.07,4.86-.89,7.14-1.49-8-6-16.63-11.37-20.55-21.44a10.38,10.38,0,0,0,8.34-3.29c-7.78-2.84-12.56-8.69-16.08-15.79,3.76.67,8.63.44,10.72-1.48C587,626.15,580.61,604.54,573,582.35c-6.2-18.09-13.67-47.74-39-46.18-10.51.65-18,5.6-25.61,8.65A84,84,0,0,1,520,525.46c11.08,6.28,32.28,6.21,42.3,0,4.46,36.33,13.9,67.7,36.94,85.48,4.23-1.83,8.16-5.53,11.32-7.44,1.94,12,4.74,26,9.23,38.12,5.6,15.12,12.8,30.07,32.76,29.49-10.37-22.69-13.64-54.08-13.1-86.68,4.1,30.16,10.26,59.63,19.36,85.49s20.09,49.91,40.21,64.94c7.3-13.85,10.48-32.7,12.21-52.43s1.92-42.1-.34-62.17c12.74,20.2,26.49,45.11,43.83,62.47,5.6,5.58,13.45,12.46,22.35,12.81,11.44.43,16.76-7.24,26.21-9.53-38.16-20.53-50.23-67.15-71.2-104.86C744.43,599,758,616,773.76,630.6,789.29,645,807,658.72,830.65,664.85c2.89-60.1-18.42-100.12-40.51-135.23,15.65,7.91,33.31,16.36,53.62,20.56,22.37,4.61,45.88.06,49.15-20.56C877.78,536.29,859,529,847,523.07ZM432.26,879.15c-3.72,8.38-12.5,20-19.52,26.69-8.41,8-19.17,15.41-31,16.68-17.12,1.81-26.1-9.21-22-26.51,28.08,9.18,57.87-2.6,72.54-16.86l.13-.26a.76.76,0,0,0,0,.14A.75.75,0,0,1,432.26,879.15Zm.13-.27a.6.6,0,0,1,.14-.38A2.92,2.92,0,0,1,432.39,878.88Zm.16-.39.15-.35A.59.59,0,0,1,432.55,878.49Zm71.94-5.71c15.11,14.43,45,27.42,72.68,19.36,2.24,16.06-6.82,26.21-23.54,25-24.22-1.74-41.87-27.11-49.45-44.1C504.1,872.54,504.47,872.45,504.49,872.78Z" transform="translate(-16.64 -10.15)"/><path class="cls-3" d="M474.59,163.28c8.63,3.08,15.48,5.84,22.12,4.71,0,0-6.6,2.25-41.15-15.76,0,0-39.86-20-36.51,8.43l1.79.58s.49-18,20.26-10.45C452,155,464,159.49,474.59,163.28Z" transform="translate(-16.64 -10.15)"/><path class="cls-4" d="M291.19,459.21c37.08,18.7,101.16,21.33,101.16,21.33C386.76,470,382,432.6,382,432.6s-.16,20.17,3.41,29.95c0,0-5.58.77-16.13-.78s-47.32-7.29-72.61-21.1" transform="translate(-16.64 -10.15)"/><path class="cls-5" d="M411.94,159.87l6.62.72s-3.83-17.37,14.59-15.62,34.3,14.12,41.27,15.93c0,0-26.48-17.27-41.9-18.1S413.18,150.87,411.94,159.87Z" transform="translate(-16.64 -10.15)"/><path class="cls-5" d="M476.48,151.59s26.69,7.55,37.34,1.34a21.5,21.5,0,0,0,8-7.75c2.79-5.07,5.69-5.9,5.69-5.9s7.39,14.54-12.2,18.82C496.86,162.14,476.48,151.59,476.48,151.59Z" transform="translate(-16.64 -10.15)"/><path class="cls-5" d="M517.93,162.66s10.86,4.42,5.9,9.46l-.08,1.09s12.8,8,21.87-.08c0,0,5-4.5.39-10.78,0,0-6,4.42-12.26,4.42s-13.26-4.35-15.74-4.35" transform="translate(-16.64 -10.15)"/><path class="cls-6" d="M525.4,176.93s13,18.93,6.83,22.76c0,0-1.76,1.65-5.59-.22,0,0,17.79,34.87,4.76,66.93s-42.81,66-20.27,92.67c0,0,17.37,15.72,13,36,0,0,11.79-10.13-1.45-39.09,0,0-5.79-14.9,0-36.83,0,0,6.62-28.54,6.83-31.64,0,0,8.48,14.89,13.45,17.37,0,0-2.9-15.92-1.45-28.95s7.86-59.37,1-77S525.4,176.93,525.4,176.93Z" transform="translate(-16.64 -10.15)"/><path class="cls-6" d="M530.57,297s6,8.27,8.07,9.31c0,0-5.17,43.44-4.14,47.37s3.94,12.62,16.35,15.93c0,0-16.76,7.24-23.59-9.11S525.82,309.63,530.57,297Z" transform="translate(-16.64 -10.15)"/><path class="cls-5" d="M532.43,372.72s-.41,10.34-1.23,13.65c0,0,7.65,8.27,10.13,25.44s5.8,22.76,5.8,22.76,0-36-12-54.61l.21-1.86s7.23.41,8.27-.83C543.61,377.27,535.33,375.41,532.43,372.72Z" transform="translate(-16.64 -10.15)"/><path class="cls-5" d="M422.28,161.72l4.66,1.4s.62-6.05,4.19-7.14,5.43.16,4.19,1.4a23,23,0,0,0-2.64,3.57l6.67,4.5s-.31-6.52,1.71-7.76c0,0,.77-1.85,7.44.31s34.6,13.19,34.6,13.19-1.55,11.64-18.61,9.93c0,0,15.66,11.63,32.42-7.45,0,0,17.84.78,20-4.5,0,0-17.53.78-27-1.08s-32.43-9.62-47.63-15.51S422.44,155.37,422.28,161.72Z" transform="translate(-16.64 -10.15)"/><path class="cls-5" d="M443.8,157.38s-4.25,11.79,7.55,17,15.1,3.73,15.1,3.73l-7.14-3.73s-2,1.14-4.86-.93-5.58-5.89-2.79-13.86A76.81,76.81,0,0,0,443.8,157.38Z" transform="translate(-16.64 -10.15)"/><path class="cls-7" d="M375.23,219.13S386.81,222,402,218.2s23.9-9.83,33.83-11.48,20.48-2.49,33.61,6c0,0,2.67,1.57,2.27,2.89s-.21,2.3-4,1.35-5.19-3.77-30.1-2.9a147.44,147.44,0,0,0-14.79,3.31C417.11,219.13,391.05,227.3,375.23,219.13Z" transform="translate(-16.64 -10.15)"/><path class="cls-8" d="M453.68,300.21s24.38-9.71,31.49-30.6c0,0,1.5-2.23,3-.84s3.49,2.72,4.58,2.1C492.72,270.87,482.89,296.29,453.68,300.21Z" transform="translate(-16.64 -10.15)"/><path class="cls-8" d="M440.44,307.09s18,8.07,37.7-9.15C478.14,297.94,447.26,333.62,440.44,307.09Z" transform="translate(-16.64 -10.15)"/><path class="cls-8" d="M455.49,323.54s14.42-5.27,18.46-11.17c0,0-18.78,41.42-52.59,54,0,0-24.51,9.31-30.1-10.24,0,0,9.46,9.93,28.54,1.86S455.49,323.54,455.49,323.54Z" transform="translate(-16.64 -10.15)"/><path class="cls-5" d="M398.55,374.42s16,3.74,27.77-2.16c0,0,10.39-5.13,15.83-10.24S460.6,342,462,339.68l-7.45,18.77s-18.45,14.11-30.4,16.75c0,0-12.11,6.06-17.85,17.54,0,0-8.22,14.27-10.39,16.44,0,0,4.65-10.55,6.2-15.05,0,0,5.29-12.6,10.25-16.32C412.36,377.81,399.48,376,398.55,374.42Z" transform="translate(-16.64 -10.15)"/><path class="cls-5" d="M453.47,371v11.33s-7.29,1.86-7.76,18.15,2.79,21.41-.93,31a116,116,0,0,0-1.71-17.84c-1.55-7.61-4.5-16-1.86-25.91S453.47,371,453.47,371Z" transform="translate(-16.64 -10.15)"/><path class="cls-5" d="M422.91,384.2s-4.82,15.05-4.19,24.05c0,0,1.24,7.6,4.19,10.08s16.6,13.34,18.46,20.64c0,0-9.31-12.88-20-19.24,0,0-3.88-3.57-4-5.75a22.7,22.7,0,0,1-11.94,10.56,85.79,85.79,0,0,0-16,8.68,12.36,12.36,0,0,1-1.24-5.27s-3.1-1.86-6.2,2.17L380.4,429s2.94-4,10.39-5.12,19.24-2.65,23.27-9c0,0,3.26-5.43,3.73-10.55C417.79,404.37,419,390.71,422.91,384.2Z" transform="translate(-16.64 -10.15)"/><path class="cls-6" d="M517.85,244.1a3.75,3.75,0,0,0,2-2.48c.31-1.7,1.24-4,1.86-4s.31,22.64-3.72,34-8.85,19.86-16.76,31-19.85,37.09-21.25,40-11,32-13.5,35.68c0,0,7.76-30.87,11.33-40.49s19.86-38.47,21.56-41.57,14.12-27.16,15.36-30.88S518.94,246.44,517.85,244.1Z" transform="translate(-16.64 -10.15)"/><path class="cls-6" d="M489.31,344.64s-.47,22.18,3.41,27.15c0,0-10.86,14-13.81,16.91s-13.5,11.48-23.12,5.43c0,0,7.3-4,10.4-9.31S480.93,346.34,489.31,344.64Z" transform="translate(-16.64 -10.15)"/><path class="cls-8" d="M500.32,323.07s-7.13,22.5-2.32,31.65,13.8,15.2,14.43,15.83,7.75,8.38,7.29,9.61-14.9-5-19.71-10.7S482.64,348.83,500.32,323.07Z" transform="translate(-16.64 -10.15)"/><path class="cls-8" d="M507.93,196.94s23.27,13.5,24,39.72-10.55,45.46-15.2,54.14S496,319.2,496,319.2s27.61-44.22,29.63-63S517.54,210.13,507.93,196.94Z" transform="translate(-16.64 -10.15)"/><path class="cls-5" d="M497.22,378.3s12.1,6.83,13.18,7.14,7.29,4.35,8.08,5.59,2.16,3.56,2.16,3.56l-1.55-4L515.53,387l-17.07-9.77s-4.5-3.88-5.27-3.73-7.92,12.88-5,20.95,9.47,16.6,9.47,26.53-1.25,15.2-1.25,15.2,5.9-14,3.57-23.73S489.93,388.23,497.22,378.3Z" transform="translate(-16.64 -10.15)"/><path class="cls-5" d="M521.11,397.08s3.11,11.17,4.81,13.19a38,38,0,0,1-16,21.4c-13.18,8.69-15.05,13-15.05,13s-1.7-4.51,11.48-14.28S521.89,400.18,521.11,397.08Z" transform="translate(-16.64 -10.15)"/><path class="cls-8" d="M427.41,166.53a52.07,52.07,0,0,1,22.18,20.64,47.49,47.49,0,0,0-8.22-.93S436.25,172.9,427.41,166.53Z" transform="translate(-16.64 -10.15)"/><path class="cls-5" d="M465.41,397.69l1.4.16s.77,10.71,6.67,14.74,20.33,18.31,20.33,27.15a30.3,30.3,0,0,0-9.93-14.27c-7.6-5.9-12.88-11-12.88-11s-4.81,11.48-13,16.45-14,11.17-14.12,12.41c0,0,.93-5.43,10.86-13.19S467.43,403.28,465.41,397.69Z" transform="translate(-16.64 -10.15)"/><path class="cls-9" d="M490.86,194.46s21.25,14.89,22.65,32.89-.31,27.15-6.21,42.51-28.23,58-28.23,58-17.41,34.81-20.26,52.63c0,.15-.05.29-.07.43-2.64,17.69-2.17-24.2,20.95-63.61s29-59.26,26.84-74.31S501.87,213.39,490.86,194.46Z" transform="translate(-16.64 -10.15)"/><path class="cls-5" d="M404.14,500.09s-9.32-14.74-9.32-16.13,1.56-4,3.42-5.44-.16,4.5,3.57,5c0,0,.93-4.65,3.41-7.44s18.31-14.9,15.82-24.67l-5.74-4.81s1.87,12.26-7.13,19.7-15.05,13-14.74,15.52S397.77,492.34,404.14,500.09Z" transform="translate(-16.64 -10.15)"/><path class="cls-5" d="M423.68,452.93s25.13,11.78,45.15-6.36l5.12,4.5S446.33,467.82,423.68,452.93Z" transform="translate(-16.64 -10.15)"/><path class="cls-5" d="M474.72,451.38s25.6,11.32,41.74-5.59l2.32,5.89s-23.89,13-44.83.31Z" transform="translate(-16.64 -10.15)"/><path class="cls-5" d="M527.16,416.47s16,20.17,11.79,31.18-10.7,5.74-14,1.09-5.27-13.35-2.17-25.91c0,0-9.16,13.81,3.56,30.41s10.24,21.41,10.24,21.41,11-22,8.54-33.82S527.16,416.47,527.16,416.47Z" transform="translate(-16.64 -10.15)"/><path class="cls-5" d="M415.46,475.26s16.76,3.11,27.3-9.14l4.5,4.34S429.73,480.54,415.46,475.26Z" transform="translate(-16.64 -10.15)"/><path class="cls-5" d="M448.35,471.23s23.89,12.89,45.3-1.85l4.65,2.94s-25.44,14.74-50.73-.77Z" transform="translate(-16.64 -10.15)"/><path class="cls-5" d="M499.24,472.78s17.84,6.67,32-5.27c0,0,2.48,2.95,2.48,4.65,0,0-15.36,9-35.38,1.41Z" transform="translate(-16.64 -10.15)"/><path class="cls-5" d="M418.56,488.3s-1.86,5.74-10.08,10.55c0,0-3.26,3.26-2.33,4.81s4.34,6,4.34,6-.31-3.57,2.8-7.91S421.67,494.51,418.56,488.3Z" transform="translate(-16.64 -10.15)"/><path class="cls-5" d="M469.45,488.61s-15.83,18.62-50.12-.16l.47,1.4s9.78,7.76,32.59,9.62c0,0,15.66-.47,22-7.91C474.42,491.56,470.23,490.16,469.45,488.61Z" transform="translate(-16.64 -10.15)"/><path class="cls-5" d="M518.78,483.49s1.25,3.41,2.18,4.19c0,0-22.5,13.81-46.39,4.66l.47-.78S498.46,500.56,518.78,483.49Z" transform="translate(-16.64 -10.15)"/><path class="cls-5" d="M534.15,473.41a40.49,40.49,0,0,1,.92,15.67,98.18,98.18,0,0,0-1.24,10.24s-11.64-5-12.56-10.55c0,0,1.7-3.72,5-5s7.45-9.15,7.45-10.39S534.15,473.41,534.15,473.41Z" transform="translate(-16.64 -10.15)"/><path class="cls-5" d="M521.11,495.13s7.45,12.87,21.25,13,24-13.5,24-13.5l1.56,11s-17.69,16.28-40.35,6.2c0,0-2.32,11.48-1.85,13.5,0,0-15-3.72-18.62-14.58a8.93,8.93,0,0,0,5.28-3.11C514.44,505.05,516.3,495.9,521.11,495.13Z" transform="translate(-16.64 -10.15)"/><path class="cls-5" d="M518,525.38s-8.07-5.74-9.46-7.29-6.21,5.12-5.13,8.84,2,8.69,6.21,11.79Z" transform="translate(-16.64 -10.15)"/><path class="cls-5" d="M501.25,505.83l2.95,5.9s-36.15,20.63-69.35.46V511s15.83,10.09,33.36,8.22S501.25,505.83,501.25,505.83Z" transform="translate(-16.64 -10.15)"/><path class="cls-5" d="M431.28,507.54l3,3.1s-4.65,12.1-12.26,15.83l-4-5.43S428.49,515.92,431.28,507.54Z" transform="translate(-16.64 -10.15)"/><path class="cls-5" d="M426.94,540.89s6.9-6.67,8.22-9.54c0,0,3.18,3.52,4.55,4a.87.87,0,0,0,.26,0c1.16,0-4.19,2.18-5.67,4.66s-5.19,7.05-6.12,7.14Z" transform="translate(-16.64 -10.15)"/><path class="cls-5" d="M440.83,535.85s5.89,4,17.14,1.48,13.34-6.67,13.34-6.67l3.87,3.56S457.12,546,440.83,535.85Z" transform="translate(-16.64 -10.15)"/><path class="cls-5" d="M502.54,533.75l3.52,4.35a35.92,35.92,0,0,1-25-2.17S493.55,539.65,502.54,533.75Z" transform="translate(-16.64 -10.15)"/><path class="cls-5" d="M494.58,547.2l4.14,4.45s-6.83,18.31-8.17,32.48-9.21,59.36-9.21,59.36,2.49-38.16.72-50-1-23.37-.82-27.72a7.31,7.31,0,0,0-5.38-7.86c-3.21-1-7.65-.41-9.82-3.11C466,554.85,482.79,556.31,494.58,547.2Z" transform="translate(-16.64 -10.15)"/><path class="cls-5" d="M502.65,553.82l.31.83s-6.41,21-7.34,39.61-2.9,35.27-2.9,35.27-2.38,36.93-10.34,56.47c0,0-5,11.9-12.41,19.86l-.42-15S482,686,488,650.21c0,0,6-50,6.21-52.74S497.69,561.89,502.65,553.82Z" transform="translate(-16.64 -10.15)"/><path class="cls-8" d="M444.78,548.8s6.05,5,9.62,5.13c0,0-6.21.77-5.74,2.79a153.25,153.25,0,0,1,5.28,39.87c0,22.33,2.16,44.68,2.32,47.47s4,23.11,6.21,25.45-5.28,1.86-9-27.46-2.17-42.66-4.35-53.37-5.27-28.86-10.55-35.22Z" transform="translate(-16.64 -10.15)"/><path class="cls-5" d="M430.35,560.28s10.71,59,10.86,78.82c0,0-21.1,24.2-26.53,37.39s-9.62,39.25-7.14,54.76c0,0-17.53-3.88-18.77-32.27,0,0-.77-12.88,1.87-22.65,0,0,12.56,3.26,20.79-7.29s14.43-18.62,19.39-29.94,5.12-28.55,4.65-32.74S430.35,560.28,430.35,560.28Z" transform="translate(-16.64 -10.15)"/><path class="cls-5" d="M446,639.25s3.88,38.79,15.83,52.44c0,0-5.12,17.38-9.31,23.74,0,0,1.4-6.36-2-6.83S428,743,418.09,749.56c0,0,21.73-27.31,24.52-38.32s5.58-21.1,5-35.84S446,639.25,446,639.25Z" transform="translate(-16.64 -10.15)"/><path class="cls-5" d="M476.58,699.76s-5,63.45-4.65,79l-1.7-71.51S476.28,700.69,476.58,699.76Z" transform="translate(-16.64 -10.15)"/><path class="cls-5" d="M484.81,721.16s9.15,21.73,13.65,24.67l-.93.47s-3.1-3.41-3.88.15-7.76,47.32-20.94,72.15l-.62-14s-8.85-8.06-12.88-29.63c0,0,7.91,23.43,12.41,26.69,0,0,11.48-24.05,13.81-40.18S486.83,727.22,484.81,721.16Z" transform="translate(-16.64 -10.15)"/><path class="cls-5" d="M484.19,793.15l4.65,6.52s9.46,38.94,7,64.85-4,45.45-22.8,67.8V920.83S455,888.1,456.73,849c0,0,4,49.65,16.44,69,0,0,11.95-13.81,15.05-36.3s2.64-60.66-5.74-85.17Z" transform="translate(-16.64 -10.15)"/><path class="cls-5" d="M484.19,793.15l4.65,6.52s9.46,38.94,7,64.85-4,45.45-22.8,67.8V920.83S455,888.1,456.73,849c0,0,4,49.65,16.44,69,0,0,11.95-13.81,15.05-36.3s2.64-60.66-5.74-85.17Z" transform="translate(-16.64 -10.15)"/><path class="cls-8" d="M466.66,810.53l5.43,9.31,4.34-7.14-2.95,85.79-3.41-44.68S466.81,816.73,466.66,810.53Z" transform="translate(-16.64 -10.15)"/><path class="cls-8" d="M466.5,927.35s3.57,6,5.89,6.52,7-8.23,7-8.23l-7.28,56.47Z" transform="translate(-16.64 -10.15)"/><path class="cls-8" d="M493.65,640s-2.49,29.63-5.74,38.78c0,0,4.5,67.18,33.2,68.42l.62-.15S512,735.9,502.34,706,493.65,640,493.65,640Z" transform="translate(-16.64 -10.15)"/><path class="cls-8" d="M488.38,782.76s1.39,11.63,5.58,16.13,13.65,13.5,19.24,14.58c0,0-8.23-.46-16.76-10.7s-10.08-15-10.08-15Z" transform="translate(-16.64 -10.15)"/><path class="cls-8" d="M497.06,752.66s4.19,20.79,9.78,28.55,15.51,21.25,27.92,21.56c0,0-19.08,8.38-36.46-20l-6.51-9.93S494.74,750.8,497.06,752.66Z" transform="translate(-16.64 -10.15)"/><path class="cls-8" d="M450.83,722.56s.47,32.89,1.86,39.57S458,786,458.74,788.81c0,0-9.15,15.67-23.42,15.82,0,0,18-10.55,18.62-24.35v-6.21l-6.05,11.33s-9.63,20.16-28.86,20c0,0,17.68-2.49,24.35-17.53,0,0,7.76-18.31,8.07-25.44l-1.55-18.16s-2.95,35.38-22.18,43.13c0,0,13-12.87,15.35-28.07S450.83,722.56,450.83,722.56Z" transform="translate(-16.64 -10.15)"/><path class="cls-5" d="M459.68,791.91l1.86,4.66s-14.59,18.15-29,22.8-36,6.36-41.26-19.39c0,0,7.44,25.91,34.91,17.84C426.17,817.82,448.66,809.29,459.68,791.91Z" transform="translate(-16.64 -10.15)"/><path class="cls-8" d="M457.19,813.47s-6.51,22-7.29,34c0,0-9.62,14.9-15.51,18.31,0,0,11.79-12,9.92-17.07,0,0-2-.15-7,6.21s-29.63,25.45-45.92,22.19c0,0,22.81-.63,41.11-23.75S457.19,813.47,457.19,813.47Z" transform="translate(-16.64 -10.15)"/><path class="cls-8" d="M367.83,829.46s-17.07,11.64-7.14,35.36c0,0-10.85-4.65-4.65-23.42,0,0,1.09-5.74-5.12.31s-13.5,28.39,11.79,47c0,0-17.69-5.9-20.48-24S351.69,831,367.83,829.46Z" transform="translate(-16.64 -10.15)"/><path class="cls-5" d="M449.75,849.32s-.47,10.23-.47,11.47-24.2,25.14-43.44,30.25-32.27,1.25-32.27,1.25,30.72,3.41,49.65-13.19S449.75,849.32,449.75,849.32Z" transform="translate(-16.64 -10.15)"/><path class="cls-8" d="M449.9,866.85s2.64,21.87,3.26,24.51c0,0-15.67,31.64-34,44.37,0,0,28.08-28.7,30.1-43.44,0,0-25.91,46.07-61.9,47.78,0,0,36.61-7.6,52-40C439.35,900,449,881,449.9,866.85Z" transform="translate(-16.64 -10.15)"/><path class="cls-8" d="M354.8,895.23s-16,36.93,23,44.84c0,0-10.24,2-18.77-3.56s-14.12,4.34-3.57,11.63c0,0-18.61-6.83-17.84-26.53A30,30,0,0,1,354.8,895.23Z" transform="translate(-16.64 -10.15)"/><path class="cls-5" d="M454.09,893.84l3.1,9.31s-18,34-42.2,48.71S365,959.78,365,959.78s24.35,2.94,16.91-1.86c0,0-5.74-2-7.6-2s13.18-.47,16.6-1.56,21.25-4.5,33.5-16.6S452.23,901.75,454.09,893.84Z" transform="translate(-16.64 -10.15)"/><path class="cls-8" d="M490.44,801.53s6,10.86,15.31,16.65c0,0-2.17,24.93,21.72,42.61s43.54,8.8,43.54,8.8-24.09,13.34-48.92-8.17S491.28,811.05,490.44,801.53Z" transform="translate(-16.64 -10.15)"/><path class="cls-8" d="M579.81,826.15s39.51,26.06-8.49,54.4C571.32,880.55,610.21,860.9,579.81,826.15Z" transform="translate(-16.64 -10.15)"/><path class="cls-5" d="M592.94,834s19.39,30.26-12.87,50.12c0,0-9,7-30.72,4.49,0,0,20.48,8.85,37.39-5.27S604.26,848.85,592.94,834Z" transform="translate(-16.64 -10.15)"/><path class="cls-5" d="M496.76,848.23s11.47,23.12,34.59,30.72c0,0,15.51,5,25,5,0,0-24.36,2.33-42-12.1,0,0-15-13.34-17.38-18.93Z" transform="translate(-16.64 -10.15)"/><path class="cls-8" d="M496.34,873.82s7.2,32,44.18,60.56c0,0-31.38-17.39-44.58-53.77Z" transform="translate(-16.64 -10.15)"/><path class="cls-5" d="M585.5,896s12.19,21.13-1.2,35a32.09,32.09,0,0,1-29.79,9.43s23.8,5.33,34.59-9.43S591.1,900.4,585.5,896Z" transform="translate(-16.64 -10.15)"/><path class="cls-5" d="M599.69,906.79s12.19,32-22.39,45.17c0,0-16,6.8-35.78,0l-9.39-1.19s15,12.39,41,7S612.49,923.38,599.69,906.79Z" transform="translate(-16.64 -10.15)"/><path class="cls-5" d="M335.29,646.69s35.42-3.8,44-25.34c0,0,24.57,2.21,49.7-34,0,0-17.68,34.51-51.91,43.35,0,0-24,23-45.84,23Z" transform="translate(-16.64 -10.15)"/><path class="cls-5" d="M326.66,668.14s25.55,4.29,51.51-24.42c0,0,20.15,1.93,40.58-17.4,0,0-14.64,22.64-44.18,24,0,0-25.61,26-52.38,24.34Z" transform="translate(-16.64 -10.15)"/><path class="cls-5" d="M375.4,667.19s23.2,1.1,38.11-15.19c0,0-16.57,22.91-40.31,21.26,0,0-19.09,30.19-64.64,26l5-5.85S351.38,703.08,375.4,667.19Z" transform="translate(-16.64 -10.15)"/><path class="cls-8" d="M372.92,686.52s2.49,10.21,16.57-9.12c0,0-19.33,36.17,6.62,54.66,0,0-20.15,3.59-4.69,18C391.42,750,354.7,736.21,372.92,686.52Z" transform="translate(-16.64 -10.15)"/><path class="cls-5" d="M368,695.62s-18.78,22.92-49.7,19c0,0,13.81,3.31,0,4.7C318.25,719.37,353.87,725.71,368,695.62Z" transform="translate(-16.64 -10.15)"/><path class="cls-8" d="M340.06,726.27l1.38,16.29-7.18,2.76S340.34,734.83,340.06,726.27Z" transform="translate(-16.64 -10.15)"/><path class="cls-5" d="M363.26,705.29s-1.94,21.26,5.51,30.09l-20.43,8.84-4.69-1.66s16-21.81,18.22-34.24Z" transform="translate(-16.64 -10.15)"/><path class="cls-8" d="M351.39,745.22l-5.28-1.09s-31,39.25-39.72,48.25-34.59,37.08-21.72,47c0,0-2.63-9.93,1.87-17.07s17.06-24.2,25.29-32.89S349.84,748.94,351.39,745.22Z" transform="translate(-16.64 -10.15)"/><path class="cls-5" d="M272.42,831.47s-2,8.23.62,9,6.2,1.86,6.2,3.26-3.72.47-7.6,5.12-5.89,8.53-9.93,8.53c0,0-7.29,12.57-14.43,17.84s-15,13.81-15.2,18.93,7.14,17.69-10.55,26.22c0,0-12.25,5.43-20-9,0,0,19.86,4.34,15.82-21.56,0,0,7.76,0,11.48,2.33,0,0,6.36-13.66,13.35-20.33S271.18,836,272.42,831.47Z" transform="translate(-16.64 -10.15)"/><path class="cls-8" d="M308.41,884.22s4.5,0,6.36-1.4,4.19-1.08,3.72,1.25S315.55,890.89,308.41,884.22Z" transform="translate(-16.64 -10.15)"/><path class="cls-5" d="M303.45,881.43s9.62-6.67,1.55-17.84c0,0-2.07-3-7.76-4.65-4.62-1.35-8.07-4.66-1.09-7.92s25.76-6.52,29.33,13.8C328.42,883.45,303.45,881.43,303.45,881.43Z" transform="translate(-16.64 -10.15)"/><path class="cls-8" d="M262.7,831.53s-19.24,36.4-67,45.09c0,0-5.8,24.41-29.58,12.62,0,0-16.76-11.17,9.51-14.28,0,0,10.14-.21,11.79-6.82,0,0,16.55,2.69,31.44-3.1s21.93-14.9,26.69-18.62S261.66,831.73,262.7,831.53Z" transform="translate(-16.64 -10.15)"/><path class="cls-8" d="M163.27,892.29s4.35,4,12.11,3.41c0,0-8.38,1.94-13.89-.77C161.49,894.93,163.27,893.22,163.27,892.29Z" transform="translate(-16.64 -10.15)"/><path class="cls-8" d="M186.57,816.63s-5.48,11.48-12.51,13.14-16.65-1.24-14,6.51,9.51,11.79,17.06,10.24a21.76,21.76,0,0,0,9.52-6.1c4.55-4.86,13.54-8.59,15.41-7.86a22.72,22.72,0,0,1-6.52,4.35c-4.13,1.85-.31,4.65,1.66,5s11.89,5.69,21.51,1.24,21.41-13.34,24-13.86c0,0-15.51,0-24.1-1.65S200.75,823,196.29,823s-3.2-.93-4.23-2S188.74,815.49,186.57,816.63Z" transform="translate(-16.64 -10.15)"/><path class="cls-8" d="M154.51,832s1.71,9.36,9.47,14c0,0-8.95-2.89-11.8-5.84,0,0-1.39-1,1.14-.83C153.32,839.28,153,831.53,154.51,832Z" transform="translate(-16.64 -10.15)"/><path class="cls-5" d="M312.35,751.24s17.61-.61,26.55-6c0,0-19.36,12.73-34.32,13.81C304.58,759.09,310.8,753.2,312.35,751.24Z" transform="translate(-16.64 -10.15)"/><path class="cls-5" d="M292.1,774.18s18.57.48,27.84-4.53c0,0-14.58,12.29-33.06,11.21A69,69,0,0,0,292.1,774.18Z" transform="translate(-16.64 -10.15)"/><path class="cls-5" d="M277.53,798.57s16-.88,24.57-5.62c0,0-9.47,9.62-29.37,10.91A32.12,32.12,0,0,0,277.53,798.57Z" transform="translate(-16.64 -10.15)"/><path class="cls-5" d="M249.49,811.73S264,816.21,284,814c0,0-13.77,6.41-24.67,4.59C259.34,818.56,252,817.9,249.49,811.73Z" transform="translate(-16.64 -10.15)"/><path class="cls-5" d="M532.67,602.8s14.68,13.89,33.28,14.67c0,0,13.89,17.42,28.76,18.79l3.52,5.88s-12.32-1.77-29.94-19C568.29,623.15,538.74,617.08,532.67,602.8Z" transform="translate(-16.64 -10.15)"/><path class="cls-5" d="M530.25,622.05a51.42,51.42,0,0,0,30.13,12.72S572.72,649.46,589,653c0,0,12.72,2.35,13.51,2.35l3.23,6.11s-22-4.35-40.42-19.62C565.28,641.82,539.84,635.36,530.25,622.05Z" transform="translate(-16.64 -10.15)"/><path class="cls-5" d="M536,648s20.16,12.53,30.53,9.59c0,0,6.07,11,16.05,14.49a75.39,75.39,0,0,0,33.27,6.26l4.4,6.28s-17.12-1.78-30.63-8.05-18.58-10.37-21.72-11.93S541.71,653.45,536,648Z" transform="translate(-16.64 -10.15)"/><path class="cls-5" d="M647.71,699.8s-13.54,13.33-48.45,7.08c0,0,16-1.22,5.79-4.34s-20.74-5.49-25-9.59a84.33,84.33,0,0,0,33.67,8c18.39.2,23.67-4.5,23.67-4.5A76,76,0,0,0,647.71,699.8Z" transform="translate(-16.64 -10.15)"/><path class="cls-5" d="M539.88,713.57s10.71-20.64,11.17-34.76c0,0,6.05,24.21-10.55,47.32Z" transform="translate(-16.64 -10.15)"/><path class="cls-5" d="M564.4,685s12.41,18,33.35,21.72c0,0,6.67,11.64,2.79,20.94l-23.73-27.3s-2.48,22.65-13.34,34.44-19.86,16.6-29.48,14.74c0,0,19.55-2.33,26.68-17.22S572.15,708.45,564.4,685Z" transform="translate(-16.64 -10.15)"/><path class="cls-5" d="M573.46,719.69s13,11.17,24.51,9.46c0,0-3.57,3.73-10.71,2.17,0,0,16.22,19.42,47.1,9.18,0,0-5.65,17.43-38.72-.49a40.71,40.71,0,0,0,19.24,18.62c14.12,6.67,29.66,3.78,33,2.3l3.85,1.34s-.31,5.29-4.57,5.67c-3.4.3-20.33,1.39-38.63-10.4,0,0,26.57,39.09,57.6,29.94l3.38,1.29-2.38,5.06s-23.07.95-39.83-14.26c0,0,14.9,21.72,28.85,26.06s25,.32,28.4-1.85h5.74S689,814,671.35,811.37,649.94,805,649.94,805s11.48,15.82,11.33,21.09c0,0-7.14-13-15.67-22.8s-25.29-29.48-25.29-29.48-25.91-31.33-29.17-34.75-18-18.62-18-18.62Z" transform="translate(-16.64 -10.15)"/><path class="cls-8" d="M716.87,818.62s6.06-2.35,19-3.08c0,0,10.14-1,14.48-5.16s3.9-10.32,17.93-9.68a15.62,15.62,0,0,1,12,8.87s5.07-.63,6.61,3.25a30.34,30.34,0,0,0-2.26,10c-.37,6-1.36,13.58-8.33,11.41,0,0,1.9-4.53-1.27-3.35s-3.35.27-3.08-2.53c0,0-4.25,7-13.49,4.26a5.84,5.84,0,0,0,1.54-3.26s9.42-1.64,8.33-9.61-9-8.32-12-7-7.06,8.51-11,8.42S722.2,818.35,716.87,818.62Z" transform="translate(-16.64 -10.15)"/><path class="cls-8" d="M752.63,873.75s4.34,7.69,16.57,6.88,11.4-4.71,10.5-5.34,9.69-10.23.63-19.73S759,845,748.83,851.12c0,0-.18,1.09-3.17-1.27s-26.62-13.76-35-15.3c0,0,31.87,11.86,33.41,17.48s-10.41-.55-10.41-.55-21.28-10.41-26.53-10.41c0,0,23.09,9.51,34.32,17.47,0,0,5.52,4.16,7.51,3s12.59-9.32,15.39.18S755.53,875.74,752.63,873.75Z" transform="translate(-16.64 -10.15)"/><path class="cls-8" d="M705.26,858.42A4.71,4.71,0,0,0,706.5,861c1.14,1.25,11.59,8.69,10,17.69,0,0,4.86-6.31,6.2,1.34,0,0,16.14,13.24-4,26.48,0,0,5.79,2.07,4.86,6.11s-5.58,3.93-5.58,3.93,2,3.1,8,1.65,10.34-2.28,10.44-1.14c0,0,2.59-.93,2.18-4.34a5,5,0,0,0,.2-6.31s6.52-10.76,2.59-19.66-16.55-10.65-16.55-10.65Z" transform="translate(-16.64 -10.15)"/><path class="cls-8" d="M632.14,877.65a24.6,24.6,0,0,0,4.65-1.55,19.65,19.65,0,0,1,6.11-1.45c.31.1,2.27-6.92-1.24-5.06S632.14,877.65,632.14,877.65Z" transform="translate(-16.64 -10.15)"/><path class="cls-8" d="M650.35,858.21s26.16,9.93,27-18.93c0,0-3.62,19.24-28.14,10.86,0,0-18.92-7.76-20.68,5.59,0,0-.41,2.59,3.31,5.06s-1.76,9.32-6.42,8.38C625.41,869.17,645.69,874.86,650.35,858.21Z" transform="translate(-16.64 -10.15)"/><path class="cls-10" d="M569.13,505s19.06,7.6,12.59-1.45v-1.29s12.6,3.87,29.08-14.22c0,0,1.29,5,1,6.95s-5.17,7.91-13.24,11.79c0,0,3.07,28.27,11.94,41.84s15.67,22.29,19.07,24.55c0,0-9.21-5.34-18.42-20.52s-13.89-35.21-15.18-44.41l-5.49,1s2.1,17,3.71,18.08l2.91,61.06-13.25-79s-8.88-.49-14.86-3.72Z" transform="translate(-16.64 -10.15)"/><path class="cls-5" d="M599.21,610.94l-.69-11.73s13.73-4.21,18.09-28l17.6,15,5.08-3.89s1.87,50.08,5.42,65.11,8.09,23.74,8.09,23.74-21.65-4.85-25-52.18l-3.88-37.79S616.06,605.05,599.21,610.94Z" transform="translate(-16.64 -10.15)"/><polygon class="cls-8" points="599.81 489.23 610.64 490.52 614.67 548.34 599.81 489.23"/><path class="cls-10" d="M633,573.16l.93,9.93s23.89-19.86,22.34-62.05L693.47,694.8,667.1,521.66s-15.2-14.28-20.79-28.24L644.76,495S661.51,540.89,633,573.16Z" transform="translate(-16.64 -10.15)"/><path class="cls-10" d="M684.48,535l13.34,5.59S731,671,699,734.86l-1.48-14.93s-36-18-52.75-147.39l.62-1.86S660.27,690.76,696,716.21c0,0,24.51-55.86-3.73-175C692.23,541.21,688.2,536.24,684.48,535Z" transform="translate(-16.64 -10.15)"/><path class="cls-8" d="M699.78,541.19l18,4.75s9.1,25.65,10.55,28.34,13,24,18,34.14c0,0,20.37,56.15,57.54,77.67,0,0-25.38,10-51.44-32.78s-45.62-83.16-45.62-83.16Z" transform="translate(-16.64 -10.15)"/><path class="cls-10" d="M694.56,222.85s-36.15,9.16-50.73,38.33c0,0,12.26.46,14.89,2l37.39-38.63-30.88,41.58s11,7.76,13.82,14.27c0,0,20.15-3.7,31.64,8.38,12.26,12.88,11.95,24,7.6,35.37,0,0,16.29,14,11.8,33.66s-15.21,23.44-15.21,23.44,8.69,19.69,2.8,34.9-16,18.77-16,18.77-2.94,25-14,33.05-21.72,9.46-29.48,9.77c0,0-15.66,30.72-45.92,19.09l.32-2.18s15.66,6.52,15.82,1.55c0,0,.77-2.48-8.07-2.64,0,0-6-.61-7.6-3.41,0,0,26.84,11.33,41-19.55,0,0,22.18,1.86,33-13s7.44-27.77,7.44-27.77,16.44-5.58,18.31-21.87a48.26,48.26,0,0,0-6.36-29s18.3-6.05,16.9-32.43c0,0-1.23-13.65-12.71-20.64,0,0,9.77-17.52-3.26-31,0,0-11.64-12.1-33.2-8.22,0,0-5.28-18.47-27.62-19.09,0,0,12.41-2.32,5-4.8,0,0-3.72-.94-13.18.3l4.19-2.94S662.14,228.9,694.56,222.85Z" transform="translate(-16.64 -10.15)"/><path class="cls-10" d="M694.56,222.85s-36.15,9.16-50.73,38.33c0,0,12.26.46,14.89,2l37.39-38.63-30.88,41.58s11,7.76,13.82,14.27c0,0,20.15-3.7,31.64,8.38,12.26,12.88,11.95,24,7.6,35.37,0,0,16.29,14,11.8,33.66s-15.21,23.44-15.21,23.44,8.69,19.69,2.8,34.9-16,18.77-16,18.77-2.94,25-14,33.05-21.72,9.46-29.48,9.77c0,0-15.66,30.72-45.92,19.09l.32-2.18s15.66,6.52,15.82,1.55c0,0,.77-2.48-8.07-2.64,0,0-6-.61-7.6-3.41,0,0,26.84,11.33,41-19.55,0,0,22.18,1.86,33-13s7.44-27.77,7.44-27.77,16.44-5.58,18.31-21.87a48.26,48.26,0,0,0-6.36-29s18.3-6.05,16.9-32.43c0,0-1.23-13.65-12.71-20.64,0,0,9.77-17.52-3.26-31,0,0-11.64-12.1-33.2-8.22,0,0-5.28-18.47-27.62-19.09,0,0,12.41-2.32,5-4.8,0,0-3.72-.94-13.18.3l4.19-2.94S662.14,228.9,694.56,222.85Z" transform="translate(-16.64 -10.15)"/><path class="cls-10" d="M703.09,216s6.52,22-2.79,43c0,0,21.25-9.62,30.41-10.24,0,0-31.65,6.67-50.27,30.56l-.93-.62s24.36-24.82,18-55.54Z" transform="translate(-16.64 -10.15)"/><polygon class="cls-8" points="645.65 468.38 689.24 518.02 654.8 466.98 645.65 468.38"/><path class="cls-10" d="M693.63,463s14.58,23.12,49.49,28.24c0,0-13.5-.31-19.24-2.95l89.67,143.51L712.4,485.35s11.33,31.81,5.89,57.87l-8.06-10.4s8.06-31.33-18-68Z" transform="translate(-16.64 -10.15)"/><path class="cls-10" d="M755,491.85s6.81-.16,9.49-.84c0,0,27.92,41.2,36.18,56.24,6.62,12.06,24.93,44.22,28.66,76.8s1.28,40.33,1.28,40.33l-6.21-11.94s-36.92.78-98.67-96c0,0,60.82,91.53,97.43,92.77C823.17,649.18,837.45,603.26,755,491.85Z" transform="translate(-16.64 -10.15)"/><path class="cls-10" d="M714,290l-5-4,42.81-36.92s6.52,40.9-31.33,71.11c0,0,1.45-5.8,1.24-8.07,0,0,23.79-21.31,22.34-53.78Z" transform="translate(-16.64 -10.15)"/><path class="cls-10" d="M774.77,486.28l-9.31-6.83s.31-32.57-47.17-61.74l.32-1.86s58.95,9,75.71-20.79c0,0,72.6,3.72,89.36-28.54h9s-9.93,23.88-59.58,32l-31.34,1.23s-15.2,21.42-50.57,23.27l129.69,60.51L747.77,431.67S771.67,452.15,774.77,486.28Z" transform="translate(-16.64 -10.15)"/><path class="cls-10" d="M774.77,486.28l-9.31-6.83s.31-32.57-47.17-61.74l.32-1.86s58.95,9,75.71-20.79c0,0,72.4,3.26,89.16-29l9.62-.16s-9.62,24.67-59.26,32.74l-32.08,1.08s-15.2,21.42-50.57,23.27l129.69,60.51L747.77,431.67S771.67,452.15,774.77,486.28Z" transform="translate(-16.64 -10.15)"/><path class="cls-10" d="M754.39,360.31s22.76,9.93,34.34,20.27l-8.07-7.45s79.23-6.41,94.33-6.61l-106.33-.63Z" transform="translate(-16.64 -10.15)"/><path class="cls-8" d="M667.43,228.18s24.59-13.34,28.78-14.87,68.43-55.09,68.43-55.09l-60.8,57S675.24,222.84,667.43,228.18Z" transform="translate(-16.64 -10.15)"/><polygon class="cls-10" points="723.6 237.47 735.8 238.04 784.79 181.99 723.6 237.47"/><path class="cls-10" d="M791.71,308,785,311.85s-6.86,31.64-55.85,50.71l-.76,3.24,23.06-6.48s38.88-25.54,41.74-51.85l54.9-34.12-61.57,30.88s-30.11-.38-51.84,7.24C734.72,311.47,778,301.37,791.71,308Z" transform="translate(-16.64 -10.15)"/><path class="cls-8" d="M780,143.7l-8.34,7.47s-1.53,29.74-34.12,57.57l-32.41,25.73v4.38s40.46-27.56,52.23-42.5C770.77,179.37,780.23,162.77,780,143.7Z" transform="translate(-16.64 -10.15)"/><path class="cls-8" d="M814.86,180.65l-10.38,8.84s.39,22.68-14.48,42.88-38.13,37.55-38.13,37.55l-1.14,6.1S806.49,247.46,814.86,180.65Z" transform="translate(-16.64 -10.15)"/><path class="cls-8" d="M826.4,211.6s15.25,15.92-15.06,50c0,0-23.81,5-73,40.68,0,0,2.13-3.37,2.29-3.68l50.15-35.34S826,241,826.4,211.6Z" transform="translate(-16.64 -10.15)"/><path class="cls-8" d="M855.75,269.71l10.94-4.89s-8.55,32.5-51.16,57.94c0,0-17.07,6.52-32.7,9L784,329.9S837.29,314.7,855.75,269.71Z" transform="translate(-16.64 -10.15)"/><path class="cls-8" d="M875.92,299.34s15.53,22.62-41.1,42.33c0,0-36.47-2.15-58,.18l28.54-2.33S865.21,324.16,875.92,299.34Z" transform="translate(-16.64 -10.15)"/><path class="cls-9" d="M768,152.07s-104.33,23-128,97.16c0,0-12.93,15.2-13.23,20.48,0,0-14.9,11.16-10.56,32.27,0,0-19.08,7.6-18.15,28.69s21.41,22.5,26.06,21.11l5.12,1.24s-49.17,12.1-45.77-35.53C585.18,300.43,616.42,186.76,768,152.07Z" transform="translate(-16.64 -10.15)"/><path class="cls-9" d="M603.18,371.06s12.82-.41,25.24-16.13h1s-3.72,18.82-.41,24.41c0,0,17.16.62,25.65-7,0,0,24.82,56.68-108.19,71.58,0,0,6.82-25.65,6.82-31.24h4.35S586,425.05,612.9,396.92C612.9,396.92,627.59,382,603.18,371.06Z" transform="translate(-16.64 -10.15)"/><path class="cls-8" d="M639,334.66s-8.28,11.68-9.73,18.36c0,0-22-3.36-25-20s13.34-26.49,20.27-28.66c0,0-8.59-27.61,17.58-34.85,0,0,22.65-5.07,31,17.79l-4.34,7.55s-12.32-13.86-27-14.27c0,0-11.58,18.09-5,34.23,0,0-15.92-2.17-24.09,6,0,0,4.75,14.17,18.61,19.55C631.31,340.35,636.49,335.28,639,334.66Z" transform="translate(-16.64 -10.15)"/><path class="cls-8" d="M669.27,296l4.35,7s13.24-5.69,24.2-1.76c0,0,3.72,12.41-6.52,23.69,0,0,21,15,22.76,33.82,0,0-6.42,4.34-22.14,3.2a44.73,44.73,0,0,0,17.79-.1c9.31-2.07,8.48,9.41-2.9,15.51,0,0,17.11-5.33,14.82-31.52,0,0-1.27-12.54-12.13-19.68,0,0,8.79-16.95-1.75-29.26-4.24-4.76-13.24-11.69-33.82-9.21Z" transform="translate(-16.64 -10.15)"/><path class="cls-10" d="M678.5,319.12S669,328.5,665.39,335l46.78,22.88S714,340.37,678.5,319.12Z" transform="translate(-16.64 -10.15)"/><path class="cls-10" d="M664.17,335.55l4.48,19.34s-10,20.54-37,22.61Z" transform="translate(-16.64 -10.15)"/><path class="cls-10" d="M677.71,318.63s-9.51,8.18-13,15.18c0,0-14.53-38.45-21.41-50.36,0,0-13.11,15.95,1,45.22,0,0-15.5-25.45-1.64-45.87C642.64,282.8,668.86,283.34,677.71,318.63Z" transform="translate(-16.64 -10.15)"/><path class="cls-10" d="M696,302.69l-17,15.63,10.18,6.31a23.25,23.25,0,0,0,7.3-21.94s-8.38-4-21.52,1.3C675,304,686.7,299.39,696,302.69Z" transform="translate(-16.64 -10.15)"/><path class="cls-10" d="M638.14,317s4.5,11.28,7.08,14.12l-30-9.83S623.4,315.16,638.14,317Z" transform="translate(-16.64 -10.15)"/><path class="cls-11" d="M669.89,355.81s11.64,4.81,17.84,5.27c0,0,35.84,101.21-149.09,117.34L543.92,463S703.4,459.91,669.89,355.81Z" transform="translate(-16.64 -10.15)"/><path class="cls-5" d="M888.85,486.28l10.91,4s-33.28,29.74-125.5-10.7c0,0-2.28-10.29-2.9-11.32C771.36,468.29,852.65,510.9,888.85,486.28Z" transform="translate(-16.64 -10.15)"/><path class="cls-12" d="M765.15,490.94l1.86,2.79s58.64,35.53,66.4,39.09,39.87,18.78,59.11-3c0,0-12.41,6.53-32.43-1.55a247.41,247.41,0,0,1-37.38-18.92c-19.55-12.1-48.25-29-48.25-29l1.08,7.29Z" transform="translate(-16.64 -10.15)"/><path class="cls-10" d="M313.92,572.54s.14,35.87,9.76,50.91c0,0-17.51,73.94-45.43,65.87,0,0,16.35-9.26,22.87-31.29s8.53-29.18,10.71-84.09Z" transform="translate(-16.64 -10.15)"/><path class="cls-8" d="M290.14,494.41s-13.07,42.66.28,67.89c0,0-16.45-23.42-1.4-69Z" transform="translate(-16.64 -10.15)"/><path class="cls-10" d="M225.88,710.31,275.37,551s6.35,22.18,19.08,33.82c0,0-33.41,114.54-73.12,139.37l2.52-7.93s-17.83-41,15.68-166.66c0,0-37.85,111.7-19.24,176.86l-5.34,15s56.63-33.33,89.31-161.17l-8.78,3.16s-27.4-22.85-18.51-71.26l-3.52,5.79Z" transform="translate(-16.64 -10.15)"/><path class="cls-8" d="M242.47,460.38s-24.35,32.73-12,79.37l-.72,1.07S214.86,496.84,242.47,460.38Z" transform="translate(-16.64 -10.15)"/><path class="cls-9" d="M224.63,551.05l10.87-3.41s-14.59,53.66-23.28,70.83-45.46,98.67-95.11,88.12c0,0,43.2-10.76,69.25-68.47,0,0,9.32-19.86,11-23.58s16.14-37.86,16.14-37.86Z" transform="translate(-16.64 -10.15)"/><path class="cls-10" d="M217,415.38s-28.7,10.24-37.54,15.52c0,0-121,51-123.8,52.28s118.53-41.89,118.53-41.89,8.06-13.49,42.81-24.82Z" transform="translate(-16.64 -10.15)"/><path class="cls-9" d="M264.66,267.53s-5.89-26.58-1.24-30.2c0,0,17.27,23.38,25.14,38.59,0,0-13.76,6.61-21.21-3.42l8,11.69s7.87-3,14.49-1.76c0,0,6-2.28,11.47-1.66,0,0-5.16-5.89-8.06-9.93s-22.34-30.51-28.45-34.54c0,0,14.48-4.76,37.6,17.73,0,0,15.67,16.76,19.71,36.62,0,0-4.81-48.4-62.53-61C259.54,229.68,254.89,247.37,264.66,267.53Z" transform="translate(-16.64 -10.15)"/><path class="cls-9" d="M248.17,182.59s-55.49-35-85.42-35.18c0,0,2.1,22.23,37.45,52.16,0,0-29.4-27.31-25.55-43.24C174.65,156.33,189.71,150,248.17,182.59Z" transform="translate(-16.64 -10.15)"/><path class="cls-9" d="M113.35,181.79l10.34,5.59s-1.24,26.06,34.55,51.3c0,0,29.16,21.3,48.4,21.51,0,0-14.48,0-18.41,2.68l-28.08-20.78L133.62,218.3l-3.26-.26S116,199.27,113.35,181.79Z" transform="translate(-16.64 -10.15)"/><path class="cls-9" d="M187.56,268.31s1.86,13.49,4.8,17.53c0,0-93.08-37.08-94.32-70.75A76.77,76.77,0,0,0,121.62,243C138.38,255.28,178.71,275.6,187.56,268.31Z" transform="translate(-16.64 -10.15)"/><path class="cls-9" d="M129.9,267.43s-43.86-5.17-53.17,2.9l-8.27-3.11s6.82,20.69,59.36,44.27c0,0,26.69,8.69,40.35-1.45l1.65,1s-20.27,10.34-20.9,11.79c0,0-67.43-23.79-82.32-55.65C66.6,267.22,89.35,257.5,129.9,267.43Z" transform="translate(-16.64 -10.15)"/><path class="cls-9" d="M148.31,326.39s2.89,7.44,5.79,9.3c0,0-31.86-4.55-44.68-2.48,0,0-47.58-14.89-55.44-34.34C54,298.87,86.66,334.86,148.31,326.39Z" transform="translate(-16.64 -10.15)"/><path class="cls-9" d="M89.56,341.07S54,346.86,45.71,358.24l-3.52-.42s2.27,15.11,63.3,31.65c0,0,31.85,8.49,50.06-7.65l.41,1s-11.38,8.27-12.83,11a145.27,145.27,0,0,1-45.09-5c-23.58-6.61-49.86-17.58-58.95-31C39.09,357.82,57.7,342.72,89.56,341.07Z" transform="translate(-16.64 -10.15)"/><path class="cls-10" d="M50.46,359.48s72.4,6.62,86.67,7.45,49.45.62,56.06-.62c0,0-21.51,2.27-29.16,8.89,0,0-34.76-5.38-47.17-7" transform="translate(-16.64 -10.15)"/><path class="cls-9" d="M38.46,395.62s14.33,11.78,40,11.15,56-4.15,60.34-2.4L145.6,410s-33.59,3.18-47.92,3S49.76,415.52,38.46,395.62Z" transform="translate(-16.64 -10.15)"/><path class="cls-9" d="M111.69,431.2S52.43,463.32,51.5,484.12L47.15,486s3.1,7.14,45.46.16L95.25,488s-5.59.16-6.52.31-30.87,6.51-46.38-.31C42.35,488,51.81,460.84,111.69,431.2Z" transform="translate(-16.64 -10.15)"/><path class="cls-5" d="M162.58,464.57s-2.18,8.89-2.27,12.4c0,0-35.17,11.9-51,14.07,0,0-4.13,1.24-5.89-1.76,0,0-1.55-2.07-7.34-1.55l-2.28-1.45S135.17,480.08,162.58,464.57Z" transform="translate(-16.64 -10.15)"/><path class="cls-10" d="M231.25,467.26s-7,12.19-7.65,18L92.66,652.8s29.89,2.89,88.85-73.74c0,0,31-43.13,37.54-61.43,0,0,.62-10.55,1.86-15.83,0,0-1.44,23.53.11,30.05,0,0-70.51,125.43-141.3,134.8l68.9-92.87L223.08,472Z" transform="translate(-16.64 -10.15)"/><path class="cls-10" d="M313.92,572.54s.14,35.87,9.76,50.91c0,0-17.51,73.94-45.43,65.87,0,0,16.35-9.26,22.87-31.29s8.53-29.18,10.71-84.09Z" transform="translate(-16.64 -10.15)"/><path class="cls-10" d="M225.88,710.31,275.37,551s6.35,22.18,19.08,33.82c0,0-33.41,114.54-73.12,139.37l2.52-7.93s-17.83-41,15.68-166.66c0,0-37.85,111.7-19.24,176.86l-5.34,15s56.63-33.33,89.31-161.17l-8.78,3.16s-27.4-22.85-18.51-71.26l-3.52,5.79Z" transform="translate(-16.64 -10.15)"/><path class="cls-9" d="M224.63,551.05l10.87-3.41s-14.59,53.66-23.28,70.83-45.46,98.67-95.11,88.12c0,0,43.2-10.76,69.25-68.47,0,0,9.32-19.86,11-23.58s16.14-37.86,16.14-37.86Z" transform="translate(-16.64 -10.15)"/><path class="cls-10" d="M231.25,467.26s-7,12.19-7.65,18L92.66,652.8s29.89,2.89,88.85-73.74c0,0,31-43.13,37.54-61.43,0,0,.62-10.55,1.86-15.83,0,0-1.44,23.53.11,30.05,0,0-70.51,125.43-141.3,134.8l68.9-92.87L223.08,472Z" transform="translate(-16.64 -10.15)"/><path class="cls-9" d="M180.57,485.87s-47.16,53.78-65.16,85.64-23.16,49-24.28,79.76l-2.94,4s-.08-23.19,4.27-37.3S114.79,551.85,180.57,485.87Z" transform="translate(-16.64 -10.15)"/><path class="cls-9" d="M174.76,481.45l-40.7,43.43S96,547.56,78.8,551.6C78.8,551.6,50,564,34.74,539c0,0,18.31,5.59,35.37.47a173.55,173.55,0,0,0,32.69-13.08s38.26-24.21,46.33-30.41,22.76-14.9,22.76-14.9Z" transform="translate(-16.64 -10.15)"/><path class="cls-10" d="M340.74,511.56s2.34,8.78,9.36,13.65l-18.73,81,8.78-75.89s-9.81,26.22-20.46,35.53c0,0,1.86,39.09,9.41,50.79,0,0,30.82-22.14,34.34-80.48,0,0,1-3.38-3.52-5.47,0,0-5-3-6.9-4.5,0,0,12.65,5.76,18.31,6.14,0,0-6,68.31-43.48,95.63l.81-10.55s-8.62-9.62-10.17-49.81c0,0-10.7,10.77-22.18,14.85l1.71-8.27s31.08-11.95,39.56-63.67c0,0-13.86,2.69-21.31.21L298.48,571.3,307,508.21a103.84,103.84,0,0,1-20.62-17.83l.29-.79.73.78a27.3,27.3,0,0,0,3.12-7.12,1.9,1.9,0,0,0-.52-1.15l.26-.16,1.45,2.29s17.78,29,48.39,16.54a16,16,0,0,1-.83,6.31l1.55.41s1.45-2.48.52-4.66l-.1-1.14s5.27,15.42,35.06,11.17c0,0,3-1,3.41,1.45A24,24,0,0,1,380,519l1-.11v-4.44l-.72-.73.2-.41s14.07,11.69,30.82-1.76l5.69,8.37-1.65-1s-18.31,11.07-35.38.93C380,519.79,359,525.25,340.74,511.56Z" transform="translate(-16.64 -10.15)"/><path class="cls-10" d="M247,458.87s2.15,5.9,5.57,9.58a95.51,95.51,0,0,1,5.56,7.91c2.48,4,4.89,3.88,5.63,3.35s3.28-4.83,3.28-4.83,9.45,10,22.92,6.77l.12.39s-3.32,7.34-4.71,10.53-11,24.12-16.08,30.48-17.53,19.7-44.22,27.46l5.43-10.24a39.82,39.82,0,0,0,20.94-7.91c9.93-7.6,22-18.46,31-42.2,0,0-14.89-5-19.39-8.37l-29,50.88,20.16-52.9a7.72,7.72,0,0,0-.77-7.3C251,468.6,247.4,463.1,247,458.87Z" transform="translate(-16.64 -10.15)"/><path class="cls-10" d="M215,418.23s-40.86,13.75-45.3,54.09c0,0,30.92,10.86,71.57-18,0,0-11.38-7.54-14.79-12.1L173.13,470s47.27-32,48.92-35.68l7-3.1s9.42,14.27,20.79,18.92c0,0-40.54,42.51-88.53,26.59l6.83-3.73S170.85,433.12,215,418.23Z" transform="translate(-16.64 -10.15)"/><path class="cls-10" d="M176,377.16s-26.64,13.13-29.09,25.74l61.65-10.68,6.94,10.42v.9l-4.11-4.37-64.48,4.89s19.44,13.64,56,15.57c0,0-13.64,5.15-15.95,6.95,0,0-23.43-2.19-42-15.44l1.93-.26s18.4,10.81,20.47,7.72-7.34-4.25-11.46-6.43-13.38-7.73-12.87-8.63S152,386.17,176,377.16Z" transform="translate(-16.64 -10.15)"/><path class="cls-10" d="M218.53,315.21s-38.57-5.89-59.26,11.28c0,0,15.72,5,29.47,7.86s35.07,7,35.07,7-6.21,4.45-6.73,6l-58-20.27s5.18,21,35.06,34.65c0,0,10.24,4.24,12.41,1.13s4.76-8.06,6.52-9-5.27,5.58-6.41,14.27c0,0-10.86-3.93-13.86-5.28s-26.27-11.68-35.89-36.6C156.89,326.29,173.85,308.39,218.53,315.21Z" transform="translate(-16.64 -10.15)"/><path class="cls-10" d="M266.42,285s-37.23-20.58-69.3-15.83c0,0,1.35,38.07,31.34,35.59,0,0-5.17,7.75-8.48,5.69s-22.75-14.17-25.54-42.93C194.44,267.53,228.36,260.81,266.42,285Z" transform="translate(-16.64 -10.15)"/><path class="cls-10" d="M200.9,271.34s42.12,22.18,54.3,26.37l-1.4,3.8a45.32,45.32,0,0,0-14.58-2.33Z" transform="translate(-16.64 -10.15)"/><path class="cls-10" d="M176.22,157.21l53.92,41.66s32.2,25,48.31,29.76l-19.26-6.48s-5.25-1.58-5.77,5.95c0,0-.88,5.25-1.23,6.83,0,0,.7-9.28-2.27-13.13s-19.78-18.73-19.78-18.73Z" transform="translate(-16.64 -10.15)"/><path class="cls-10" d="M256.29,263.5s2.68,8.28,3.93,9.93l.41,1s-29.79-13-41-13.65L124.52,188s14.68-5.59,56.05,11.37c0,0-42.4-15.3-51.5-9.3l106.32,70.32s13,8.07,23,11.8C258.35,272.19,256.07,265.78,256.29,263.5Z" transform="translate(-16.64 -10.15)"/><path class="cls-10" d="M81.28,272l120.6,35.38L199.4,303,205,308.8s-20.48-2.28-26.27-.21C178.71,308.59,90.38,274.05,81.28,272Z" transform="translate(-16.64 -10.15)"/><path class="cls-10" d="M290.72,282.89s7.61-2.48,12.88-.62,16,10.55,15.36,28.85l-6.36,4.51S316.33,287.7,290.72,282.89Z" transform="translate(-16.64 -10.15)"/><path class="cls-10" d="M319.12,311.69s19.49,5.9,18.87,22.24-13.24,21.62-24.41,20.17c0,0,18.41-.61,18.52-17,0,0,1.45-19.34-19-21Z" transform="translate(-16.64 -10.15)"/><path class="cls-9" d="M287.31,211.06s94.32,70.74,72.3,127.84c0,0-10.86,26.37-38.79,16.75,0,0,31.34-1.55,30.72-31.64C351.54,324,350.92,282.74,287.31,211.06Z" transform="translate(-16.64 -10.15)"/><path class="cls-10" d="M295,346l21.1-1.87s-3.94,11.9-12.42,13.76C303.65,357.93,297.55,348.41,295,346Z" transform="translate(-16.64 -10.15)"/><path class="cls-10" d="M294.24,297.32l-17,50s11.07.62,16.45-1.35C293.73,345.93,308.31,317.07,294.24,297.32Z" transform="translate(-16.64 -10.15)"/><path class="cls-10" d="M308.1,395l-30.61-47s12.1.21,16.55-1.55A55.88,55.88,0,0,1,308.1,395Z" transform="translate(-16.64 -10.15)"/><path class="cls-10" d="M266.31,322.66s-3.2,10-3.3,14.89c0,0,8.27,6.94,10.44,8.38a109.39,109.39,0,0,1-16.55-13.86L245.63,321S253.18,318,266.31,322.66Z" transform="translate(-16.64 -10.15)"/><path class="cls-10" d="M276.55,348.21l-8.37,25.44s-23.17,10.76-41.58.42Z" transform="translate(-16.64 -10.15)"/><path class="cls-9" d="M265.36,472.86s-13.89-17.61-9.7-28.39c0,0-12.1-9.31-12.33-18.54,0,0,6,11.95,14,14.12,0,0,21.41,16.21,33.9,19.16,0,0-62.63-24-45.87-79.66,0,0-15-.41-19.75-5.17,0,0,1.75-26.38,29.58-34.86,0,0-7.35.51-9.93,2.06,0,0-7.14-12.2-.31-21,0,0,7.13-3.93,21.51,1.24,0,0,13.45-24.61,27.93-25.44,0,0,11,10.34,5.69,35.16,0,0,15.3,6.21,16.75,12.31a24.28,24.28,0,0,1-4.45,9.31s18.62.21,18.93-14.79-9-20.89-19.34-21.72c0,0,3.51-29.06-22.45-33.51,0,0-20.16-3.51-31.75,21.72,0,0-21.41-6.62-31.65,8.8,0,0-6.3,12.09,3.11,27.91,0,0-19.6,11.91-18.52,34.71,0,0,.78,11.79,12.72,26.06,0,0-2.79,27.93,27,47.16C250.39,449.51,257.37,469.22,265.36,472.86Z" transform="translate(-16.64 -10.15)"/><path class="cls-13" d="M268.2,374.59s8.46,16.26,36.95,20.56c0,0-12.23-.55-21.37-5.11,0,0-11.83,30.46,37.51,45.67,0,0,26.68,8.22,51.5,10.39l-2.79,16s-45.46-6.05-67.17-17.84S256,417.4,268.2,374.59Z" transform="translate(-16.64 -10.15)"/><path class="cls-10" d="M457.65,164.56a52.89,52.89,0,0,0,9.83,3.32c5.48,1.23,10.23,2.58,10.13,3.3s-3.72,8.28-11.69,6.93S457,171.08,457.65,164.56Z" transform="translate(-16.64 -10.15)"/><path class="cls-8" d="M791.21,394.29l-72.67-5.63a67.55,67.55,0,0,1,1.68,7.89Zm-88.55,41.38c-.08.56-.2,1.46-.4,2.6l54,33.59-49.16-39A22.46,22.46,0,0,1,702.66,435.67Zm76-120-49.2,22.94a34.5,34.5,0,0,1,1.87,6.3Z" transform="translate(-16.64 -10.15)"/><path class="cls-8" d="M793.7,409.33l-.2-.17a67.87,67.87,0,0,1-9.29,6c5.61.66,39.27,11.55,39.27,11.55,74,9,69.72-31.73,69.72-31.73C883.79,422.36,793.7,409.33,793.7,409.33Z" transform="translate(-16.64 -10.15)"/><path class="cls-14" d="M784.93,826.34a25.81,25.81,0,0,1-2.84,8.9c5.06,2.48,6.81,8.28,9.84,12.81,10.05-6.53,8.91-32-3.57-34.85A86,86,0,0,0,784.93,826.34Z" transform="translate(-16.64 -10.15)"/><path class="cls-14" d="M759.46,884.68a47.73,47.73,0,0,1-2.68,20.56c14.22,1,21.06-9.63,23.24-21.15,0,0-.58-1.87-5.2-.31S759.46,884.68,759.46,884.68Z" transform="translate(-16.64 -10.15)"/><path class="cls-14" d="M716.86,918.94c-3.1,4.44-8.34,6.74-12.21,10.43,10.52,6.24,26.46,1.09,30.68-7.15.6-1.17.31-2.86.89-3.87,0,0,.51-2.06-5.45,0S718.06,920.42,716.86,918.94Z" transform="translate(-16.64 -10.15)"/><path class="cls-14" d="M629.83,880a48.67,48.67,0,0,1-9.26.09c4.08,13.65,27.94,19.08,35.83,8.22-7-1.09-9.95-6.14-11.92-12.21C643.63,874.82,634.08,879.41,629.83,880Z" transform="translate(-16.64 -10.15)"/><path class="cls-14" d="M300.88,888.82c-5.65,0-7.12-3.09-7.12-3.09-.25,4-.36,7-2.25,10.58-1.33,2.5-4.22,3.1-5.37,5.36,10.33,5.74,29.83,2.26,28.3-12.23C313.13,888.57,306.54,888.82,300.88,888.82Z" transform="translate(-16.64 -10.15)"/><path class="cls-14" d="M204.82,929.07c2.39,12.39,27.82,19.41,36.34,7.74-3.88-1.69-13.25-8.94-13.84-14.67C227.32,922.14,217.3,931.55,204.82,929.07Z" transform="translate(-16.64 -10.15)"/><path class="cls-14" d="M158.65,895.71c1.06,8.46,7.21,13.63,13.41,17.26,5.41,3.2,12.32,5.7,19.65,5.38-1.14-3-4.29-5.42-5.65-9.54s-.61-9.29-2.09-14C174.11,899.92,158.65,895.71,158.65,895.71Z" transform="translate(-16.64 -10.15)"/><path class="cls-14" d="M145.85,832.27c-8.52,8.57-6.85,32.44,6.25,34.54-.2-10.92,6.91-14.53,12.81-19.36C150.86,844.75,145.85,832.27,145.85,832.27Z" transform="translate(-16.64 -10.15)"/><path class="cls-14" d="M473.79,212c4.5,7-4.5,5.74-4.5,5.74-33-16.75-39.27,3.89-39.27,3.89-.85,1.75-.94,5.21.59,6.26,2.12,1,4.24-.84,4.24-.84,12.1-9.62,30.25.16,30.25.16,29.95,14.42,27.15-7.6,27.15-7.6-5-31.5-53.21-32.27-53.21-32.27-8.07-28.09-34-25.87-34-25.87-15.06.67-26.82,6.16-28,20.55-.71,8.71,2.35,15.84,4.77,22.93,4.67-4.66,13-9.93,22.64-8.93,6.66.68,11.78,4.57,14,9.23C460.74,192.6,473.79,212,473.79,212Z" transform="translate(-16.64 -10.15)"/><path class="cls-7" d="M473.53,230.6a64,64,0,0,1-8.43-3.4s-14-7.53-25.58-2.87c4.78.19,22.43,2,29.51,18.7,7.66,18-2.48,33.1-2.48,33.1,3.83-5,8.69-12.1,8.69-12.1,11.69-18.83-.2-32.89-.2-32.89A10.26,10.26,0,0,1,473.53,230.6Zm18.68-7.71c-.5,4.26-3.07,10.88-14.42,8.79-.53-.05-.84-.1-.84-.1a26.77,26.77,0,0,1,2.64,2.55c4.12.63,9.54-2.47,9.54-2.47a4,4,0,0,1-2.17,4.49c3.49,15.36-1.94,33-1.94,33a2,2,0,0,1,3-1,4.67,4.67,0,0,0,4.5,2.17C503.63,244.31,494,226,492.21,222.89Z" transform="translate(-16.64 -10.15)"/><path class="cls-15" d="M479.48,200.72c-.72,1,4.86,9.82,6.2,13.14s4.76,19-17.16,9.09-31.13-3.61-33.82.94.15,3.15.15,3.15c12.1-9.62,30.25.16,30.25.16,29.95,14.42,27.15-7.6,27.15-7.6a30.13,30.13,0,0,0-11.82-19.49S480.2,199.69,479.48,200.72Zm-92.71.13c5-2.62,10.86-5.54,17.63-4.84s11.78,4.57,14,9.23c42.34-12.64,55.39,6.75,55.39,6.75,1.13,1.75,1.41,3,1.2,3.84,0,0,2.53-1.25-.48-5.7S460.45,194,432.42,196.89c0,0-32-22.85-46,2.17C386.39,199.06,384.56,202,386.77,200.85Z" transform="translate(-16.64 -10.15)"/><path class="cls-14" d="M463.76,142.28c46.74,9.31,50.26,3.39,50.26,3.39,4-15.57,7.34-30.91,12.51-45,5.21-14.23,12.43-26.52,18.76-38.43-9.65,5.14-22.09,7.49-28.89,15.49-6-7.49-17.55-1.86-20,4.47.68-7.82-2.83-11.47-9.83-11.62,5.69-9.09-4.49-15.78-11.32-11-.86-6.09-5.13-8.77-8.34-12.51-2.79,4.16-6.69,7.2-6.25,14.6-5.48-4.87-14.41-.11-11,8-8.26.21-10.14,8.27-10.42,15.49-1.49-8.75-14.29-11-20-4.47-3.67-10.73-19.7-9.1-26.81-16.38C405,86.82,413.87,112.86,421.68,140,440.62,137.94,463.76,142.28,463.76,142.28Z" transform="translate(-16.64 -10.15)"/><path class="cls-15" d="M412.23,169.45s1.63,1.15,1.91,1.81.77,2.1-.62,4.77a12.25,12.25,0,0,0-.52,3.05s-.48,3.2-5.29-.48c0,0,.57,2.63,6.48,2.77,0,0,10.78-1.05,16.5,6.25,0,0,2.1,2.43,2.48,2.34s1.19-.39,1.14-.67A26.13,26.13,0,0,0,412.23,169.45Z" transform="translate(-16.64 -10.15)"/><path class="cls-15" d="M420.5,82.76s2.26,1.7,1.06,12.23,2.05,14.84,4.1,15.27,6.71.28,7.92-.43c0,0-.14-4.24,1.41-6.15s4.95-8.2,4.81-13.64c0,0,.92,6.43-4.52,14.77,0,0-3.54,6.79,4.94,7.57s9.83-2.76,10.11-4-.21-4.24-3.39-7.21a18.92,18.92,0,0,1-4.52-7.14s4.17,6.43,6.64,8.7a6,6,0,0,1,.29,8.76s.28,1.91,3.46.78,10.74-6.64,11.8-13.93a8.52,8.52,0,0,0-2.12-5.23c-2.12-2.33-7.92-16.54,5.52-19.86,0,0,12.22-2.05,10.1,15.76,0,0-1.83,7.5-1.76,10.11s-1.13,11.74,10.18,14.35c0,0-1.2-6.43.49-9.54s6.15-9.83,6.15-9.83,4.17-6.72-1.34-14.91c0,0,5.72,6.15,2.89,12.93S481,109.34,491,113.72c0,0,8.41,2.12,10.18-4.8,0,0,.85-3.75-1.41-9.06s-4.39-10.32-1-16.6A16.5,16.5,0,0,0,499,96.61c3.32,7.15,4.1,12.94,2,15.84,0,0,7,1.77,9.75-1.83s3.54-7.07,4.81-14.5,2.83-16.61,6.22-19.79c0,0-4.17,6.5-5,17.74s-2.05,19-6.71,19.86a25.64,25.64,0,0,1-10.32.22s-8.63,2.26-15.35,0-11-7.92-11-20.43c0,0-2,.63-3,.14,0,0,3.61-.85,4.67-5.52s.42-13.85-7-14.14c0,0-8.69.29-8.2,10.26,0,0,.35,5.23,3.39,8.62s1.41,9.54-1.77,13.29-5.44,6.71-12.93,7.35-12.87-.07-15.27-2.68c0,0-10.53,2.82-12.58-4.67,0,0-.78-2.69-.22-8.48s1.2-10.6-.28-14.78C420.36,83.11,420.15,82.82,420.5,82.76Z" transform="translate(-16.64 -10.15)"/><path class="cls-15" d="M467.79,141.87s11.58,1.39,16.55,2.22a100.65,100.65,0,0,0,13.29,1.55c3.36.06,12.88-.57,12.88-.57v.68a69,69,0,0,1-20.68,0l-22-3.57Z" transform="translate(-16.64 -10.15)"/><path class="cls-15" d="M429.53,133.8v.36s14.42.67,18.25.93,14.38,1.25,16.34,1.4,19.29,1.86,24.26,2.07,20.06.15,20.11-.47.15-.56-2.27-.56-12.73.1-18.36-.1-12.57-.68-14.94-.94-26.17-2.22-26.95-2.22S429.53,133.8,429.53,133.8Z" transform="translate(-16.64 -10.15)"/><path class="cls-15" d="M450.31,119.27c-1.8-.62-11.27-.67-11.27-.67-8.33.2-10.55.41-10.65,4.86S431,128,431,128l3.93.05s12.42.11,15.21-.05,3.15-2.79,3.21-4.91S452.13,119.89,450.31,119.27Zm-5.22,8.27H430.92c-1.91-.67-2.12-3.36-2-5.58s3.62-2.53,4.65-2.64,11-.21,12.51-.15,2.28,1.6,2.23,4.86A3.53,3.53,0,0,1,445.09,127.54Z" transform="translate(-16.64 -10.15)"/><path class="cls-15" d="M508.34,122.17c-3.11-.83-13.14-1.55-13.14-1.55-6.41-.21-7.6,2.74-6.87,6.67s12.09,4.65,17.06,4.86,7-2.17,7.35-4.24S511.44,123,508.34,122.17Zm-5.23,7.6c-7-.16-12.61-1.09-13.28-1.5s-2.23-1.81-.73-5.12c0,0,1.24-2.48,6.52-2a131.4,131.4,0,0,1,13.13,2S510.09,129.92,503.11,129.77Z" transform="translate(-16.64 -10.15)"/><path class="cls-15" d="M483.2,123.47c0-2.77-3.38-3.75-4.05-3.87a128.65,128.65,0,0,0-13.31-.95,25.28,25.28,0,0,0-3.87.23,3.83,3.83,0,0,0-3.55,4,6.1,6.1,0,0,0,1.64,4.14c2.1,2,13.85,1.94,18.13,2h.06c4.37,0,4.93-5.18,4.93-5.18l-.18,0h.18C483.19,123.71,483.2,123.59,483.2,123.47ZM462,119.24a25.87,25.87,0,0,1,3.73-.23h.08a120.64,120.64,0,0,1,12.43.86c.38,1,2,6.1-3.35,7.28,0,0-11.77.45-14.7-.6l0,0a5.84,5.84,0,0,1-1.39-3.7A3.46,3.46,0,0,1,462,119.24Z" transform="translate(-16.64 -10.15)"/><path class="cls-5" d="M500.8,928.7c-6.14-9.36-5.6-25-5.39-27.46.14-1.67-1.86-3.08-3.2-3.82a86.3,86.3,0,0,1-4.85,14.26c11.4,54.2-16.15,89.46-16.15,89.46-19.45-18-16.5-82.33-16.5-82.33l-.46-.41c-3.94,71.16,17.17,85.64,17.17,85.64l.3,12.9C491,987.28,493.22,970.76,495,955a97.6,97.6,0,0,0-3.58-39l4.87,7.25Z" transform="translate(-16.64 -10.15)"/></svg>