<svg id="Warstwa_1" data-name="Warstwa 1" xmlns="http://www.w3.org/2000/svg" viewBox="0 0 298.61 103.75"><defs><style>.cls-1{fill:#fff;}.cls-2{fill:#1d1d1b;}.cls-3{fill:#b61f2b;}.cls-4{fill:#878787;}</style></defs><rect class="cls-1" width="298.61" height="103.75"/><path class="cls-2" d="M130.93,36.84a15,15,0,0,0-1.82.07v5.52h1.36a13.34,13.34,0,0,0,2-.12,4.1,4.1,0,0,0,1.44-.45,2.27,2.27,0,0,0,.88-.86,2.86,2.86,0,0,0,.29-1.38,2.9,2.9,0,0,0-.29-1.33,2.22,2.22,0,0,0-.86-.86,3.78,3.78,0,0,0-1.31-.45,9.45,9.45,0,0,0-1.68-.14m-.25-2.68a10,10,0,0,1,5.66,1.35,4.71,4.71,0,0,1,2,4.14,4.65,4.65,0,0,1-3.42,4.7c.31.38.66.84,1.06,1.38s.8,1.13,1.21,1.76.8,1.29,1.18,1.95a18.65,18.65,0,0,1,1,2h-3.44c-.32-.59-.65-1.19-1-1.79s-.72-1.18-1.09-1.75-.74-1.1-1.1-1.6-.7-.95-1-1.34h-2.59V51.4H126V34.57a16.56,16.56,0,0,1,2.42-.33c.85-.06,1.62-.08,2.29-.08"/><path class="cls-2" d="M150.84,40.61c-.33.34-.76.83-1.29,1.45s-1.11,1.32-1.72,2.08-1.22,1.56-1.83,2.39-1.17,1.63-1.66,2.38H151V51.4H140.74V49.55a22.64,22.64,0,0,1,1.35-2.14c.55-.77,1.11-1.55,1.68-2.33s1.14-1.52,1.71-2.23S146.55,41.53,147,41h-5.94V38.51h9.78Z"/><path class="cls-2" d="M161.26,43.69a4.19,4.19,0,0,0-.17-1.17,2.94,2.94,0,0,0-.5-1,2.71,2.71,0,0,0-.82-.65,2.75,2.75,0,0,0-3.23.71,3,3,0,0,0-.55,1,6,6,0,0,0-.28,1.11ZM152.61,45a8.1,8.1,0,0,1,.51-3,6,6,0,0,1,1.34-2.13,5.56,5.56,0,0,1,1.92-1.29,6,6,0,0,1,2.22-.43,5.28,5.28,0,0,1,4.15,1.66,7.1,7.1,0,0,1,1.49,4.92v1.11h-8.55a3.34,3.34,0,0,0,1.1,2.4,4.14,4.14,0,0,0,2.82.85,9.61,9.61,0,0,0,2-.19,8.89,8.89,0,0,0,1.42-.42l.4,2.43c-.22.1-.45.19-.68.27a8.56,8.56,0,0,1-1,.24c-.37.08-.76.14-1.19.19a11.38,11.38,0,0,1-1.31.07,8.09,8.09,0,0,1-3-.5A5.43,5.43,0,0,1,153,47.65a8.31,8.31,0,0,1-.4-2.67"/><path class="cls-2" d="M166.69,45a7.61,7.61,0,0,1,.45-2.67,6.26,6.26,0,0,1,1.26-2.16,5.92,5.92,0,0,1,2-1.43,6.75,6.75,0,0,1,2.66-.52,8.87,8.87,0,0,1,3.45.67l-.64,2.44A6.91,6.91,0,0,0,174.7,41a6.5,6.5,0,0,0-1.39-.15,3.25,3.25,0,0,0-2.66,1.1,4.68,4.68,0,0,0-.91,3.09,4.86,4.86,0,0,0,.86,3,3.44,3.44,0,0,0,2.91,1.12A8.37,8.37,0,0,0,175,49a8.14,8.14,0,0,0,1.28-.37l.42,2.46a6.53,6.53,0,0,1-1.49.44,11,11,0,0,1-2.06.2,7.62,7.62,0,0,1-2.87-.5,5.64,5.64,0,0,1-2-1.41,5.86,5.86,0,0,1-1.19-2.14,8.9,8.9,0,0,1-.41-2.66"/><path class="cls-2" d="M188,40.61c-.33.34-.76.83-1.29,1.45s-1.11,1.32-1.71,2.08-1.22,1.56-1.84,2.39-1.17,1.63-1.67,2.38h6.66V51.4H177.94V49.55a22.64,22.64,0,0,1,1.35-2.14c.55-.77,1.1-1.55,1.68-2.33s1.15-1.52,1.71-2.23,1.07-1.32,1.52-1.85h-5.94V38.51H188Z"/><path class="cls-2" d="M199.5,45a4.77,4.77,0,0,0-.9-3.1,3.51,3.51,0,0,0-2.9-1.11h-.87a5.47,5.47,0,0,0-.9.16v7.37a4.25,4.25,0,0,0,1,.5,4.15,4.15,0,0,0,1.39.24A2.65,2.65,0,0,0,198.74,48a5.28,5.28,0,0,0,.76-3m3.05,0a9.2,9.2,0,0,1-.38,2.71,6.31,6.31,0,0,1-1.1,2.12,4.9,4.9,0,0,1-1.78,1.38,5.77,5.77,0,0,1-2.43.49,6,6,0,0,1-1.68-.22,6.4,6.4,0,0,1-1.25-.5v5h-3v-17a21.7,21.7,0,0,1,2.24-.46,16.56,16.56,0,0,1,2.81-.23,7.69,7.69,0,0,1,2.73.47,5.74,5.74,0,0,1,2.06,1.34,6,6,0,0,1,1.3,2.12,8.1,8.1,0,0,1,.46,2.8"/><path class="cls-2" d="M214.23,44.94a5,5,0,0,0-.83-3,2.92,2.92,0,0,0-4.1-.5,3,3,0,0,0-.5.5,5,5,0,0,0-.83,3A5.09,5.09,0,0,0,208.8,48a2.89,2.89,0,0,0,4.6,0,5,5,0,0,0,.83-3.08m3,0a8.27,8.27,0,0,1-.44,2.79,6.18,6.18,0,0,1-1.26,2.14,5.73,5.73,0,0,1-1.95,1.38,6.44,6.44,0,0,1-2.53.49,6.17,6.17,0,0,1-2.51-.49,5.82,5.82,0,0,1-1.85-1.38,6.36,6.36,0,0,1-1.27-2.14,8.28,8.28,0,0,1-.45-2.79,8.17,8.17,0,0,1,.45-2.77A6.33,6.33,0,0,1,206.69,40a5.48,5.48,0,0,1,2-1.36,6.2,6.2,0,0,1,2.48-.49,6.3,6.3,0,0,1,2.5.49,5.48,5.48,0,0,1,2,1.36,6.32,6.32,0,0,1,1.27,2.13,8.17,8.17,0,0,1,.45,2.77"/><path class="cls-2" d="M223.59,49.25a3.87,3.87,0,0,0,1.72-.28,1,1,0,0,0,.55-1,1.26,1.26,0,0,0-.58-1.06,9,9,0,0,0-1.91-.91c-.54-.2-1-.41-1.49-.63a4.6,4.6,0,0,1-1.17-.78,3.18,3.18,0,0,1-.78-1.07,3.57,3.57,0,0,1-.24-1.52,3.33,3.33,0,0,1,1.3-2.79,5.56,5.56,0,0,1,3.55-1,11.24,11.24,0,0,1,2.17.21,11.79,11.79,0,0,1,1.55.41l-.57,2.39a8,8,0,0,0-1.26-.4,7.5,7.5,0,0,0-1.77-.19,3.15,3.15,0,0,0-1.48.31,1,1,0,0,0-.57,1,1.55,1.55,0,0,0,.11.56,1.33,1.33,0,0,0,.39.46,3.4,3.4,0,0,0,.71.42c.35.16.71.3,1.08.43a14.38,14.38,0,0,1,1.8.78,4.73,4.73,0,0,1,1.22.86,3,3,0,0,1,.7,1.1,4.08,4.08,0,0,1,.23,1.47,3.2,3.2,0,0,1-1.37,2.8,6.84,6.84,0,0,1-3.9,1,11,11,0,0,1-2.74-.28c-.49-.13-1-.28-1.46-.46l.52-2.49a12.84,12.84,0,0,0,1.59.52,8.33,8.33,0,0,0,2.11.24"/><path class="cls-2" d="M240.17,45a4.77,4.77,0,0,0-.9-3.1,3.5,3.5,0,0,0-2.89-1.11h-.88a5.67,5.67,0,0,0-.9.16v7.37a4.25,4.25,0,0,0,1,.5,4.15,4.15,0,0,0,1.39.24A2.67,2.67,0,0,0,239.42,48a5.19,5.19,0,0,0,.75-3m3,0a9.2,9.2,0,0,1-.38,2.71,6.31,6.31,0,0,1-1.1,2.12,4.9,4.9,0,0,1-1.78,1.38,5.61,5.61,0,0,1-2.42.49,6.18,6.18,0,0,1-2.94-.72v5h-3v-17c.61-.16,1.36-.32,2.24-.46a17.66,17.66,0,0,1,2.81-.23,7.78,7.78,0,0,1,2.74.47,5.68,5.68,0,0,1,2,1.34,6,6,0,0,1,1.31,2.12,8.34,8.34,0,0,1,.45,2.8"/><path class="cls-2" d="M254.91,44.94a5,5,0,0,0-.83-3,2.93,2.93,0,0,0-4.61,0,5,5,0,0,0-.82,3,5.15,5.15,0,0,0,.82,3.08,2.9,2.9,0,0,0,4.06.55,2.87,2.87,0,0,0,.55-.55,5.09,5.09,0,0,0,.83-3.08m3,0a8.53,8.53,0,0,1-.44,2.79,6.18,6.18,0,0,1-1.26,2.14,5.65,5.65,0,0,1-2,1.38,6.27,6.27,0,0,1-2.53.49,6.17,6.17,0,0,1-2.51-.49,5.69,5.69,0,0,1-1.94-1.38A6.05,6.05,0,0,1,246,47.73a8,8,0,0,1-.46-2.79,7.94,7.94,0,0,1,.46-2.77A6.25,6.25,0,0,1,247.33,40a5.54,5.54,0,0,1,1.95-1.36,6.62,6.62,0,0,1,5,0,5.39,5.39,0,0,1,2,1.36,6.16,6.16,0,0,1,1.27,2.13A7.94,7.94,0,0,1,258,44.9"/><path class="cls-2" d="M265.52,51.65a8.22,8.22,0,0,1-2.2-.3,3.35,3.35,0,0,1-1.4-.78,2.63,2.63,0,0,1-.72-1.25,6.17,6.17,0,0,1-.21-1.71V35l3-.5V47a4.6,4.6,0,0,0,.08.91,1.4,1.4,0,0,0,.32.63,1.3,1.3,0,0,0,.59.39,5,5,0,0,0,1,.21Z"/><path class="cls-2" d="M271.36,51.4h-3V38.51h3Zm.33-16.65a1.74,1.74,0,0,1-.54,1.33,1.85,1.85,0,0,1-1.28.49,1.88,1.88,0,0,1-1.31-.49,1.94,1.94,0,0,1,0-2.69,1.88,1.88,0,0,1,1.31-.49,1.85,1.85,0,0,1,1.28.49,1.74,1.74,0,0,1,.54,1.36"/><path class="cls-2" d="M275,35l3-.49v4h4.58V41H278v5.25a3.9,3.9,0,0,0,.49,2.22,2,2,0,0,0,1.67.66A5.43,5.43,0,0,0,281.6,49a7.26,7.26,0,0,0,1-.32l.5,2.37a10.83,10.83,0,0,1-1.36.45,7.5,7.5,0,0,1-2,.24,6.45,6.45,0,0,1-2.3-.37A3.36,3.36,0,0,1,276,50.25a4.09,4.09,0,0,1-.76-1.7,10.23,10.23,0,0,1-.23-2.27Z"/><path class="cls-2" d="M290,49.31a12.29,12.29,0,0,0,2.1-.15v-3.3q-.36-.09-.72-.15a6.29,6.29,0,0,0-2,0,3.19,3.19,0,0,0-.91.27,1.64,1.64,0,0,0-.65.55,1.52,1.52,0,0,0-.25.9,1.55,1.55,0,0,0,.67,1.47,3.4,3.4,0,0,0,1.79.41m-.24-11.12a7.52,7.52,0,0,1,2.49.37,4,4,0,0,1,1.61,1,3.82,3.82,0,0,1,.86,1.61,8.14,8.14,0,0,1,.26,2.09v7.8c-.46.1-1.15.22-2.08.36a20.62,20.62,0,0,1-3.14.21,9.48,9.48,0,0,1-2.12-.22,4.47,4.47,0,0,1-1.64-.72A3.38,3.38,0,0,1,285,49.41a4.45,4.45,0,0,1-.38-1.94,3.85,3.85,0,0,1,.43-1.88,3.75,3.75,0,0,1,1.17-1.24,5,5,0,0,1,1.71-.69,9.64,9.64,0,0,1,2-.21,8.39,8.39,0,0,1,1,.06,11.27,11.27,0,0,1,1.16.21v-.49a4.21,4.21,0,0,0-.12-1,2,2,0,0,0-.44-.83,2.07,2.07,0,0,0-.81-.56,3.66,3.66,0,0,0-1.27-.19,12.07,12.07,0,0,0-1.9.15,7.52,7.52,0,0,0-1.4.34l-.37-2.41a10.44,10.44,0,0,1,1.65-.4,12.91,12.91,0,0,1,2.32-.2"/><path class="cls-2" d="M131.05,59.68a15.61,15.61,0,0,0-1.94.07v5.82h1.5a7.73,7.73,0,0,0,3.45-.63,2.43,2.43,0,0,0,1.21-2.38,2.94,2.94,0,0,0-.32-1.4,2.38,2.38,0,0,0-.89-.89,4.3,4.3,0,0,0-1.35-.45,10.24,10.24,0,0,0-1.66-.14M130.83,57a10.14,10.14,0,0,1,5.7,1.35,4.77,4.77,0,0,1,2,4.24,5.81,5.81,0,0,1-.53,2.57,4.48,4.48,0,0,1-1.54,1.75,6.87,6.87,0,0,1-2.46,1,16.2,16.2,0,0,1-3.33.32h-1.55v6H126V57.42a14.92,14.92,0,0,1,2.4-.34c.88,0,1.69-.08,2.43-.08"/><path class="cls-2" d="M149.36,67.79a5,5,0,0,0-.83-3,2.92,2.92,0,0,0-4.1-.5,3,3,0,0,0-.5.5,5,5,0,0,0-.83,3,5.09,5.09,0,0,0,.83,3.08,2.91,2.91,0,0,0,4.08.52,2.84,2.84,0,0,0,.52-.52,5.09,5.09,0,0,0,.83-3.08m3,0a8.17,8.17,0,0,1-.44,2.78,5.91,5.91,0,0,1-1.28,2.14,5.47,5.47,0,0,1-1.95,1.38,6.28,6.28,0,0,1-2.53.5,6.18,6.18,0,0,1-2.51-.5,5.47,5.47,0,0,1-1.95-1.38,6.36,6.36,0,0,1-1.27-2.14,8.78,8.78,0,0,1,0-5.55,6,6,0,0,1,1.28-2.13,5.63,5.63,0,0,1,2-1.37,6.72,6.72,0,0,1,5,0,5.42,5.42,0,0,1,2,1.37A6.18,6.18,0,0,1,152,65a8.17,8.17,0,0,1,.45,2.77"/><path class="cls-2" d="M160,74.49a8.24,8.24,0,0,1-2.21-.3,3.53,3.53,0,0,1-1.39-.77,2.81,2.81,0,0,1-.73-1.26,7,7,0,0,1-.21-1.71V57.86l3-.49V69.88a4.6,4.6,0,0,0,.08.91,1.49,1.49,0,0,0,.31.63,1.54,1.54,0,0,0,.61.4,4.24,4.24,0,0,0,1,.21Z"/><path class="cls-2" d="M166,72.1a4,4,0,0,0,1.72-.28,1,1,0,0,0,.54-1,1.29,1.29,0,0,0-.57-1.06,9,9,0,0,0-1.91-.91,13.85,13.85,0,0,1-1.49-.63,4.84,4.84,0,0,1-1.17-.77,3.18,3.18,0,0,1-.78-1.07,3.69,3.69,0,0,1-.28-1.54,3.36,3.36,0,0,1,1.3-2.8A5.68,5.68,0,0,1,167,61a12.17,12.17,0,0,1,2.17.2,11.79,11.79,0,0,1,1.55.41l-.54,2.42a7.13,7.13,0,0,0-1.26-.41,7.55,7.55,0,0,0-1.77-.18,3.15,3.15,0,0,0-1.48.3,1,1,0,0,0-.56,1,1.4,1.4,0,0,0,.1.57,1.33,1.33,0,0,0,.39.46,3.85,3.85,0,0,0,.71.41,10.18,10.18,0,0,0,1.08.44,14.33,14.33,0,0,1,1.8.77,5,5,0,0,1,1.23.86,3,3,0,0,1,.7,1.1,4.66,4.66,0,0,1,.22,1.48,3.18,3.18,0,0,1-1.37,2.79,6.82,6.82,0,0,1-3.91,1,10.87,10.87,0,0,1-2.73-.28,12.21,12.21,0,0,1-1.45-.46l.51-2.49a12.84,12.84,0,0,0,1.59.52,7.91,7.91,0,0,0,2.11.25"/><path class="cls-2" d="M177.05,66.38l1.21-1.27c.42-.45.85-.9,1.26-1.35l1.17-1.31.94-1.09h3.53c-.82.91-1.68,1.87-2.59,2.86s-1.83,1.94-2.75,2.88a15.59,15.59,0,0,1,1.55,1.49c.54.58,1.07,1.2,1.58,1.86a22.11,22.11,0,0,1,1.42,2,21,21,0,0,1,1.11,1.82H182c-.3-.51-.64-1-1-1.6A12.36,12.36,0,0,0,179.78,71c-.45-.53-.9-1-1.35-1.49a11,11,0,0,0-1.36-1.19v5.91h-3V57.86l3-.49Z"/><path class="cls-2" d="M192.18,72.15a10.55,10.55,0,0,0,2.1-.15V68.7q-.36-.09-.72-.15a7.18,7.18,0,0,0-2,0,3,3,0,0,0-.92.27,1.68,1.68,0,0,0-.65.56,1.4,1.4,0,0,0-.25.89,1.55,1.55,0,0,0,.67,1.47,3.41,3.41,0,0,0,1.8.41M191.93,61a7.24,7.24,0,0,1,2.49.37A3.63,3.63,0,0,1,196.9,64a8.14,8.14,0,0,1,.26,2.09V74c-.46.09-1.16.22-2.09.35a20.62,20.62,0,0,1-3.14.21,9.48,9.48,0,0,1-2.12-.22,4.45,4.45,0,0,1-1.64-.71,3.39,3.39,0,0,1-1-1.29,4.45,4.45,0,0,1-.38-1.94,3.8,3.8,0,0,1,.42-1.87,3.45,3.45,0,0,1,1.18-1.25,4.79,4.79,0,0,1,1.71-.68,9,9,0,0,1,2-.22,6.73,6.73,0,0,1,1,.07,7.76,7.76,0,0,1,1.17.21v-.5a3.76,3.76,0,0,0-.13-1,2,2,0,0,0-.43-.83,2.16,2.16,0,0,0-.82-.55,3.67,3.67,0,0,0-1.27-.2,11.94,11.94,0,0,0-1.89.15,7.34,7.34,0,0,0-1.4.34l-.38-2.41a11.8,11.8,0,0,1,1.66-.4,12.79,12.79,0,0,1,2.31-.19"/><rect class="cls-1" x="2" y="19.89" width="101.51" height="33.88"/><rect class="cls-3" x="2" y="53.76" width="101.51" height="33.87"/><path class="cls-4" d="M2.32,20.21H103.19v67.1H2.32ZM2,87.63H103.51V19.89H2Z"/></svg>