<?xml version="1.0" encoding="utf-8"?>
<!-- Generator: Adobe Illustrator 25.2.1, SVG Export Plug-In . SVG Version: 6.00 Build 0)  -->
<svg version="1.1" id="Layer_1" xmlns="http://www.w3.org/2000/svg" xmlns:xlink="http://www.w3.org/1999/xlink" x="0px" y="0px"
	 viewBox="0 0 800 800" style="enable-background:new 0 0 800 800;" xml:space="preserve">
<style type="text/css">
	.st0{fill:#81D5DB;}
	.st1{clip-path:url(#SVGID_1_);}
	.st2{fill:#FFFFFF;}
	.st3{fill:#FFC300;}
	.st4{fill:#294A9C;}
	.st5{fill:#F0411D;}
</style>
<g id="_x31__Month_Member">
	<g>
		<path class="st0" d="M0.3,800L83.9,52.5C87.3,22.6,112.6,0,142.7,0l514.7,0c30.1,0,55.4,22.6,58.7,52.5L799.7,800H0.3z"/>
	</g>
	<g>
		<defs>
			<path id="SVGID_3_" d="M0.3,800L83.9,52.5C87.3,22.6,112.6,0,142.7,0l514.7,0c30.1,0,55.4,22.6,58.7,52.5L799.7,800H0.3z"/>
		</defs>
		<clipPath id="SVGID_1_">
			<use xlink:href="#SVGID_3_"  style="overflow:visible;"/>
		</clipPath>
		<g class="st1">
			<g>
				<path class="st2" d="M401.1,825c-12.6,0-23.4-9.4-24.8-22.2L312.9,236c-1.5-13.7,8.3-26.1,22.1-27.6
					c13.7-1.5,26.1,8.3,27.6,22.1L426,797.2c1.5,13.7-8.3,26.1-22.1,27.6C403,825,402,825,401.1,825z"/>
			</g>
			<g>
				<path class="st2" d="M542.4,825c-12.6,0-23.4-9.4-24.8-22.2L454.2,236c-1.5-13.7,8.3-26.1,22.1-27.6
					c13.7-1.5,26.1,8.3,27.6,22.1l63.4,566.7c1.5,13.7-8.3,26.1-22.1,27.6C544.3,825,543.3,825,542.4,825z"/>
			</g>
			<g>
				<path class="st2" d="M683.7,825c-12.6,0-23.4-9.4-24.8-22.2L595.5,236c-1.5-13.7,8.3-26.1,22.1-27.6
					c13.7-1.5,26.1,8.3,27.6,22.1l63.4,566.7c1.5,13.7-8.3,26.1-22.1,27.6C685.6,825,684.6,825,683.7,825z"/>
			</g>
		</g>
		<g class="st1">
			<path class="st2" d="M833.9,406.1H191.5c-13.8,0-25-11.2-25-25s11.2-25,25-25h642.4c13.8,0,25,11.2,25,25
				S847.7,406.1,833.9,406.1z"/>
		</g>
		<g class="st1">
			<path class="st2" d="M833.9,553.9H191.5c-13.8,0-25-11.2-25-25s11.2-25,25-25h642.4c13.8,0,25,11.2,25,25
				S847.7,553.9,833.9,553.9z"/>
		</g>
		<g class="st1">
			<path class="st2" d="M833.9,701.7H191.5c-13.8,0-25-11.2-25-25s11.2-25,25-25h642.4c13.8,0,25,11.2,25,25
				S847.7,701.7,833.9,701.7z"/>
		</g>
		<g class="st1">
			<rect x="126" y="-171.2" class="st3" width="695.3" height="404.5"/>
			<path class="st2" d="M846.3,258.3H101v-454.5h745.3V258.3z M151,208.3h645.3v-354.5H151V208.3z"/>
		</g>
	</g>
	<g>
		<path class="st4" d="M0.3,800L83.9,52.5C87.3,22.6,112.6,0,142.7,0h0c30.1,0,55.4,22.6,58.7,52.5L285,800H0.3z"/>
	</g>
	<g>
		<path class="st5" d="M437.1,136.9H295.6c-13.8,0-25-11.2-25-25s11.2-25,25-25h141.5c13.8,0,25,11.2,25,25S450.9,136.9,437.1,136.9
			z"/>
	</g>
</g>
</svg>
