<?xml version="1.0" encoding="utf-8"?>
<!-- Generator: Adobe Illustrator 25.2.1, SVG Export Plug-In . SVG Version: 6.00 Build 0)  -->
<svg version="1.1" id="Layer_1" xmlns="http://www.w3.org/2000/svg" xmlns:xlink="http://www.w3.org/1999/xlink" x="0px" y="0px"
	 viewBox="0 0 800 800" style="enable-background:new 0 0 800 800;" xml:space="preserve">
<style type="text/css">
	.st0{fill:#F0411D;}
	.st1{clip-path:url(#SVGID_1_);}
	.st2{fill:#FFFFFF;}
	.st3{fill:#294A9C;}
</style>
<g id="New_Member">
	<g>
		<path class="st0" d="M751.3,800H48.7C21.8,800,0,778.2,0,751.3V48.7C0,21.8,21.8,0,48.7,0h702.5C778.2,0,800,21.8,800,48.7v702.5
			C800,778.2,778.2,800,751.3,800z"/>
	</g>
	<g>
		<defs>
			<path id="SVGID_3_" d="M751.3,800H48.7C21.8,800,0,778.2,0,751.3V48.7C0,21.8,21.8,0,48.7,0h702.5C778.2,0,800,21.8,800,48.7
				v702.5C800,778.2,778.2,800,751.3,800z"/>
		</defs>
		<clipPath id="SVGID_1_">
			<use xlink:href="#SVGID_3_"  style="overflow:visible;"/>
		</clipPath>
		<g class="st1">
			<rect x="-130.2" y="330.4" class="st2" width="1060.5" height="355.6"/>
		</g>
	</g>
	<g>
		<path class="st0" d="M750,50v700H50V50H750 M751.3,0H48.7C21.8,0,0,21.8,0,48.7v702.5C0,778.2,21.8,800,48.7,800h702.5
			c26.9,0,48.7-21.8,48.7-48.7V48.7C800,21.8,778.2,0,751.3,0L751.3,0z"/>
	</g>
	<g>
		<path class="st2" d="M581.8,161.5H218.2c-27.6,0-50-22.4-50-50s22.4-50,50-50h363.6c27.6,0,50,22.4,50,50S609.4,161.5,581.8,161.5
			z"/>
	</g>
	<g>
		<path class="st2" d="M522.2,269.9H277.8c-13.8,0-25-11.2-25-25s11.2-25,25-25h244.4c13.8,0,25,11.2,25,25S536,269.9,522.2,269.9z"
			/>
	</g>
	<g>
		<circle class="st3" cx="650.2" cy="533.7" r="24.9"/>
	</g>
	<g>
		<path class="st3" d="M418.8,563.3c-9.6,0-19.1-2.9-27.3-8.8L309,495.8v20.3c0,17.7-9.8,33.8-25.5,41.9
			c-15.7,8.1-34.5,6.8-48.9-3.5l-87.1-61.9c-11.3-8-13.9-23.6-5.9-34.9s23.6-13.9,34.9-5.9l82.5,58.7v-20.3
			c0-17.7,9.8-33.8,25.5-41.9c15.7-8.1,34.5-6.8,48.9,3.5l82.5,58.7v-20.3c0-17.7,9.8-33.8,25.5-41.9c15.7-8.1,34.5-6.8,48.9,3.5
			l87.1,61.9c11.3,8,13.9,23.6,5.9,34.9c-8,11.3-23.6,13.9-34.9,5.9l-82.5-58.7v20.3c0,17.7-9.8,33.8-25.5,41.9
			C433.5,561.5,426.1,563.3,418.8,563.3z"/>
	</g>
</g>
</svg>
