<?xml version="1.0" encoding="utf-8"?>
<!-- Generator: Adobe Illustrator 25.2.1, SVG Export Plug-In . SVG Version: 6.00 Build 0)  -->
<svg version="1.1" id="Layer_1" xmlns="http://www.w3.org/2000/svg" xmlns:xlink="http://www.w3.org/1999/xlink" x="0px" y="0px"
	 viewBox="0 0 800 800" style="enable-background:new 0 0 800 800;" xml:space="preserve">
<style type="text/css">
	.st0{fill:#499ABF;}
	.st1{fill:#294A9C;}
	.st2{fill:#81D5DB;}
	.st3{fill:#FFFFFF;}
</style>
<g id="Verified_User">
	<g>
		<path class="st0" d="M746.1,665.9c0-29.9,24.1-54.1,53.9-54.5v-68.3c-29.8-0.3-53.9-24.6-53.9-54.5c0-29.9,24.1-54.1,53.9-54.5
			v-68.3c-29.8-0.3-53.9-24.6-53.9-54.5c0-29.9,24.1-54.1,53.9-54.5v-68.3c-29.8-0.3-53.9-24.6-53.9-54.5S770.2,80,800,79.6V0h-79.6
			c-0.3,29.8-24.6,53.9-54.5,53.9S611.8,29.8,611.4,0h-68.3c-0.3,29.8-24.6,53.9-54.5,53.9S434.5,29.8,434.2,0h-68.3
			c-0.3,29.8-24.6,53.9-54.5,53.9c-29.9,0-54.1-24.1-54.5-53.9h-68.3c-0.3,29.8-24.6,53.9-54.5,53.9C104.2,53.9,80,29.8,79.6,0H0
			v79.6c29.8,0.3,53.9,24.6,53.9,54.5S29.8,188.2,0,188.6v68.3c29.8,0.3,53.9,24.6,53.9,54.5c0,29.9-24.1,54.1-53.9,54.5v68.3
			c29.8,0.3,53.9,24.6,53.9,54.5c0,29.9-24.1,54.1-53.9,54.5v68.3c29.8,0.3,53.9,24.6,53.9,54.5S29.8,720,0,720.4V800h79.6
			c0.3-29.8,24.6-53.9,54.5-53.9c29.9,0,54.1,24.1,54.5,53.9h68.3c0.3-29.8,24.6-53.9,54.5-53.9c29.9,0,54.1,24.1,54.5,53.9h68.3
			c0.3-29.8,24.6-53.9,54.5-53.9s54.1,24.1,54.5,53.9h68.3c0.3-29.8,24.6-53.9,54.5-53.9s54.1,24.1,54.5,53.9H800v-79.6
			C770.2,720,746.1,695.8,746.1,665.9z"/>
	</g>
	<g>
		<rect x="103" y="103" class="st1" width="594" height="594"/>
	</g>
	<g>
		<path class="st2" d="M412.7,180.4L412.7,180.4c86.3,0,156.3,70,156.3,156.3v268.8H299v-134l-94.2,0l59.2-183
			C284.8,224.1,344.9,180.4,412.7,180.4z"/>
	</g>
	<g>
		<circle class="st3" cx="352.6" cy="378.7" r="28.1"/>
	</g>
</g>
</svg>
