<?xml version="1.0" encoding="utf-8"?>
<!-- Generator: Adobe Illustrator 25.2.1, SVG Export Plug-In . SVG Version: 6.00 Build 0)  -->
<svg version="1.1" id="Layer_1" xmlns="http://www.w3.org/2000/svg" xmlns:xlink="http://www.w3.org/1999/xlink" x="0px" y="0px"
	 viewBox="0 0 800 800" style="enable-background:new 0 0 800 800;" xml:space="preserve">
<style type="text/css">
	.st0{fill:#2F3542;}
	.st1{fill:#499ABF;}
	.st2{fill:#81D5DB;}
</style>
<g id="_x31__Year_Member">
	<g>
		<path class="st0" d="M519.3,775C447.1,723.2,400,638.5,400,542.9c0,95.7-47.1,180.3-119.3,232.1H519.3z"/>
		<path class="st0" d="M519.3,800H280.7c-10.9,0-20.5-7-23.8-17.4s0.4-21.6,9.2-28c33-23.6,60.4-55.1,79.2-90.9
			c19.4-37,29.7-78.8,29.7-120.9c0-13.8,11.2-25,25-25s25,11.2,25,25c0,42.1,10.3,83.9,29.7,120.9c18.8,35.8,46.2,67.3,79.2,90.9
			c8.8,6.3,12.6,17.6,9.2,28S530.2,800,519.3,800z M345.8,750h108.5c-17.1-19.1-31.9-40.3-43.8-63c-3.8-7.2-7.3-14.5-10.4-22
			c-3.2,7.5-6.7,14.8-10.4,22C377.7,709.7,362.9,730.9,345.8,750z"/>
	</g>
	<g>
		<circle class="st1" cx="399.7" cy="724.1" r="24.9"/>
	</g>
	<g>
		<circle class="st0" cx="200" cy="453.6" r="200"/>
	</g>
	<g>
		<circle class="st0" cx="600" cy="453.6" r="200"/>
	</g>
	<g>
		<path class="st0" d="M741.4,312.2L449.9,20.7c-27.5-27.5-72.2-27.5-99.7,0L58.6,312.2H741.4z"/>
	</g>
	<g>
		<rect x="290.1" y="275.1" class="st0" width="219.7" height="178.5"/>
	</g>
	<g>
		<path class="st0" d="M400,652.6c-13.8,0-25-11.2-25-25V119.5c0-13.8,11.2-25,25-25s25,11.2,25,25v508.1
			C425,641.4,413.8,652.6,400,652.6z"/>
	</g>
	<g>
		<g>
			<circle class="st2" cx="200" cy="453.6" r="89.2"/>
			<path class="st1" d="M200,567.9c-63,0-114.2-51.2-114.2-114.2c0-63,51.3-114.2,114.2-114.2c63,0,114.2,51.2,114.2,114.2
				C314.2,516.6,263,567.9,200,567.9z M200,389.4c-35.4,0-64.2,28.8-64.2,64.2s28.8,64.2,64.2,64.2s64.2-28.8,64.2-64.2
				S235.4,389.4,200,389.4z"/>
		</g>
		<g>
			<path class="st1" d="M249.7,277.2c-13.8,0-25-11.2-25-25c0-13.8,11.2-25,25-25c69.3,0,125.6-56.3,125.6-125.6
				c0-13.8,11.2-25,25-25c13.8,0,25,11.2,25,25C425.3,198.4,346.5,277.2,249.7,277.2z"/>
		</g>
		<g>
			<path class="st1" d="M550.9,277.2c-96.8,0-175.6-78.8-175.6-175.6c0-13.8,11.2-25,25-25c13.8,0,25,11.2,25,25
				c0,69.3,56.3,125.6,125.6,125.6c13.8,0,25,11.2,25,25C575.9,266,564.7,277.2,550.9,277.2z"/>
		</g>
		<g>
			<path class="st1" d="M249.1,553.2c-8.1,0-16.1-4-20.9-11.2c-7.6-11.5-4.4-27,7.1-34.6c86.1-56.7,138.2-152.2,139.4-255.4
				c0.2-13.7,11.3-24.7,25-24.7c0.1,0,0.2,0,0.3,0c13.8,0.2,24.9,11.5,24.7,25.3c-1.4,119.8-61.9,230.7-161.9,296.5
				C258.6,551.8,253.8,553.2,249.1,553.2z"/>
		</g>
		<g>
			<circle class="st2" cx="600" cy="453.6" r="89.2"/>
			<path class="st1" d="M600,567.9c-63,0-114.2-51.2-114.2-114.2c0-63,51.2-114.2,114.2-114.2c63,0,114.2,51.2,114.2,114.2
				C714.2,516.6,663,567.9,600,567.9z M600,389.4c-35.4,0-64.2,28.8-64.2,64.2s28.8,64.2,64.2,64.2s64.2-28.8,64.2-64.2
				S635.4,389.4,600,389.4z"/>
		</g>
		<g>
			<path class="st1" d="M550.9,553.2c-4.7,0-9.5-1.3-13.7-4.1c-100-65.8-160.5-176.7-161.9-296.5c-0.2-13.8,10.9-25.1,24.7-25.3
				c0.1,0,0.2,0,0.3,0c13.7,0,24.8,11,25,24.7c1.2,103.2,53.3,198.7,139.4,255.4c11.5,7.6,14.7,23.1,7.1,34.6
				C567,549.2,559,553.2,550.9,553.2z"/>
		</g>
		<g>
			<path class="st1" d="M400.3,277.2c-13.8,0-25-11.2-25-25V101.6c0-13.8,11.2-25,25-25s25,11.2,25,25v150.6
				C425.3,266,414.1,277.2,400.3,277.2z"/>
		</g>
	</g>
	<g>
		<polygon class="st0" points="255.6,775 255.6,800 327,800 		"/>
	</g>
	<g>
		<polygon class="st0" points="544.4,775 544.4,800 473,800 		"/>
	</g>
</g>
</svg>
