<?xml version="1.0" encoding="utf-8"?>
<!-- Generator: Adobe Illustrator 25.2.1, SVG Export Plug-In . SVG Version: 6.00 Build 0)  -->
<svg version="1.1" id="Layer_1" xmlns="http://www.w3.org/2000/svg" xmlns:xlink="http://www.w3.org/1999/xlink" x="0px" y="0px"
	 viewBox="0 0 800 800" style="enable-background:new 0 0 800 800;" xml:space="preserve">
<style type="text/css">
	.st0{fill:#F284AC;}
	.st1{fill:#81D5DB;}
	.st2{fill:#FFC300;}
	.st3{fill:#FFFFFF;}
</style>
<g id="_x32__Year_Member">
	<g>
		<path class="st0" d="M113.8,505l72.4,76.7l72.2-76.8c72.8-77.4,113.3-179.7,113.3-285.9V0L0,0l0,218.5C0,325,40.7,427.5,113.8,505
			z"/>
	</g>
	<g>
		
			<rect x="0" y="0" transform="matrix(-1 -4.479362e-11 4.479362e-11 -1 371.7271 176.994)" class="st1" width="371.7" height="176.9"/>
	</g>
	<g>
		<circle class="st2" cx="118.3" cy="380.1" r="24.9"/>
	</g>
	<g>
		<circle class="st2" cx="226.4" cy="438.7" r="24.9"/>
	</g>
	<g>
		<circle class="st2" cx="287.4" cy="252.3" r="24.9"/>
	</g>
	<g>
		<circle class="st2" cx="68.5" cy="236.4" r="24.9"/>
	</g>
	<g>
		<circle class="st2" cx="185.9" cy="290.9" r="24.9"/>
	</g>
	<g>
		<path class="st0" d="M686.2,505l-72.4,76.7l-72.2-76.8c-72.8-77.4-113.3-179.7-113.3-285.9V0H800v218.5
			C800,325,759.3,427.5,686.2,505z"/>
	</g>
	<g>
		<path class="st1" d="M751.1,799.9H477.2c-12.7,0-23.4-9.5-24.8-22.2c-1.4-12.6,6.8-24.3,19.2-27.2l137-31.7
			c3.7-0.9,7.6-0.9,11.3,0l137,31.7c12.4,2.9,20.6,14.6,19.2,27.2C774.5,790.4,763.8,799.9,751.1,799.9z"/>
	</g>
	<g>
		<circle class="st2" cx="690.1" cy="375.1" r="24.9"/>
	</g>
	<g>
		<circle class="st2" cx="561.4" cy="405" r="24.9"/>
	</g>
	<g>
		<circle class="st2" cx="738.8" cy="265.3" r="24.9"/>
	</g>
	<g>
		<circle class="st2" cx="641.3" cy="236.4" r="24.9"/>
	</g>
	<g>
		<circle class="st2" cx="502.1" cy="296.7" r="24.9"/>
	</g>
	<g>
		<rect x="428.3" y="0" class="st1" width="371.7" height="176.9"/>
	</g>
	<g>
		<path class="st3" d="M492.4,135.8c-13.8,0-25-11.2-25-25V66.2c0-13.8,11.2-25,25-25s25,11.2,25,25v44.7
			C517.4,124.6,506.2,135.8,492.4,135.8z"/>
	</g>
	<g>
		<rect x="589.1" y="554.6" class="st1" width="50" height="220.4"/>
	</g>
	<g>
		<path class="st1" d="M322.8,799.9H48.9c-12.7,0-23.4-9.5-24.8-22.2c-1.4-12.6,6.8-24.3,19.2-27.2l137-31.7c3.7-0.9,7.6-0.9,11.3,0
			l137,31.7c12.4,2.9,20.6,14.6,19.2,27.2C346.2,790.4,335.5,799.9,322.8,799.9z"/>
	</g>
	<g>
		<path class="st3" d="M64.8,135.8c-13.8,0-25-11.2-25-25V66.2c0-13.8,11.2-25,25-25s25,11.2,25,25v44.7
			C89.8,124.6,78.6,135.8,64.8,135.8z"/>
	</g>
	<g>
		<rect x="160.9" y="554.6" class="st1" width="50" height="220.4"/>
	</g>
	<g>
		<rect x="23.9" y="774.9" class="st1" width="57.8" height="25"/>
	</g>
	<g>
		<rect x="290.1" y="774.9" class="st1" width="57.8" height="25"/>
	</g>
	<g>
		<g>
			<rect x="452.1" y="774.9" class="st1" width="57.8" height="25"/>
		</g>
		<g>
			<rect x="718.3" y="774.9" class="st1" width="57.8" height="25"/>
		</g>
	</g>
</g>
</svg>
