<?xml version="1.0" encoding="utf-8"?>
<!-- Generator: Adobe Illustrator 25.2.1, SVG Export Plug-In . SVG Version: 6.00 Build 0)  -->
<svg version="1.1" id="Layer_1" xmlns="http://www.w3.org/2000/svg" xmlns:xlink="http://www.w3.org/1999/xlink" x="0px" y="0px"
	 viewBox="0 0 800 800" style="enable-background:new 0 0 800 800;" xml:space="preserve">
<style type="text/css">
	.st0{fill:#294A9C;}
	.st1{clip-path:url(#SVGID_1_);}
	.st2{fill:#499ABF;}
	.st3{fill:#F284AC;}
	.st4{fill:#81D5DB;}
	.st5{fill:#FFFFFF;}
</style>
<g id="_x33__Year_Member">
	<g>
		<path class="st0" d="M400,0L400,0C179.1,0,0,179.1,0,400v400h800V400C800,179.1,620.9,0,400,0z"/>
	</g>
	<g>
		<defs>
			<path id="SVGID_3_" d="M400,0L400,0C179.1,0,0,179.1,0,400v400h800V400C800,179.1,620.9,0,400,0z"/>
		</defs>
		<clipPath id="SVGID_1_">
			<use xlink:href="#SVGID_3_"  style="overflow:visible;"/>
		</clipPath>
		<g class="st1">
			<path class="st2" d="M1255.6,349.9H624.5c-13.8,0-24.9,11.2-24.9,24.9v108.4h656V349.9z"/>
		</g>
		<g class="st1">
			<path class="st3" d="M800,616.6H224.8c-13.8,0-24.9,11.2-24.9,24.9V750H800V616.6z"/>
		</g>
		<g class="st1">
			<path class="st4" d="M1027.8,483.3H424.9c-13.8,0-24.9,11.2-24.9,24.9v108.4h627.8V483.3z"/>
		</g>
	</g>
	<g>
		<circle class="st5" cx="400" cy="261.5" r="88.7"/>
	</g>
	<g>
		<path class="st3" d="M800,800h-50V400c0-47.3-9.2-93.1-27.5-136.2c-17.6-41.7-42.9-79.1-75-111.3s-69.6-57.4-111.3-75
			C493.1,59.2,447.3,50,400,50s-93.1,9.2-136.2,27.5c-41.7,17.6-79.1,42.9-111.3,75s-57.4,69.6-75,111.3C59.2,306.9,50,352.7,50,400
			v400H0V400c0-54,10.6-106.4,31.4-155.7c20.1-47.6,49-90.4,85.7-127.1s79.5-65.6,127.1-85.7C293.6,10.6,346,0,400,0
			c54,0,106.4,10.6,155.7,31.4c47.6,20.1,90.4,49,127.1,85.7s65.6,79.5,85.7,127.1C789.4,293.6,800,346,800,400V800z"/>
	</g>
	<g>
		<rect x="0" y="750" class="st3" width="800" height="50"/>
	</g>
</g>
</svg>
