<?xml version="1.0" encoding="UTF-8" standalone="no"?>
<!DOCTYPE svg PUBLIC "-//W3C//DTD SVG 1.1//EN" "http://www.w3.org/Graphics/SVG/1.1/DTD/svg11.dtd">
<svg xmlns="http://www.w3.org/2000/svg" version="1.1" viewBox="0.00 0.00 100.00 46.00">
<g stroke-width="2.00" fill="none" stroke-linecap="butt">
<path stroke="#8c86ac" vector-effect="non-scaling-stroke" d="
  M 45.58 7.10
  L 57.13 21.39
  Q 58.24 22.76 58.24 21.00
  L 58.24 4.79
  Q 58.24 3.77 58.78 4.64
  L 64.73 14.18
  Q 65.00 14.62 65.00 15.13
  L 65.00 22.01
  Q 65.00 22.52 65.51 22.51
  L 67.28 22.50
  Q 67.80 22.50 67.81 21.98
  C 67.86 19.31 67.23 14.93 68.80 12.56
  Q 71.71 8.16 74.34 3.89
  A 0.41 0.39 32.7 0 0 74.21 3.34
  L 73.99 3.19
  A 0.33 0.33 0.0 0 0 73.53 3.29
  L 67.47 12.67
  A 0.35 0.35 0.0 0 1 66.88 12.67
  L 61.05 3.55
  Q 60.71 3.02 60.08 3.00
  L 57.72 2.95
  Q 57.12 2.94 57.12 3.53
  L 57.05 16.42
  Q 57.04 17.27 56.51 16.61
  L 46.07 3.73
  Q 43.94 1.10 43.93 4.49
  L 43.89 20.06
  Q 43.89 21.46 43.32 20.18
  L 35.86 3.26
  A 0.47 0.47 0.0 0 0 35.00 3.27
  L 27.04 21.74
  Q 26.80 22.30 27.41 22.40
  L 27.67 22.44
  Q 27.84 22.47 27.92 22.32
  Q 29.49 19.27 30.49 16.39
  Q 30.72 15.75 31.39 15.80
  Q 34.52 16.04 37.65 15.75
  Q 38.26 15.69 38.50 16.26
  L 40.89 21.92
  Q 41.12 22.47 41.72 22.47
  L 44.37 22.50
  Q 45.00 22.50 45.00 21.88
  L 45.00 7.30
  Q 45.00 6.39 45.58 7.10"
/>
<path stroke="#8c86ac" vector-effect="non-scaling-stroke" d="
  M 88.47 21.74
  A 0.55 0.55 0.0 0 0 88.86 20.80
  L 80.23 12.20
  A 0.55 0.55 0.0 0 0 79.29 12.59
  L 79.31 21.20
  A 0.55 0.55 0.0 0 0 79.86 21.75
  L 88.47 21.74"
/>
<path stroke="#8c86ac" vector-effect="non-scaling-stroke" d="
  M 17.87 12.67
  A 0.60 0.60 0.0 0 0 16.84 12.24
  L 8.34 20.74
  A 0.60 0.60 0.0 0 0 8.77 21.77
  L 17.26 21.76
  A 0.60 0.60 0.0 0 0 17.86 21.16
  L 17.87 12.67"
/>
<path stroke="#8c86ac" vector-effect="non-scaling-stroke" d="
  M 54.63 31.18
  L 54.65 43.43
  Q 54.65 44.22 55.43 44.25
  L 56.30 44.29
  A 0.84 0.83 -88.7 0 0 57.17 43.45
  L 57.19 31.26
  Q 57.19 30.71 57.74 30.71
  L 61.28 30.71
  Q 61.77 30.71 61.78 30.22
  L 61.81 29.19
  Q 61.82 28.57 61.19 28.56
  L 57.68 28.51
  Q 56.95 28.50 57.00 27.77
  C 57.24 24.44 59.60 24.27 62.22 24.86
  A 0.62 0.61 4.6 0 0 62.98 24.22
  L 62.92 23.51
  Q 62.86 22.67 62.03 22.56
  Q 54.88 21.58 54.66 27.90
  Q 54.65 28.35 54.23 28.52
  Q 54.00 28.61 53.75 28.54
  Q 53.17 28.37 52.93 28.92
  Q 52.68 29.49 52.84 30.10
  Q 53.01 30.76 53.69 30.75
  L 54.18 30.74
  Q 54.63 30.74 54.63 31.18"
/>
<path stroke="#c1daf5" vector-effect="non-scaling-stroke" d="
  M 8.92 23.01
  A 0.59 0.59 0.0 0 0 8.49 24.01
  L 16.89 32.56
  A 0.59 0.59 0.0 0 0 17.90 32.15
  L 17.93 23.72
  A 0.59 0.59 0.0 0 0 17.35 23.13
  L 8.92 23.01"
/>
<path stroke="#8c86ac" vector-effect="non-scaling-stroke" d="
  M 26.36 23.46
  C 22.70 24.10 19.86 26.86 20.98 30.87
  C 22.70 37.07 35.28 33.15 33.78 39.47
  Q 33.40 41.11 31.68 41.58
  Q 26.10 43.11 21.01 39.69
  A 0.05 0.05 0.0 0 0 20.93 39.72
  Q 20.59 41.23 20.79 42.78
  Q 20.82 43.02 21.04 43.10
  Q 27.32 45.58 32.44 43.89
  C 37.39 42.26 38.84 34.91 32.81 33.30
  Q 29.96 32.54 26.91 32.04
  C 22.12 31.26 22.65 26.33 27.23 25.80
  Q 31.72 25.29 35.43 27.61
  A 0.40 0.40 0.0 0 0 36.04 27.27
  L 36.05 25.22
  Q 36.05 24.50 35.37 24.27
  Q 30.59 22.71 26.36 23.46"
/>
<path stroke="#c1daf5" vector-effect="non-scaling-stroke" d="
  M 79.58 31.88
  A 0.33 0.33 0.0 0 0 80.14 32.11
  L 88.34 24.02
  A 0.33 0.33 0.0 0 0 88.12 23.46
  L 79.70 23.12
  A 0.33 0.33 0.0 0 0 79.36 23.45
  L 79.58 31.88"
/>
<path stroke="#8c86ac" vector-effect="non-scaling-stroke" d="
  M 67.75 28.52
  L 67.14 28.55
  Q 66.59 28.57 66.39 29.09
  Q 66.22 29.53 66.31 30.00
  Q 66.40 30.55 66.95 30.67
  Q 67.24 30.74 67.53 30.70
  Q 68.21 30.61 68.22 31.30
  Q 68.30 34.99 68.23 38.85
  Q 68.10 45.80 75.57 44.36
  A 1.22 1.22 0.0 0 0 76.55 43.19
  Q 76.55 43.05 76.53 42.91
  Q 76.37 42.00 75.48 42.25
  C 73.17 42.88 70.65 42.37 70.70 39.46
  Q 70.77 34.84 70.68 31.25
  Q 70.66 30.67 71.24 30.67
  L 75.55 30.70
  Q 76.57 30.71 76.48 29.70
  L 76.44 29.21
  Q 76.39 28.53 75.71 28.53
  L 71.25 28.55
  Q 70.71 28.55 70.71 28.00
  L 70.74 24.50
  Q 70.74 23.89 70.14 23.89
  L 68.81 23.87
  Q 68.22 23.86 68.22 24.45
  L 68.25 27.99
  Q 68.26 28.50 67.75 28.52"
/>
<path stroke="#c1daf5" vector-effect="non-scaling-stroke" d="
  M 39.07 40.78
  Q 39.21 41.34 39.71 41.73"
/>
<path stroke="#88a2c2" vector-effect="non-scaling-stroke" d="
  M 39.71 41.73
  C 44.10 46.13 51.46 44.16 52.34 37.83
  Q 52.41 37.34 52.20 36.89
  L 50.58 33.51"
/>
<path stroke="#c1daf5" vector-effect="non-scaling-stroke" d="
  M 50.58 33.51
  Q 50.73 32.94 49.77 32.37"
/>
<path stroke="#e3ecf3" vector-effect="non-scaling-stroke" d="
  M 49.77 32.37
  Q 49.58 32.12 49.34 32.24
  Q 49.20 32.31 49.08 32.55
  Q 48.66 33.38 47.99 33.85
  Q 46.61 34.82 44.73 35.28
  Q 44.35 35.38 44.17 35.72
  Q 44.06 35.93 44.13 36.13
  Q 44.31 36.65 43.76 36.61
  L 39.80 36.31
  Q 39.26 36.27 39.06 36.77
  Q 38.23 38.90 39.07 40.78"
/>
<path stroke="#a4c7e9" vector-effect="non-scaling-stroke" d="
  M 49.77 32.37
  Q 49.21 32.55 49.41 33.50
  Q 49.61 34.45 49.87 35.63"
/>
<path stroke="#6b8fb6" vector-effect="non-scaling-stroke" d="
  M 49.87 35.63
  Q 49.20 35.97 48.32 35.89
  Q 47.81 35.84 47.55 36.27
  Q 47.33 36.63 47.45 37.07
  Q 47.57 37.51 47.94 37.77
  Q 48.29 38.02 48.69 38.16
  Q 49.26 38.37 49.07 38.94
  Q 48.00 42.15 45.65 41.51"
/>
<path stroke="#a4c7e9" vector-effect="non-scaling-stroke" d="
  M 45.65 41.51
  Q 44.60 39.04 44.03 37.92
  A 1.95 1.71 -42.3 0 0 40.90 37.97
  Q 40.54 38.47 39.96 38.32
  Q 39.43 38.17 39.22 38.69
  Q 38.90 39.49 39.07 40.78"
/>
<path stroke="#497db8" vector-effect="non-scaling-stroke" d="
  M 50.58 33.51
  Q 49.99 33.91 49.87 35.63"
/>
<path stroke="#497db8" vector-effect="non-scaling-stroke" d="
  M 39.71 41.73
  Q 39.64 41.43 39.72 41.21
  Q 39.88 40.72 40.37 40.90
  Q 42.39 41.64 43.87 40.48
  Q 44.22 40.21 44.67 40.38
  Q 45.22 40.58 45.65 41.51"
/>
<path stroke="#8c86ac" vector-effect="non-scaling-stroke" d="
  M 31.29 14.65
  A 0.31 0.31 0.0 0 0 31.57 15.08
  L 37.09 15.15
  A 0.31 0.31 0.0 0 0 37.38 14.72
  L 34.70 7.98
  A 0.31 0.31 0.0 0 0 34.13 7.97
  L 31.29 14.65"
/>
</g>
<path fill="#ffffff" d="
  M 0.00 0.00
  L 100.00 0.00
  L 100.00 46.00
  L 0.00 46.00
  L 0.00 0.00
  Z
  M 45.58 7.10
  L 57.13 21.39
  Q 58.24 22.76 58.24 21.00
  L 58.24 4.79
  Q 58.24 3.77 58.78 4.64
  L 64.73 14.18
  Q 65.00 14.62 65.00 15.13
  L 65.00 22.01
  Q 65.00 22.52 65.51 22.51
  L 67.28 22.50
  Q 67.80 22.50 67.81 21.98
  C 67.86 19.31 67.23 14.93 68.80 12.56
  Q 71.71 8.16 74.34 3.89
  A 0.41 0.39 32.7 0 0 74.21 3.34
  L 73.99 3.19
  A 0.33 0.33 0.0 0 0 73.53 3.29
  L 67.47 12.67
  A 0.35 0.35 0.0 0 1 66.88 12.67
  L 61.05 3.55
  Q 60.71 3.02 60.08 3.00
  L 57.72 2.95
  Q 57.12 2.94 57.12 3.53
  L 57.05 16.42
  Q 57.04 17.27 56.51 16.61
  L 46.07 3.73
  Q 43.94 1.10 43.93 4.49
  L 43.89 20.06
  Q 43.89 21.46 43.32 20.18
  L 35.86 3.26
  A 0.47 0.47 0.0 0 0 35.00 3.27
  L 27.04 21.74
  Q 26.80 22.30 27.41 22.40
  L 27.67 22.44
  Q 27.84 22.47 27.92 22.32
  Q 29.49 19.27 30.49 16.39
  Q 30.72 15.75 31.39 15.80
  Q 34.52 16.04 37.65 15.75
  Q 38.26 15.69 38.50 16.26
  L 40.89 21.92
  Q 41.12 22.47 41.72 22.47
  L 44.37 22.50
  Q 45.00 22.50 45.00 21.88
  L 45.00 7.30
  Q 45.00 6.39 45.58 7.10
  Z
  M 88.47 21.74
  A 0.55 0.55 0.0 0 0 88.86 20.80
  L 80.23 12.20
  A 0.55 0.55 0.0 0 0 79.29 12.59
  L 79.31 21.20
  A 0.55 0.55 0.0 0 0 79.86 21.75
  L 88.47 21.74
  Z
  M 17.87 12.67
  A 0.60 0.60 0.0 0 0 16.84 12.24
  L 8.34 20.74
  A 0.60 0.60 0.0 0 0 8.77 21.77
  L 17.26 21.76
  A 0.60 0.60 0.0 0 0 17.86 21.16
  L 17.87 12.67
  Z
  M 54.63 31.18
  L 54.65 43.43
  Q 54.65 44.22 55.43 44.25
  L 56.30 44.29
  A 0.84 0.83 -88.7 0 0 57.17 43.45
  L 57.19 31.26
  Q 57.19 30.71 57.74 30.71
  L 61.28 30.71
  Q 61.77 30.71 61.78 30.22
  L 61.81 29.19
  Q 61.82 28.57 61.19 28.56
  L 57.68 28.51
  Q 56.95 28.50 57.00 27.77
  C 57.24 24.44 59.60 24.27 62.22 24.86
  A 0.62 0.61 4.6 0 0 62.98 24.22
  L 62.92 23.51
  Q 62.86 22.67 62.03 22.56
  Q 54.88 21.58 54.66 27.90
  Q 54.65 28.35 54.23 28.52
  Q 54.00 28.61 53.75 28.54
  Q 53.17 28.37 52.93 28.92
  Q 52.68 29.49 52.84 30.10
  Q 53.01 30.76 53.69 30.75
  L 54.18 30.74
  Q 54.63 30.74 54.63 31.18
  Z
  M 8.92 23.01
  A 0.59 0.59 0.0 0 0 8.49 24.01
  L 16.89 32.56
  A 0.59 0.59 0.0 0 0 17.90 32.15
  L 17.93 23.72
  A 0.59 0.59 0.0 0 0 17.35 23.13
  L 8.92 23.01
  Z
  M 26.36 23.46
  C 22.70 24.10 19.86 26.86 20.98 30.87
  C 22.70 37.07 35.28 33.15 33.78 39.47
  Q 33.40 41.11 31.68 41.58
  Q 26.10 43.11 21.01 39.69
  A 0.05 0.05 0.0 0 0 20.93 39.72
  Q 20.59 41.23 20.79 42.78
  Q 20.82 43.02 21.04 43.10
  Q 27.32 45.58 32.44 43.89
  C 37.39 42.26 38.84 34.91 32.81 33.30
  Q 29.96 32.54 26.91 32.04
  C 22.12 31.26 22.65 26.33 27.23 25.80
  Q 31.72 25.29 35.43 27.61
  A 0.40 0.40 0.0 0 0 36.04 27.27
  L 36.05 25.22
  Q 36.05 24.50 35.37 24.27
  Q 30.59 22.71 26.36 23.46
  Z
  M 79.58 31.88
  A 0.33 0.33 0.0 0 0 80.14 32.11
  L 88.34 24.02
  A 0.33 0.33 0.0 0 0 88.12 23.46
  L 79.70 23.12
  A 0.33 0.33 0.0 0 0 79.36 23.45
  L 79.58 31.88
  Z
  M 67.75 28.52
  L 67.14 28.55
  Q 66.59 28.57 66.39 29.09
  Q 66.22 29.53 66.31 30.00
  Q 66.40 30.55 66.95 30.67
  Q 67.24 30.74 67.53 30.70
  Q 68.21 30.61 68.22 31.30
  Q 68.30 34.99 68.23 38.85
  Q 68.10 45.80 75.57 44.36
  A 1.22 1.22 0.0 0 0 76.55 43.19
  Q 76.55 43.05 76.53 42.91
  Q 76.37 42.00 75.48 42.25
  C 73.17 42.88 70.65 42.37 70.70 39.46
  Q 70.77 34.84 70.68 31.25
  Q 70.66 30.67 71.24 30.67
  L 75.55 30.70
  Q 76.57 30.71 76.48 29.70
  L 76.44 29.21
  Q 76.39 28.53 75.71 28.53
  L 71.25 28.55
  Q 70.71 28.55 70.71 28.00
  L 70.74 24.50
  Q 70.74 23.89 70.14 23.89
  L 68.81 23.87
  Q 68.22 23.86 68.22 24.45
  L 68.25 27.99
  Q 68.26 28.50 67.75 28.52
  Z
  M 39.07 40.78
  Q 39.21 41.34 39.71 41.73
  C 44.10 46.13 51.46 44.16 52.34 37.83
  Q 52.41 37.34 52.20 36.89
  L 50.58 33.51
  Q 50.73 32.94 49.77 32.37
  Q 49.58 32.12 49.34 32.24
  Q 49.20 32.31 49.08 32.55
  Q 48.66 33.38 47.99 33.85
  Q 46.61 34.82 44.73 35.28
  Q 44.35 35.38 44.17 35.72
  Q 44.06 35.93 44.13 36.13
  Q 44.31 36.65 43.76 36.61
  L 39.80 36.31
  Q 39.26 36.27 39.06 36.77
  Q 38.23 38.90 39.07 40.78
  Z"
/>
<path fill="#180d58" d="
  M 45.00 7.30
  L 45.00 21.88
  Q 45.00 22.50 44.37 22.50
  L 41.72 22.47
  Q 41.12 22.47 40.89 21.92
  L 38.50 16.26
  Q 38.26 15.69 37.65 15.75
  Q 34.52 16.04 31.39 15.80
  Q 30.72 15.75 30.49 16.39
  Q 29.49 19.27 27.92 22.32
  Q 27.84 22.47 27.67 22.44
  L 27.41 22.40
  Q 26.80 22.30 27.04 21.74
  L 35.00 3.27
  A 0.47 0.47 0.0 0 1 35.86 3.26
  L 43.32 20.18
  Q 43.89 21.46 43.89 20.06
  L 43.93 4.49
  Q 43.94 1.10 46.07 3.73
  L 56.51 16.61
  Q 57.04 17.27 57.05 16.42
  L 57.12 3.53
  Q 57.12 2.94 57.72 2.95
  L 60.08 3.00
  Q 60.71 3.02 61.05 3.55
  L 66.88 12.67
  A 0.35 0.35 0.0 0 0 67.47 12.67
  L 73.53 3.29
  A 0.33 0.33 0.0 0 1 73.99 3.19
  L 74.21 3.34
  A 0.41 0.39 32.7 0 1 74.34 3.89
  Q 71.71 8.16 68.80 12.56
  C 67.23 14.93 67.86 19.31 67.81 21.98
  Q 67.80 22.50 67.28 22.50
  L 65.51 22.51
  Q 65.00 22.52 65.00 22.01
  L 65.00 15.13
  Q 65.00 14.62 64.73 14.18
  L 58.78 4.64
  Q 58.24 3.77 58.24 4.79
  L 58.24 21.00
  Q 58.24 22.76 57.13 21.39
  L 45.58 7.10
  Q 45.00 6.39 45.00 7.30
  Z
  M 31.29 14.65
  A 0.31 0.31 0.0 0 0 31.57 15.08
  L 37.09 15.15
  A 0.31 0.31 0.0 0 0 37.38 14.72
  L 34.70 7.98
  A 0.31 0.31 0.0 0 0 34.13 7.97
  L 31.29 14.65
  Z"
/>
<path fill="#ffffff" d="
  M 31.29 14.65
  L 34.13 7.97
  A 0.31 0.31 0.0 0 1 34.70 7.98
  L 37.38 14.72
  A 0.31 0.31 0.0 0 1 37.09 15.15
  L 31.57 15.08
  A 0.31 0.31 0.0 0 1 31.29 14.65
  Z"
/>
<path fill="#180d58" d="
  M 88.47 21.74
  L 79.86 21.75
  A 0.55 0.55 0.0 0 1 79.31 21.20
  L 79.29 12.59
  A 0.55 0.55 0.0 0 1 80.23 12.20
  L 88.86 20.80
  A 0.55 0.55 0.0 0 1 88.47 21.74
  Z"
/>
<path fill="#180d58" d="
  M 17.87 12.67
  L 17.86 21.16
  A 0.60 0.60 0.0 0 1 17.26 21.76
  L 8.77 21.77
  A 0.60 0.60 0.0 0 1 8.34 20.74
  L 16.84 12.24
  A 0.60 0.60 0.0 0 1 17.87 12.67
  Z"
/>
<path fill="#180d58" d="
  M 54.18 30.74
  L 53.69 30.75
  Q 53.01 30.76 52.84 30.10
  Q 52.68 29.49 52.93 28.92
  Q 53.17 28.37 53.75 28.54
  Q 54.00 28.61 54.23 28.52
  Q 54.65 28.35 54.66 27.90
  Q 54.88 21.58 62.03 22.56
  Q 62.86 22.67 62.92 23.51
  L 62.98 24.22
  A 0.62 0.61 4.6 0 1 62.22 24.86
  C 59.60 24.27 57.24 24.44 57.00 27.77
  Q 56.95 28.50 57.68 28.51
  L 61.19 28.56
  Q 61.82 28.57 61.81 29.19
  L 61.78 30.22
  Q 61.77 30.71 61.28 30.71
  L 57.74 30.71
  Q 57.19 30.71 57.19 31.26
  L 57.17 43.45
  A 0.84 0.83 -88.7 0 1 56.30 44.29
  L 55.43 44.25
  Q 54.65 44.22 54.65 43.43
  L 54.63 31.18
  Q 54.63 30.74 54.18 30.74
  Z"
/>
<path fill="#82b5eb" d="
  M 8.92 23.01
  L 17.35 23.13
  A 0.59 0.59 0.0 0 1 17.93 23.72
  L 17.90 32.15
  A 0.59 0.59 0.0 0 1 16.89 32.56
  L 8.49 24.01
  A 0.59 0.59 0.0 0 1 8.92 23.01
  Z"
/>
<path fill="#180d58" d="
  M 26.36 23.46
  Q 30.59 22.71 35.37 24.27
  Q 36.05 24.50 36.05 25.22
  L 36.04 27.27
  A 0.40 0.40 0.0 0 1 35.43 27.61
  Q 31.72 25.29 27.23 25.80
  C 22.65 26.33 22.12 31.26 26.91 32.04
  Q 29.96 32.54 32.81 33.30
  C 38.84 34.91 37.39 42.26 32.44 43.89
  Q 27.32 45.58 21.04 43.10
  Q 20.82 43.02 20.79 42.78
  Q 20.59 41.23 20.93 39.72
  A 0.05 0.05 0.0 0 1 21.01 39.69
  Q 26.10 43.11 31.68 41.58
  Q 33.40 41.11 33.78 39.47
  C 35.28 33.15 22.70 37.07 20.98 30.87
  C 19.86 26.86 22.70 24.10 26.36 23.46
  Z"
/>
<path fill="#82b5eb" d="
  M 79.58 31.88
  L 79.36 23.45
  A 0.33 0.33 0.0 0 1 79.70 23.12
  L 88.12 23.46
  A 0.33 0.33 0.0 0 1 88.34 24.02
  L 80.14 32.11
  A 0.33 0.33 0.0 0 1 79.58 31.88
  Z"
/>
<path fill="#180d58" d="
  M 68.25 27.99
  L 68.22 24.45
  Q 68.22 23.86 68.81 23.87
  L 70.14 23.89
  Q 70.74 23.89 70.74 24.50
  L 70.71 28.00
  Q 70.71 28.55 71.25 28.55
  L 75.71 28.53
  Q 76.39 28.53 76.44 29.21
  L 76.48 29.70
  Q 76.57 30.71 75.55 30.70
  L 71.24 30.67
  Q 70.66 30.67 70.68 31.25
  Q 70.77 34.84 70.70 39.46
  C 70.65 42.37 73.17 42.88 75.48 42.25
  Q 76.37 42.00 76.53 42.91
  Q 76.55 43.05 76.55 43.19
  A 1.22 1.22 0.0 0 1 75.57 44.36
  Q 68.10 45.80 68.23 38.85
  Q 68.30 34.99 68.22 31.30
  Q 68.21 30.61 67.53 30.70
  Q 67.24 30.74 66.95 30.67
  Q 66.40 30.55 66.31 30.00
  Q 66.22 29.53 66.39 29.09
  Q 66.59 28.57 67.14 28.55
  L 67.75 28.52
  Q 68.26 28.50 68.25 27.99
  Z"
/>
<path fill="#c6d9e7" d="
  M 49.77 32.37
  Q 49.21 32.55 49.41 33.50
  Q 49.61 34.45 49.87 35.63
  Q 49.20 35.97 48.32 35.89
  Q 47.81 35.84 47.55 36.27
  Q 47.33 36.63 47.45 37.07
  Q 47.57 37.51 47.94 37.77
  Q 48.29 38.02 48.69 38.16
  Q 49.26 38.37 49.07 38.94
  Q 48.00 42.15 45.65 41.51
  Q 44.60 39.04 44.03 37.92
  A 1.95 1.71 -42.3 0 0 40.90 37.97
  Q 40.54 38.47 39.96 38.32
  Q 39.43 38.17 39.22 38.69
  Q 38.90 39.49 39.07 40.78
  Q 38.23 38.90 39.06 36.77
  Q 39.26 36.27 39.80 36.31
  L 43.76 36.61
  Q 44.31 36.65 44.13 36.13
  Q 44.06 35.93 44.17 35.72
  Q 44.35 35.38 44.73 35.28
  Q 46.61 34.82 47.99 33.85
  Q 48.66 33.38 49.08 32.55
  Q 49.20 32.31 49.34 32.24
  Q 49.58 32.12 49.77 32.37
  Z"
/>
<path fill="#82b5eb" d="
  M 49.77 32.37
  Q 50.73 32.94 50.58 33.51
  Q 49.99 33.91 49.87 35.63
  Q 49.61 34.45 49.41 33.50
  Q 49.21 32.55 49.77 32.37
  Z"
/>
<path fill="#104485" d="
  M 50.58 33.51
  L 52.20 36.89
  Q 52.41 37.34 52.34 37.83
  C 51.46 44.16 44.10 46.13 39.71 41.73
  Q 39.64 41.43 39.72 41.21
  Q 39.88 40.72 40.37 40.90
  Q 42.39 41.64 43.87 40.48
  Q 44.22 40.21 44.67 40.38
  Q 45.22 40.58 45.65 41.51
  Q 48.00 42.15 49.07 38.94
  Q 49.26 38.37 48.69 38.16
  Q 48.29 38.02 47.94 37.77
  Q 47.57 37.51 47.45 37.07
  Q 47.33 36.63 47.55 36.27
  Q 47.81 35.84 48.32 35.89
  Q 49.20 35.97 49.87 35.63
  Q 49.99 33.91 50.58 33.51
  Z"
/>
<path fill="#82b5eb" d="
  M 45.65 41.51
  Q 45.22 40.58 44.67 40.38
  Q 44.22 40.21 43.87 40.48
  Q 42.39 41.64 40.37 40.90
  Q 39.88 40.72 39.72 41.21
  Q 39.64 41.43 39.71 41.73
  Q 39.21 41.34 39.07 40.78
  Q 38.90 39.49 39.22 38.69
  Q 39.43 38.17 39.96 38.32
  Q 40.54 38.47 40.90 37.97
  A 1.95 1.71 -42.3 0 1 44.03 37.92
  Q 44.60 39.04 45.65 41.51
  Z"
/>
</svg>
