<svg width="120" height="120" viewBox="0 0 120 120" fill="none" xmlns="http://www.w3.org/2000/svg">
<rect width="120" height="120" fill="#CBF3EC"/>
<path d="M96.9162 41.8896C99.7276 41.8896 102.007 44.1687 102.007 46.9801L102.007 79.8141C102.007 82.6255 99.7276 84.9046 96.9162 84.9046L31.8277 84.9046C29.0163 84.9046 26.7372 82.6255 26.7372 79.8141L26.7372 46.9801C26.7372 44.1687 29.0163 41.8896 31.8277 41.8896L96.9162 41.8896Z" fill="#38AF88"/>
<path d="M91.4479 34C94.2593 34 96.5384 36.2791 96.5384 39.0905L96.5384 73.645C96.5384 76.4564 94.2593 78.7355 91.4479 78.7355L23.0904 78.7355C20.279 78.7355 17.9999 76.4564 17.9999 73.645L17.9999 39.0905C17.9999 36.2791 20.279 34 23.0904 34L91.4479 34Z" fill="#184634"/>
<path d="M82.2093 39.6768C82.0863 39.3764 81.7997 39.1699 81.4751 39.1699H33.2854C32.9608 39.1699 32.6743 39.3764 32.5512 39.6768C31.1103 43.1937 27.8024 45.7307 23.8771 46.0239C23.4566 46.0553 23.114 46.3942 23.114 46.8159V65.9359C23.114 66.3576 23.4566 66.6965 23.8771 66.7279C27.8024 67.0211 31.1103 69.5581 32.5512 73.075C32.6743 73.3754 32.9608 73.5819 33.2854 73.5819L81.4751 73.5819C81.7997 73.5819 82.0863 73.3754 82.2093 73.075C83.6502 69.5581 86.9582 67.0211 90.8834 66.7279C91.3039 66.6965 91.6465 66.3576 91.6465 65.9359V46.8159C91.6465 46.3942 91.3039 46.0553 90.8834 46.0239C86.9582 45.7307 83.6502 43.1937 82.2093 39.6768Z" fill="#38AF88"/>
<path fill-rule="evenodd" clip-rule="evenodd" d="M65.4841 91.3524L65.4841 67.9995L54.4642 67.9995L54.4642 91.3524H49.7977C48.2864 91.3524 47.4499 93.1042 48.3999 94.2796L58.5536 106.842C59.273 107.732 60.6299 107.732 61.3493 106.842L71.5031 94.2796C72.4531 93.1043 71.6166 91.3524 70.1052 91.3524H65.4841Z" fill="#F9B822"/>
</svg>
